<?xml version="1.0" standalone="no"?>
<!DOCTYPE svg PUBLIC "-//W3C//DTD SVG 20010904//EN"
 "http://www.w3.org/TR/2001/REC-SVG-20010904/DTD/svg10.dtd">
<svg version="1.0" xmlns="http://www.w3.org/2000/svg"
 width="1918.000000pt" height="915.000000pt" viewBox="0 0 1918.000000 915.000000"
 preserveAspectRatio="xMidYMid meet">

<g transform="translate(0.000000,915.000000) scale(0.100000,-0.100000)"
fill="#000000" stroke="none">
<path d="M16798 8673 c6 -2 18 -2 25 0 6 3 1 5 -13 5 -14 0 -19 -2 -12 -5z"/>
<path d="M3785 7341 c-64 -27 -81 -110 -32 -158 60 -61 162 -19 162 67 0 66
-72 116 -130 91z m90 -36 c50 -49 15 -135 -55 -135 -40 0 -80 39 -80 78 0 74
84 109 135 57z"/>
<path d="M4995 7341 c-64 -27 -81 -110 -32 -158 60 -61 162 -19 162 67 0 66
-72 116 -130 91z m90 -36 c54 -53 17 -135 -61 -135 -39 0 -74 38 -74 82 0 39
40 78 80 78 19 0 40 -9 55 -25z"/>
<path d="M2837 6743 c-4 -3 -7 -496 -7 -1095 l0 -1088 35 0 c20 0 46 -6 58
-14 26 -17 92 -15 126 4 13 7 46 13 73 13 32 1 48 5 48 14 0 7 7 13 15 13 19
0 10 54 -14 90 -13 19 -14 30 -6 48 5 12 13 22 17 22 12 0 33 52 33 80 0 21 7
27 40 37 140 42 145 45 145 84 0 55 18 65 93 49 83 -17 117 -16 168 9 23 12
48 21 55 21 6 0 15 7 18 16 4 10 14 14 26 11 10 -3 24 1 31 9 12 15 92 11 97
-5 2 -5 12 -7 22 -4 12 3 20 0 20 -7 0 -18 42 -2 68 26 46 52 20 5 -31 -54
-29 -33 -63 -81 -76 -106 -12 -25 -27 -46 -32 -46 -5 0 -9 -15 -9 -32 0 -18
-4 -28 -8 -22 -13 19 -42 25 -42 8 0 -8 7 -17 15 -20 25 -10 15 -94 -11 -94
-8 0 -14 -4 -14 -10 0 -5 5 -10 10 -10 6 0 10 -11 10 -24 0 -15 7 -26 19 -29
11 -2 21 -14 23 -26 3 -20 5 -20 32 -6 27 14 30 14 43 -5 8 -11 24 -20 36 -20
36 0 102 -55 102 -85 0 -5 9 -11 20 -13 23 -5 68 -33 61 -39 -2 -2 -19 2 -37
10 -19 8 -49 14 -67 15 -45 1 -65 18 -51 44 6 11 9 20 7 21 -2 1 -13 8 -25 14
-19 11 -24 10 -33 -7 -15 -27 -38 -25 -52 5 -11 26 -108 85 -137 85 -41 -1
-41 -16 1 -59 35 -35 42 -49 43 -81 0 -31 4 -40 17 -40 18 0 33 -33 23 -50 -3
-5 -19 -10 -34 -10 -34 0 -53 -35 -44 -81 5 -25 3 -31 -8 -27 -8 3 -13 11 -11
18 2 7 -3 20 -11 29 -8 9 -17 28 -21 44 -7 31 -26 37 -26 8 0 -10 -7 -22 -16
-25 -13 -5 -14 -9 -4 -20 9 -11 9 -20 -1 -38 -8 -14 -14 -18 -17 -10 -6 20
-19 14 -64 -28 -24 -22 -46 -40 -50 -40 -5 0 -8 -9 -8 -20 0 -13 -10 -24 -25
-30 -14 -5 -25 -12 -25 -14 0 -3 20 -14 45 -25 43 -19 73 -60 60 -81 -3 -4 2
-11 11 -14 12 -5 15 -2 10 9 -10 26 25 31 45 7 9 -12 22 -22 28 -22 6 0 11 -7
11 -15 0 -18 -21 -20 -38 -3 -17 17 -25 3 -12 -22 16 -29 6 -49 -30 -61 -36
-13 -39 -36 -5 -49 28 -11 31 -22 11 -39 -8 -7 -12 -21 -8 -33 3 -14 1 -19 -6
-14 -7 4 -12 16 -12 27 0 11 -17 37 -37 58 -31 31 -45 38 -77 37 -41 0 -63 18
-72 64 -13 63 -51 124 -55 90 -7 -51 -9 -79 -9 -104 -1 -36 -19 -73 -29 -57
-4 6 -18 10 -31 9 -19 -2 -31 7 -55 44 -27 43 -34 47 -80 53 -27 4 -72 19
-100 34 -42 22 -62 27 -125 26 l-75 0 -3 -1017 -2 -1018 1590 0 1590 0 0 689
c0 600 -2 690 -15 701 -8 7 -15 18 -15 25 0 20 -31 40 -54 36 -18 -3 -16 2 11
28 18 17 42 31 53 31 19 0 20 6 20 147 0 80 -2 144 -5 141 -3 -2 -26 -44 -53
-93 -56 -103 -72 -117 -101 -91 -17 15 -23 16 -36 6 -12 -10 -16 -9 -21 4 -5
12 -18 15 -65 12 -51 -3 -59 -1 -59 14 0 13 -13 21 -46 29 -32 8 -44 15 -37
22 12 12 5 49 -8 49 -5 0 -9 -5 -9 -12 0 -6 -10 -2 -23 10 -13 12 -29 22 -35
22 -7 0 -12 5 -12 10 0 6 -7 10 -15 10 -20 0 -19 13 3 33 26 24 42 21 42 -8 0
-18 5 -25 18 -25 32 0 33 12 6 41 -16 17 -22 29 -15 33 18 11 13 26 -9 26 -33
0 -23 19 46 87 49 48 70 62 85 58 13 -4 19 -2 19 8 0 10 -7 13 -20 10 -22 -6
-28 20 -10 47 8 13 15 12 50 -7 41 -22 56 -15 20 10 -18 12 -19 15 -5 20 8 4
26 2 39 -3 21 -8 25 -5 31 18 4 15 14 35 22 45 20 22 6 23 -18 1 -17 -15 -21
-15 -41 -2 -45 30 -74 64 -90 103 -12 31 -23 42 -49 49 -19 6 -37 14 -40 19
-4 5 -13 7 -20 5 -8 -3 -19 7 -27 25 -10 23 -15 28 -24 19 -16 -16 -28 -15
-28 2 0 9 12 16 32 18 17 2 33 8 35 13 4 13 -45 36 -52 24 -10 -16 -35 3 -35
27 0 15 -6 24 -15 24 -8 0 -15 -9 -15 -20 0 -11 -5 -20 -11 -20 -7 0 -8 11 -4
30 5 23 3 30 -9 30 -9 0 -16 5 -16 10 0 6 9 10 20 10 10 0 23 7 28 15 7 13 14
14 35 6 15 -6 27 -9 28 -8 1 1 2 21 3 44 1 23 5 45 9 49 12 12 35 -16 41 -51
9 -48 24 -44 38 10 9 32 17 45 30 45 23 0 23 16 1 24 -12 5 -14 9 -5 18 20 20
14 38 -12 38 -24 0 -36 16 -36 51 0 14 7 19 25 19 14 0 25 4 25 10 0 11 -65
24 -79 16 -15 -10 -23 12 -12 33 8 13 7 44 -1 99 -9 69 -8 88 6 131 13 42 15
62 6 114 -11 69 -58 182 -96 232 -25 33 -30 60 -16 83 6 8 9 2 9 -17 0 -16 10
-42 24 -59 13 -16 30 -38 37 -48 11 -16 12 -17 8 -1 -3 9 -1 17 4 17 6 0 10
-5 10 -10 0 -27 101 -92 128 -83 6 3 12 0 12 -6 0 -6 5 -11 10 -11 6 0 3 11
-6 24 -8 14 -17 33 -18 42 -3 20 -18 30 -59 39 -15 3 -26 9 -23 14 3 4 -6 7
-20 5 l-26 -2 21 19 c28 26 27 45 -4 53 -14 4 -25 10 -25 15 0 14 -78 51 -95
45 -9 -4 -15 0 -15 9 0 16 -26 30 -40 22 -5 -3 -23 15 -42 41 -56 78 -84 87
-298 95 -165 5 -191 4 -239 -13 l-55 -18 -57 40 c-80 56 -86 57 -94 21 -13
-59 -65 -85 -65 -33 -1 37 -39 121 -74 163 -28 33 -29 33 -42 14 -7 -11 -20
-29 -29 -40 -18 -22 -18 -26 1 85 4 28 0 44 -26 82 -31 46 -84 167 -77 174 2
2 27 8 57 14 29 6 59 15 66 21 14 12 79 7 186 -13 66 -12 129 -57 121 -86 -4
-16 8 -22 74 -40 43 -12 105 -24 138 -28 33 -3 70 -13 82 -20 26 -16 53 -18
53 -4 0 25 40 31 97 14 49 -14 66 -15 124 -5 68 13 146 7 184 -12 11 -5 35
-23 53 -38 18 -16 45 -32 60 -35 15 -4 36 -14 47 -24 11 -10 38 -21 60 -25 22
-3 50 -13 63 -21 23 -15 30 -44 10 -44 -23 0 33 -32 80 -46 25 -8 48 -18 51
-22 14 -18 120 -64 135 -59 15 6 16 51 14 489 l-3 483 -1581 3 c-869 1 -1584
-1 -1587 -5z m2548 -1152 c3 -5 1 -12 -5 -16 -5 -3 -10 1 -10 9 0 18 6 21 15
7z m95 -43 c0 -6 8 -17 18 -24 16 -12 16 -12 -3 -9 -11 2 -23 4 -27 4 -5 1 -8
13 -8 27 0 14 4 23 10 19 6 -3 10 -11 10 -17z m-1404 -143 c40 -40 45 -62 12
-44 -34 17 -68 51 -68 66 0 23 22 14 56 -22z m152 -108 c8 3 10 -1 6 -11 -9
-23 -19 -20 -56 15 l-33 31 35 -20 c19 -11 41 -17 48 -15z m-146 -119 c-7 -7
-12 -8 -12 -2 0 14 12 26 19 19 2 -3 -1 -11 -7 -17z m-92 -52 c0 -3 -4 -8 -10
-11 -5 -3 -10 -1 -10 4 0 6 5 11 10 11 6 0 10 -2 10 -4z m521 -383 c7 -7 28
-13 47 -13 37 0 92 -33 92 -56 0 -14 9 -17 59 -18 30 -1 36 -16 17 -41 -13
-18 -15 -17 -62 16 -67 49 -97 58 -182 56 -55 -1 -76 3 -89 16 -15 15 -15 18
-1 34 20 21 100 25 119 6z m260 -13 c14 0 -7 -37 -26 -44 -11 -4 -15 2 -15 25
0 24 4 30 16 25 9 -3 20 -6 25 -6z m-556 -65 c3 -25 2 -52 -3 -62 -9 -14 -12
-11 -26 21 -10 24 -13 44 -7 53 5 9 6 25 3 37 -5 18 -3 19 10 8 9 -7 19 -33
23 -57z m851 33 c7 -5 25 -10 42 -11 27 -2 31 -6 36 -42 4 -35 1 -44 -25 -70
l-31 -30 7 33 c5 26 3 32 -11 32 -14 0 -16 -7 -12 -45 3 -25 2 -45 -3 -45 -14
0 -10 -33 6 -54 8 -11 15 -36 15 -56 0 -24 6 -39 20 -48 28 -17 26 -34 -2 -23
-13 5 -22 14 -20 20 1 6 -8 15 -20 20 -13 5 -32 19 -44 32 -39 44 -61 57 -88
52 -30 -6 -32 -12 -11 -39 14 -18 14 -18 15 4 0 25 19 26 30 1 4 -8 12 -24 18
-36 7 -13 12 -34 12 -48 0 -14 5 -25 10 -25 6 0 10 -7 10 -16 0 -10 -6 -14
-15 -11 -8 4 -17 2 -20 -3 -7 -12 -26 -13 -23 -2 4 13 -40 87 -67 112 -35 33
-68 87 -60 100 3 5 18 10 32 10 22 0 24 3 19 24 -3 14 -1 28 4 31 20 12 -2 26
-38 23 -36 -3 -37 -2 -34 27 1 17 8 43 14 58 9 23 15 27 35 23 12 -4 23 -2 23
3 0 19 152 18 176 -1z m-956 -17 c0 -6 -4 -13 -10 -16 -5 -3 -10 1 -10 9 0 9
5 16 10 16 6 0 10 -4 10 -9z m-10 -50 c0 -12 -20 -25 -27 -18 -7 7 6 27 18 27
5 0 9 -4 9 -9z m367 -46 c12 -8 32 -14 45 -13 20 3 23 -1 20 -24 -1 -16 1 -28
7 -28 5 0 14 -14 20 -32 10 -29 9 -33 -21 -59 -43 -37 -50 -36 -42 6 5 31 4
35 -21 41 -19 5 -23 9 -14 15 11 6 10 12 -4 27 -10 11 -17 23 -16 28 1 5 1 16
0 24 -1 12 -4 11 -12 -4 -9 -15 -13 -16 -20 -5 -24 38 15 54 58 24z m136 9 c9
-10 -4 -34 -19 -34 -8 0 -14 9 -14 20 0 19 19 27 33 14z m73 -30 c-30 -27 -49
-27 -54 -2 -3 17 15 25 58 27 l25 0 -29 -25z m550 -2 c-9 -9 -37 8 -31 18 5 8
11 7 21 -1 8 -6 12 -14 10 -17z m-1016 -22 c13 -32 21 -35 50 -20 14 7 23 6
34 -5 19 -19 30 -19 22 0 -4 13 35 65 49 65 14 0 2 -65 -17 -90 -20 -28 -48
-40 -48 -22 0 10 -67 8 -77 -2 -3 -3 2 -15 12 -27 14 -14 16 -22 7 -27 -15
-10 -4 -52 13 -52 17 0 28 -34 20 -59 -4 -13 -12 -18 -21 -14 -11 4 -12 9 -5
16 17 17 13 35 -8 42 -11 3 -22 19 -26 35 -4 17 -12 30 -19 30 -7 0 -17 5 -24
12 -9 9 -8 14 3 22 13 10 13 14 0 36 -8 14 -17 31 -21 38 -7 14 23 65 35 58 5
-3 14 -19 21 -36z m210 -85 c-13 -35 -4 -45 16 -17 8 12 22 22 30 22 16 0 19
-16 4 -25 -15 -9 -2 -54 29 -100 47 -71 80 -94 82 -57 0 13 2 14 6 2 6 -20 23
-61 34 -82 14 -28 11 -33 -10 -14 -15 14 -31 16 -80 12 -34 -3 -63 -1 -66 4
-4 6 -19 10 -34 10 -15 0 -30 3 -34 6 -9 9 23 54 38 54 33 0 24 72 -11 93 -8
4 -14 16 -14 26 0 11 -7 22 -16 25 -15 6 -15 8 -2 24 8 9 18 26 22 36 3 10 9
17 12 14 2 -3 0 -18 -6 -33z m900 18 c41 -28 55 -63 25 -63 -9 0 -18 -7 -21
-15 -4 -8 -11 -15 -16 -15 -6 0 -16 -8 -23 -17 -11 -14 -15 -15 -28 -4 -9 7
-25 10 -36 6 -27 -8 -61 11 -61 35 0 10 -4 20 -8 22 -5 2 -12 15 -16 30 l-6
27 72 4 c40 1 78 4 83 5 6 1 22 -6 35 -15z m-600 -41 c48 -19 80 -51 80 -78 0
-15 8 -25 23 -29 36 -12 77 -56 77 -85 0 -23 -7 -28 -49 -42 -28 -9 -52 -13
-55 -10 -9 8 -92 6 -106 -3 -22 -13 -62 44 -55 78 2 16 0 37 -5 47 -11 21 -3
50 14 50 6 0 22 10 36 21 l25 21 -37 -5 c-40 -6 -54 9 -43 44 7 21 28 19 95
-9z m-556 -66 c47 -20 62 -76 20 -76 -8 0 -14 -4 -14 -10 0 -5 -5 -10 -11 -10
-6 0 -9 6 -6 13 3 7 -7 24 -21 38 -19 17 -24 19 -19 7 9 -25 -1 -22 -23 5 -17
20 -19 20 -25 5 -4 -10 -11 -18 -16 -18 -15 0 21 48 39 53 31 8 42 7 76 -7z
m-194 -1 c0 -3 -16 -11 -35 -19 -26 -11 -33 -19 -29 -33 4 -13 0 -10 -15 7
-26 32 -26 43 -1 35 11 -4 20 -2 20 4 0 6 14 11 30 11 17 0 30 -2 30 -5z m379
-50 c23 -35 24 -85 0 -85 -6 0 -8 9 -4 19 4 13 -1 27 -13 39 -22 22 -35 73
-18 66 6 -2 22 -20 35 -39z m736 -15 c3 -5 -1 -10 -9 -10 -8 0 -18 5 -21 10
-3 6 1 10 9 10 8 0 18 -4 21 -10z m-655 -10 c0 -5 -9 -10 -20 -10 -11 0 -20 5
-20 10 0 6 9 10 20 10 11 0 20 -4 20 -10z m-129 -30 c5 0 9 -4 9 -10 0 -5 -7
-10 -16 -10 -10 0 -14 -6 -10 -15 3 -8 1 -15 -4 -15 -6 0 -10 3 -10 8 0 4 -3
18 -7 31 -5 20 -3 23 11 18 10 -4 22 -7 27 -7z m-639 -12 c-19 -19 -14 -25 28
-32 42 -7 57 -24 46 -52 -5 -14 -9 -14 -23 -3 -13 11 -17 11 -20 2 -3 -7 -12
-13 -20 -13 -9 0 -29 -13 -45 -30 -15 -16 -29 -30 -31 -30 -11 0 9 87 22 97
14 11 14 14 1 22 -12 8 -12 13 4 30 11 12 26 21 35 21 12 0 12 -3 3 -12z m558
-25 c0 -13 -3 -13 -15 -3 -8 7 -15 16 -15 21 0 5 7 6 15 3 8 -4 15 -13 15 -21z
m1508 -11 c2 -7 -6 -12 -17 -12 -21 0 -27 11 -14 24 9 9 26 2 31 -12z m-626
-67 c47 -32 72 -33 63 -4 -5 15 -4 19 4 15 17 -11 13 -31 -8 -50 -35 -32 -131
1 -131 46 0 25 28 23 72 -7z m255 9 c26 -9 50 -18 52 -20 7 -7 -52 -64 -65
-64 -19 0 -29 21 -14 30 20 12 -5 49 -30 43 -19 -5 -27 7 -13 20 9 10 17 9 70
-9z m-367 -34 c0 -5 -4 -10 -10 -10 -5 0 -10 5 -10 10 0 6 5 10 10 10 6 0 10
-4 10 -10z m-102 -38 c16 16 25 4 17 -21 -7 -22 -39 -29 -50 -10 -4 6 -19 7
-37 4 -27 -6 -29 -5 -23 14 5 15 2 21 -9 21 -9 0 -16 4 -16 9 0 4 11 6 25 3
16 -3 25 0 25 9 0 7 12 1 28 -14 22 -21 31 -24 40 -15z m127 8 c3 -5 1 -10 -4
-10 -6 0 -11 5 -11 10 0 6 2 10 4 10 3 0 8 -4 11 -10z m-940 -56 l40 -36 -30
-24 c-37 -29 -75 -32 -75 -5 0 10 7 21 15 25 23 8 19 46 -5 46 -11 0 -20 7
-20 15 0 26 35 16 75 -21z m70 -1 c3 -9 0 -20 -7 -24 -15 -9 -14 -11 -22 23
-5 21 -3 26 8 22 8 -3 17 -13 21 -21z m843 -15 c14 -14 16 -42 2 -33 -14 9
-32 45 -22 45 4 0 13 -5 20 -12z m-41 -13 c-4 -8 -2 -17 3 -20 6 -4 10 -11 10
-17 0 -7 -6 -6 -15 2 -17 14 -20 50 -4 50 6 0 9 -7 6 -15z m-747 -10 c0 -8 -4
-15 -10 -15 -5 0 -7 7 -4 15 4 8 8 15 10 15 2 0 4 -7 4 -15z m-450 -20 c14
-16 10 -18 -14 -9 -9 3 -16 10 -16 15 0 14 16 11 30 -6z m1320 -131 c0 -8 -4
-12 -10 -9 -5 3 -10 13 -10 21 0 8 5 12 10 9 6 -3 10 -13 10 -21z m85 -24 c29
-1 29 -1 10 -16 -11 -8 -25 -12 -33 -9 -7 2 -15 -2 -18 -10 -7 -18 -34 -8 -34
14 0 24 21 44 34 31 6 -5 24 -10 41 -10z m-1492 -10 c23 -27 21 -36 -5 -44
-37 -9 -43 -7 -22 8 15 12 17 17 7 27 -7 7 -13 17 -13 21 0 14 15 9 33 -12z
m62 -30 c3 -5 1 -10 -4 -10 -6 0 -11 5 -11 10 0 6 2 10 4 10 3 0 8 -4 11 -10z
m1555 -12 c80 -18 93 -23 104 -40 14 -23 1 -34 -27 -21 -12 6 -34 16 -48 23
-15 7 -35 10 -45 7 -13 -4 -27 4 -44 26 -22 28 -23 30 -5 23 11 -4 40 -12 65
-18z m-2120 -34 c22 -15 40 -30 40 -35 0 -17 -22 -20 -43 -6 -36 23 -93 30
-124 14 -15 -8 -43 -18 -60 -22 -26 -5 -33 -3 -33 9 0 11 13 18 40 22 25 4 40
12 40 21 0 18 39 34 72 28 15 -2 46 -16 68 -31z m2030 27 c0 -6 -4 -13 -10
-16 -5 -3 -10 1 -10 9 0 9 5 16 10 16 6 0 10 -4 10 -9z m-750 -27 c0 -14 -3
-14 -15 -4 -8 7 -15 14 -15 16 0 2 7 4 15 4 8 0 15 -7 15 -16z m-40 2 c0 -17
-15 -36 -29 -36 -9 0 -22 -5 -29 -12 -9 -9 -9 -4 0 20 9 23 19 32 35 32 13 0
23 -2 23 -4z m-305 -35 c8 -13 -53 -54 -70 -47 -24 9 -17 26 11 26 14 0 23 4
20 9 -4 5 0 12 6 14 20 8 26 8 33 -2z m1205 -1 c0 -5 -4 -10 -10 -10 -5 0 -10
5 -10 10 0 6 5 10 10 10 6 0 10 -4 10 -10z m370 -60 c30 -27 49 -50 41 -50 -8
0 -22 -7 -32 -16 -10 -9 -24 -14 -31 -12 -8 3 -2 11 15 20 27 14 28 16 12 31
-19 20 -47 23 -43 4 2 -7 -7 -26 -20 -41 -22 -28 -23 -29 -37 -10 -8 10 -15
25 -15 32 0 11 5 13 43 16 21 2 27 20 12 43 -33 50 -12 44 55 -17z m115 -18
c2 -26 -11 -20 -18 8 -3 13 -1 20 6 17 6 -2 11 -13 12 -25z m60 -52 c-3 -5
-12 -10 -18 -10 -7 0 -6 4 3 10 19 12 23 12 15 0z m-85 -32 c0 -3 -9 -4 -20
-1 -23 6 -26 19 -7 26 11 4 27 -10 27 -25z m-96 -24 c23 -9 20 -26 -4 -19 -12
4 -20 2 -20 -5 0 -6 -4 -9 -10 -5 -10 6 -2 35 10 35 5 0 15 -3 24 -6z m-1207
-260 c-3 -3 -12 -4 -19 -1 -8 3 -5 6 6 6 11 1 17 -2 13 -5z m-930 -56 c-3 -8
-6 -5 -6 6 -1 11 2 17 5 13 3 -3 4 -12 1 -19z m1003 18 c0 -3 -4 -8 -10 -11
-5 -3 -10 -1 -10 4 0 6 5 11 10 11 6 0 10 -2 10 -4z m-300 -26 c0 -5 -2 -10
-4 -10 -3 0 -8 5 -11 10 -3 6 -1 10 4 10 6 0 11 -4 11 -10z m-779 -438 c6 -29
3 -35 -16 -44 -38 -17 -55 -4 -55 42 0 40 1 41 32 38 28 -3 33 -8 39 -36z
m165 3 c20 -49 18 -57 -11 -43 -18 8 -28 8 -39 -1 -22 -18 -26 0 -9 42 19 46
40 47 59 2z m174 26 c0 -5 -7 -11 -15 -15 -9 -3 -15 -18 -15 -36 0 -18 -4 -29
-10 -25 -5 3 -10 17 -10 30 0 13 -4 27 -10 30 -21 13 -9 25 25 25 19 0 35 -4
35 -9z m129 -13 l8 -23 7 23 c4 13 15 22 27 22 16 0 19 -7 19 -40 0 -29 -4
-40 -15 -40 -8 0 -15 5 -15 12 0 6 -6 3 -14 -8 -14 -18 -15 -18 -25 6 -6 16
-10 19 -10 8 -1 -9 -5 -20 -11 -23 -6 -4 -10 12 -10 39 0 35 4 46 15 46 9 0
19 -10 24 -22z m217 -13 c20 -49 18 -57 -11 -43 -18 8 -28 8 -38 0 -22 -19
-26 -4 -9 39 19 48 38 50 58 4z m150 20 c8 -20 24 -19 24 1 0 8 5 12 10 9 14
-8 13 -72 -1 -81 -7 -4 -20 4 -30 17 -15 19 -19 20 -19 7 0 -9 -4 -20 -10 -23
-6 -4 -10 12 -10 39 0 35 4 46 15 46 9 0 18 -7 21 -15z m321 -27 c2 -33 -2
-39 -22 -44 -35 -9 -45 2 -45 47 0 39 1 40 32 37 29 -3 32 -6 35 -40z m173 32
c0 -5 -10 -10 -22 -11 -22 0 -22 -1 2 -11 25 -11 25 -11 3 -15 -29 -6 -30 -23
-1 -23 16 0 19 -3 11 -11 -20 -20 -47 -5 -54 31 -4 19 -5 38 -3 42 7 12 64 10
64 -2z m185 -35 c0 -35 -3 -40 -26 -43 -15 -2 -32 5 -43 17 -18 19 -18 22 -2
46 13 19 24 25 44 23 24 -3 27 -7 27 -43z m139 5 c-1 -51 -24 -51 -24 0 0 29
4 40 13 37 6 -2 12 -19 11 -37z m149 18 l16 -23 0 23 c1 12 6 22 11 22 11 0
14 -73 4 -83 -10 -9 -34 4 -34 19 0 8 -4 14 -10 14 -5 0 -10 -7 -10 -15 0 -8
-4 -15 -10 -15 -5 0 -10 18 -10 40 0 46 18 53 43 18z m205 3 c3 -9 -2 -11 -19
-7 -21 6 -21 5 4 -9 15 -9 27 -20 27 -25 0 -15 -39 -32 -60 -25 -31 10 -24 28
8 21 26 -6 26 -6 8 9 -11 8 -23 15 -28 15 -13 0 -9 28 5 34 20 8 50 2 55 -13z
m-2058 -336 c7 -8 9 -22 5 -32 -5 -12 -9 -14 -12 -5 -3 6 -9 12 -15 12 -6 0
-8 -7 -4 -15 8 -23 -22 -18 -34 6 -21 38 31 68 60 34z m2114 -12 c3 -6 -3 -18
-12 -26 -15 -13 -20 -13 -36 -2 -10 8 -16 20 -14 27 7 16 56 17 62 1z m-1254
-87 c0 -18 -28 -41 -38 -31 -4 4 -1 10 6 12 6 3 12 14 12 24 0 11 5 17 10 14
6 -3 10 -12 10 -19z m68 -27 c-20 -13 -33 -5 -35 22 -1 14 0 17 3 7 8 -26 34
-22 35 5 2 21 2 21 6 -2 3 -13 -1 -27 -9 -32z m75 37 c9 -7 17 -22 17 -32 -1
-18 -1 -18 -16 1 -13 17 -16 18 -24 5 -8 -12 -10 -9 -10 13 0 30 7 33 33 13z
m76 -14 c-6 -2 -4 -11 3 -20 11 -13 11 -14 -2 -10 -8 2 -16 17 -18 32 -3 24
-2 26 11 15 8 -8 11 -16 6 -17z m131 -3 c0 -10 -4 -19 -10 -19 -5 0 -10 12
-10 26 0 14 4 23 10 19 6 -3 10 -15 10 -26z m70 23 c0 -5 -6 -17 -14 -27 -13
-19 -14 -18 -13 8 1 15 8 27 15 27 6 0 12 -4 12 -8z"/>
<path d="M4930 4670 c0 -5 5 -10 10 -10 6 0 10 5 10 10 0 6 -4 10 -10 10 -5 0
-10 -4 -10 -10z"/>
<path d="M5096 4662 c-2 -4 -1 -14 4 -21 10 -17 31 -5 23 14 -6 16 -19 20 -27
7z"/>
<path d="M4980 4650 c0 -5 5 -10 10 -10 6 0 10 5 10 10 0 6 -4 10 -10 10 -5 0
-10 -4 -10 -10z"/>
<path d="M5175 4430 c4 -6 11 -8 16 -5 14 9 11 15 -7 15 -8 0 -12 -5 -9 -10z"/>
<path d="M5210 4430 c0 -5 7 -10 15 -10 8 0 15 5 15 10 0 6 -7 10 -15 10 -8 0
-15 -4 -15 -10z"/>
<path d="M4661 4266 c-9 -10 -8 -15 4 -19 8 -4 12 -13 9 -22 -4 -10 0 -15 11
-15 12 0 15 5 11 16 -3 9 -6 24 -6 35 0 22 -13 25 -29 5z"/>
<path d="M4856 4263 c-11 -11 -6 -23 9 -23 8 0 15 4 15 9 0 13 -16 22 -24 14z"/>
<path d="M4735 4230 c-3 -5 -1 -10 4 -10 6 0 11 5 11 10 0 6 -2 10 -4 10 -3 0
-8 -4 -11 -10z"/>
<path d="M4560 2730 c0 -5 5 -10 10 -10 6 0 10 5 10 10 0 6 -4 10 -10 10 -5 0
-10 -4 -10 -10z"/>
<path d="M4914 2755 c-7 -19 3 -35 23 -35 13 0 13 3 3 15 -9 10 -9 15 -1 15 6
0 11 5 11 10 0 16 -30 12 -36 -5z"/>
<path d="M3350 2430 c0 -5 5 -10 10 -10 6 0 10 5 10 10 0 6 -4 10 -10 10 -5 0
-10 -4 -10 -10z"/>
<path d="M6207 6743 c-4 -3 -7 -404 -7 -891 l0 -885 73 6 c41 3 79 2 86 -3 24
-14 -20 -21 -91 -14 l-68 7 0 -1462 0 -1461 1590 0 1590 0 0 2168 0 2169 -29
-5 c-34 -5 -53 17 -21 25 17 4 20 11 16 29 -7 28 8 32 23 7 8 -13 10 30 8 147
l-2 165 -1581 3 c-869 1 -1584 -1 -1587 -5z m2227 -56 c25 -25 23 -42 -7 -74
-26 -28 -28 -33 -12 -33 10 0 27 8 37 17 19 17 19 16 12 -12 -3 -17 -11 -34
-15 -39 -5 -6 -9 -20 -9 -33 0 -18 6 -23 25 -23 14 0 25 -4 25 -10 0 -5 6 -10
14 -10 7 0 16 -9 19 -20 3 -14 14 -20 32 -20 21 0 26 -4 21 -16 -4 -12 0 -15
17 -12 12 2 22 8 22 15 0 20 12 25 33 12 11 -7 18 -18 15 -24 -2 -7 3 -15 11
-18 11 -5 14 -14 10 -36 -7 -35 10 -47 71 -52 61 -4 88 8 111 50 18 34 19 41
7 64 -8 16 -9 28 -4 32 6 3 15 -3 21 -14 11 -21 37 -19 52 3 17 25 7 -38 -12
-74 -26 -51 -47 -64 -145 -90 -108 -29 -577 -140 -592 -140 -10 0 -13 30 -13
115 0 127 -8 140 -48 80 -13 -19 -37 -47 -52 -64 l-29 -30 -264 1 -264 2 -58
68 c-32 38 -60 66 -63 63 -3 -3 -4 -33 -3 -66 1 -34 -1 -86 -5 -116 -6 -50 -9
-54 -28 -49 -11 3 -113 26 -226 51 -113 25 -213 48 -222 51 -25 8 -22 29 4 31
12 1 26 9 30 18 6 10 17 13 32 9 33 -8 48 15 36 57 -15 50 -12 67 10 74 34 11
23 33 -20 40 l-39 7 21 29 c12 16 30 29 40 29 10 0 18 5 18 11 0 5 10 3 22 -5
28 -20 58 -21 58 -2 0 8 11 17 25 20 15 4 30 17 35 31 9 24 40 36 40 15 0 -5
7 -7 15 -4 9 4 13 13 10 23 -3 11 6 23 28 36 39 24 97 29 97 7 0 -10 7 -12 26
-8 14 4 40 2 57 -3 18 -6 49 -13 69 -16 30 -5 39 -11 44 -31 6 -22 8 -23 23
-11 11 10 43 14 111 13 l95 -1 8 -50 c10 -58 20 -73 40 -57 8 7 18 8 22 4 5
-4 5 -2 2 5 -4 6 0 19 10 28 14 14 14 18 2 26 -12 8 -12 10 0 18 7 5 22 6 32
4 11 -3 29 3 40 13 16 14 24 16 37 7 26 -16 152 16 152 39 0 4 12 3 27 -3 23
-8 30 -6 47 13 12 13 34 28 50 33 47 16 145 17 160 2z m-1471 -103 c10 -10
-14 -64 -37 -80 -15 -11 -17 -18 -8 -21 17 -7 -4 -33 -27 -33 -14 0 -14 2 -1
11 12 8 12 10 1 7 -17 -5 -25 -19 -42 -75 -13 -47 -20 -51 -43 -28 -19 19 -40
19 -56 0 -16 -20 -5 -32 14 -16 10 8 16 9 21 1 3 -5 0 -10 -9 -10 -8 0 -18
-12 -23 -27 l-9 -27 -22 22 c-12 12 -22 17 -22 12 0 -19 -51 22 -67 54 -22 43
-34 146 -16 146 7 0 13 -8 13 -19 0 -15 8 -18 41 -18 30 0 39 3 35 14 -3 7 10
29 31 48 34 32 38 34 55 18 9 -8 15 -20 12 -25 -10 -16 39 2 62 23 11 11 28
19 37 19 15 0 16 -4 7 -20 -8 -14 -8 -20 0 -20 6 0 15 11 20 25 9 24 21 31 33
19z m-448 -66 c-6 -15 -65 -51 -65 -40 0 5 56 48 67 51 1 1 0 -5 -2 -11z
m2333 -21 c15 -18 2 -32 -30 -35 -34 -2 -46 25 -15 38 30 12 33 12 45 -3z
m-1952 -154 c13 -17 13 -17 14 0 0 23 20 22 20 -2 0 -17 -27 -50 -33 -40 -1 2
-13 16 -26 32 -22 24 -22 27 -6 27 10 0 24 -8 31 -17z m1407 -263 c249 -11
298 -17 276 -31 -8 -5 -26 -9 -40 -9 -14 0 -36 -9 -48 -19 -16 -14 -32 -18
-59 -14 -65 8 -411 18 -404 12 9 -8 374 -119 391 -119 8 0 9 -5 1 -19 -5 -11
-10 -29 -10 -41 0 -17 4 -20 21 -15 18 6 19 5 10 -13 -6 -12 -11 -35 -11 -53
0 -30 1 -31 18 -16 23 21 32 21 32 2 0 -7 8 -18 17 -24 10 -5 15 -13 11 -17
-4 -4 -14 -1 -23 6 -21 17 -65 -12 -65 -43 0 -12 -4 -29 -10 -37 -19 -31 -22
2 -6 81 9 45 14 84 12 87 -3 2 -56 22 -118 44 -239 83 -540 121 -781 99 -133
-11 -229 -31 -278 -57 -26 -13 -27 -18 -27 -79 1 -36 7 -70 13 -75 43 -35 232
-84 389 -100 50 -5 136 -14 191 -20 55 -6 168 -18 250 -26 139 -15 332 -48
343 -59 3 -3 0 -22 -6 -42 -13 -43 -11 -49 25 -56 35 -7 62 -45 41 -58 -9 -6
-10 -11 -2 -16 6 -5 13 -16 17 -25 7 -21 36 -24 38 -5 2 17 1 20 -6 40 -4 9
-3 17 3 17 20 0 23 -38 7 -85 -9 -26 -14 -53 -11 -61 7 -17 51 -18 112 -3 39
10 47 9 65 -7 17 -16 22 -16 29 -4 16 26 29 -2 41 -85 6 -44 13 -82 15 -84 1
-1 13 4 26 13 24 17 58 22 58 8 0 -7 -142 -82 -156 -82 -2 0 0 9 6 19 12 24
13 61 1 61 -15 0 -80 -72 -75 -84 7 -19 75 -16 118 5 38 18 62 17 50 -2 -3 -5
-1 -15 5 -22 6 -8 6 -18 1 -27 -7 -11 -10 -12 -10 -2 0 9 -7 11 -22 6 -13 -4
-30 -7 -39 -6 -14 0 -16 -7 -11 -46 2 -26 1 -43 -4 -39 -4 4 -14 -9 -20 -30
l-12 -38 -1 33 c-1 25 -5 32 -20 32 -11 0 -23 -4 -26 -10 -3 -5 0 -10 7 -10 7
0 1 -11 -15 -24 -22 -19 -24 -25 -12 -30 17 -6 21 -46 5 -46 -5 0 -10 4 -10
10 0 5 -6 7 -14 4 -18 -7 -27 -42 -12 -48 6 -2 2 -5 -9 -5 -17 -1 -17 -3 -5
-11 12 -8 12 -10 1 -10 -8 0 -11 -3 -8 -7 4 -3 18 4 32 17 35 32 32 9 -4 -29
-15 -16 -31 -46 -34 -64 -3 -19 -14 -54 -25 -78 -10 -24 -25 -60 -32 -79 -7
-19 -18 -41 -23 -48 -5 -7 -7 -15 -4 -19 4 -3 1 -15 -4 -26 -9 -16 -13 -17
-20 -6 -6 10 -9 11 -10 2 -3 -24 -4 -28 -22 -55 -14 -20 -16 -35 -11 -65 5
-21 7 -42 6 -46 -1 -5 7 -5 19 -2 l22 7 -21 -22 c-12 -13 -18 -28 -15 -33 11
-17 11 -71 1 -84 -5 -7 -7 -17 -4 -22 4 -5 2 -12 -4 -16 -5 -3 -10 0 -10 7 -3
80 -11 183 -18 223 -8 49 -9 49 -17 20 -10 -32 -10 -117 -1 -228 4 -56 3 -68
-8 -64 -23 9 -43 -48 -64 -188 -34 -214 -34 -222 -16 -257 15 -29 15 -33 1
-43 -13 -9 -15 -23 -11 -58 5 -40 4 -47 -11 -47 -14 0 -16 -6 -12 -27 4 -21
-1 -35 -21 -55 -23 -25 -24 -28 -6 -28 19 -1 19 -1 -1 -16 -16 -12 -17 -17 -6
-23 10 -7 11 -13 1 -30 -6 -12 -9 -30 -5 -40 3 -11 -3 -25 -16 -37 l-21 -19 6
45 c4 31 3 39 -3 25 -5 -11 -10 -15 -10 -8 -1 17 -91 -28 -93 -47 0 -8 -1 -21
-1 -27 1 -7 -11 -13 -26 -13 -15 0 -37 -7 -50 -16 -23 -17 -23 -16 -17 13 7
28 5 30 -18 26 -16 -3 -26 -1 -26 6 0 7 -20 11 -49 11 -38 0 -53 -5 -63 -19
-12 -17 -20 -18 -51 -12 -20 5 -39 6 -43 2 -4 -3 -4 6 0 22 7 30 -1 34 -30 12
-10 -8 -29 -15 -41 -15 -13 0 -23 -4 -23 -10 0 -17 -28 -11 -39 8 -10 16 -10
16 -11 0 0 -13 -9 -17 -41 -16 -30 0 -39 4 -35 14 8 22 -22 17 -36 -6 -16 -26
-24 -25 -32 3 -5 17 -8 19 -15 8 -10 -15 -15 -8 -25 31 -4 19 -11 26 -21 22
-8 -4 -15 -1 -15 5 0 6 -9 11 -21 11 -14 0 -19 5 -16 14 4 10 0 12 -14 9 -14
-4 -19 0 -19 15 0 12 -5 24 -10 27 -6 4 -24 37 -41 73 -29 63 -30 70 -19 120
14 62 7 75 -47 93 l-36 11 7 92 c4 50 9 109 11 131 2 22 0 58 -4 80 -6 30 -2
54 13 95 18 47 21 77 21 216 0 125 -3 165 -14 178 -10 12 -11 20 -4 24 20 14
44 74 41 105 -2 23 -9 33 -24 35 -22 3 -31 24 -59 132 -10 36 -27 85 -38 110
-19 42 -84 140 -93 140 -2 0 15 -33 37 -74 35 -65 80 -191 79 -221 0 -5 -8 -1
-16 10 -15 19 -15 18 -9 -17 6 -29 4 -38 -7 -38 -15 0 -49 35 -41 44 3 2 -7
17 -21 32 -17 19 -22 30 -14 35 18 11 34 1 51 -34 13 -26 16 -28 16 -11 1 29
-38 85 -76 109 -18 11 -32 26 -33 33 0 22 -61 142 -71 142 -6 0 -9 6 -7 13 2
6 -6 22 -17 34 -11 12 -29 33 -40 47 -11 14 -24 26 -28 26 -5 0 -20 14 -34 30
-18 22 -31 29 -44 25 -15 -5 -19 -1 -19 15 0 12 -4 18 -10 15 -5 -3 -10 -1
-10 5 0 8 9 10 25 6 39 -10 31 12 -22 63 -27 25 -37 38 -23 30 14 -9 35 -22
48 -30 12 -8 29 -29 38 -47 13 -28 17 -31 30 -18 10 10 12 24 8 42 -6 23 -4
26 10 21 21 -8 21 9 -1 22 -10 5 -16 11 -13 13 55 36 66 38 108 18 23 -11 50
-20 61 -20 11 0 23 -5 27 -11 4 -8 9 -8 17 0 6 6 20 11 32 11 23 0 59 69 49
95 -4 8 1 17 10 21 21 8 20 40 -1 54 -15 9 -14 11 10 7 21 -3 27 -1 26 12 -5
37 12 51 58 51 l45 0 -6 121 c-6 108 -15 153 -35 169 -4 3 -16 19 -28 35 -18
26 -19 37 -12 80 14 88 12 100 -29 140 -21 20 -60 49 -87 65 l-48 28 44 7
c125 21 937 31 1282 15z m337 -20 c-8 -5 -19 -10 -25 -10 -5 0 -3 5 5 10 8 5
20 10 25 10 6 0 3 -5 -5 -10z m-2234 -448 c-20 -39 -40 -73 -46 -77 -5 -3 -15
5 -21 19 -13 27 -10 33 56 108 52 60 56 39 11 -50z m694 -2 c15 -8 18 -17 13
-43 -8 -40 -28 -72 -38 -58 -3 6 -12 33 -19 61 -12 47 -12 50 6 50 11 0 28 -5
38 -10z m1420 -82 c0 -20 -4 -39 -9 -42 -10 -7 -18 22 -20 79 -2 38 -1 39 13
20 9 -11 16 -37 16 -57z m666 2 c8 0 14 -2 14 -3 0 -12 -33 -67 -47 -78 -8 -8
-27 -31 -40 -52 -29 -47 -44 -42 -15 5 11 18 30 65 43 105 17 52 25 66 27 48
2 -14 10 -25 18 -25z m-666 -84 c0 -8 -4 -18 -10 -21 -5 -3 -10 3 -10 14 0 12
5 21 10 21 6 0 10 -6 10 -14z m-1960 -354 c0 -13 -12 -22 -22 -16 -10 6 -1 24
13 24 5 0 9 -4 9 -8z m2495 -51 c3 -5 1 -12 -4 -15 -5 -3 -11 1 -15 9 -6 16 9
21 19 6z m-235 -16 c-10 -12 -10 -15 0 -15 8 0 11 -2 8 -5 -3 -3 -13 -2 -23 1
-17 7 -17 8 1 21 24 17 29 17 14 -2z m-2315 -13 c15 -11 15 -42 -1 -42 -8 0
-11 -6 -8 -15 8 -20 -13 -19 -34 1 -15 15 -15 17 1 29 9 7 17 17 17 24 0 13
10 14 25 3z m2555 -23 c0 -6 -4 -7 -10 -4 -5 3 -10 11 -10 16 0 6 5 7 10 4 6
-3 10 -11 10 -16z m-97 -86 c-7 -2 -21 -2 -30 0 -10 3 -4 5 12 5 17 0 24 -2
18 -5z m-1853 -498 c0 -6 9 -16 20 -23 11 -7 20 -17 20 -23 0 -5 -4 -7 -10 -4
-12 8 -13 -18 -1 -30 5 -6 6 -28 2 -50 -7 -39 -7 -40 -14 -11 -6 22 -12 27
-27 23 -11 -3 -20 -1 -20 4 0 5 6 9 13 10 9 0 9 2 -1 6 -6 2 -9 9 -6 14 3 6
11 5 20 -2 20 -17 17 2 -6 31 -11 14 -20 31 -20 39 0 8 -7 11 -20 8 -32 -8
-22 34 10 45 15 5 39 -18 40 -37z m1395 -75 c3 -5 1 -10 -4 -10 -6 0 -11 5
-11 10 0 6 2 10 4 10 3 0 8 -4 11 -10z m-1455 -50 c0 -14 -28 -1 -34 16 -4 12
-2 12 14 4 11 -6 20 -15 20 -20z m1445 21 c3 -6 -4 -9 -15 -8 -11 1 -20 5 -20
9 0 11 28 10 35 -1z m-1356 -148 c-1 -65 -2 -66 -11 -30 -6 20 -14 37 -19 37
-5 0 -9 7 -9 15 0 8 -4 15 -10 15 -5 0 -10 5 -10 11 0 6 7 9 15 5 8 -3 15 -1
15 4 0 6 7 10 15 10 12 0 15 -14 14 -67z m-601 -2 c3 -16 -1 -22 -10 -19 -7 3
-15 15 -16 27 -3 16 1 22 10 19 7 -3 15 -15 16 -27z m1962 -10 c0 -5 -9 -7
-20 -4 -11 3 -20 7 -20 9 0 2 9 4 20 4 11 0 20 -4 20 -9z m-55 -11 c-3 -5 -12
-10 -18 -10 -7 0 -6 4 3 10 19 12 23 12 15 0z m-2051 -205 c40 -91 66 -181 66
-224 0 -21 7 -60 15 -87 19 -61 19 -69 1 -54 -17 13 -40 114 -32 135 7 19 -72
265 -92 288 -13 15 -13 17 -1 12 8 -3 27 -34 43 -70z m2536 71 c0 -3 -4 -8
-10 -11 -5 -3 -10 -1 -10 4 0 6 5 11 10 11 6 0 10 -2 10 -4z m-516 -58 c-3 -4
-2 -8 3 -8 4 0 7 -20 5 -45 -6 -68 -19 -54 -21 23 -1 45 2 62 8 52 5 -8 7 -18
5 -22z m-1304 -68 c0 -5 -4 -10 -10 -10 -5 0 -10 5 -10 10 0 6 5 10 10 10 6 0
10 -4 10 -10z m1743 -55 c-6 -17 -25 -15 -31 3 -2 7 5 12 17 12 14 0 19 -5 14
-15z m-227 -42 c-11 -11 -19 6 -11 24 8 17 8 17 12 0 3 -10 2 -21 -1 -24z
m644 -87 c0 -3 -4 -8 -10 -11 -5 -3 -10 -1 -10 4 0 6 5 11 10 11 6 0 10 -2 10
-4z m-839 -16 c1 -5 2 -18 2 -27 1 -10 6 -21 12 -25 6 -5 5 -8 -3 -8 -7 0 -12
-6 -11 -12 1 -7 0 -22 -1 -33 -2 -14 -4 -11 -9 10 -4 17 -2 33 4 37 6 5 6 8 0
8 -12 0 -16 60 -4 60 5 0 10 -4 10 -10z m821 -132 c-18 -19 -22 -20 -22 -6 0
9 8 21 17 27 27 15 29 3 5 -21z m-782 -48 c0 -5 -5 -10 -11 -10 -5 0 -7 5 -4
10 3 6 8 10 11 10 2 0 4 -4 4 -10z m-1276 -73 c20 -20 20 -20 -5 -14 -13 4
-29 7 -34 7 -6 0 -15 8 -22 18 -10 17 -8 18 15 14 15 -3 36 -14 46 -25z m2021
4 c3 -5 1 -12 -5 -16 -5 -3 -10 1 -10 9 0 18 6 21 15 7z m-708 -120 c11 -31 8
-41 -14 -41 -8 0 -13 13 -13 35 0 43 12 45 27 6z m-1847 -93 c0 -10 -4 -18 -9
-18 -12 0 -21 26 -21 58 l1 27 14 -25 c8 -14 14 -33 15 -42z m1833 35 c-7 -2
-19 -2 -25 0 -7 3 -2 5 12 5 14 0 19 -2 13 -5z m631 -58 c-4 -8 -10 -15 -15
-15 -4 0 -6 7 -3 15 4 8 10 15 15 15 4 0 6 -7 3 -15z m-2372 -80 c36 -32 46
-48 50 -82 4 -24 2 -43 -3 -43 -5 0 -9 9 -9 20 0 34 -20 64 -75 110 -30 25
-54 51 -54 58 -1 15 15 4 91 -63z m1412 -99 c-14 -32 -28 -56 -30 -54 -5 5 26
91 38 106 21 25 18 4 -8 -52z m-742 39 c0 -5 -5 -11 -11 -13 -6 -2 -11 4 -11
13 0 9 5 15 11 13 6 -2 11 -8 11 -13z m54 -63 c-9 -8 -36 19 -36 38 0 32 15
32 28 0 7 -18 11 -35 8 -38z m-19 -54 c-3 -8 -6 -5 -6 6 -1 11 2 17 5 13 3 -3
4 -12 1 -19z m-777 -123 c0 -8 -7 -15 -15 -15 -8 0 -15 7 -15 15 0 8 7 15 15
15 8 0 15 -7 15 -15z m615 -46 c3 6 10 11 14 11 12 0 20 -49 10 -56 -5 -3 -9
-1 -9 4 0 5 -9 12 -20 15 -13 3 -20 0 -20 -9 0 -8 -4 -14 -10 -14 -11 0 -14
53 -3 64 4 4 13 0 19 -9 8 -10 14 -12 19 -6z m-335 4 c0 -5 3 -18 6 -30 5 -20
2 -23 -19 -23 -31 0 -38 9 -30 38 5 20 43 33 43 15z m120 -19 c6 -14 10 -26
10 -27 0 -1 -14 -2 -30 -3 -34 -1 -34 -3 -18 31 14 32 26 32 38 -1z m102 -4
c-2 -16 -8 -30 -12 -30 -4 0 -10 14 -12 30 -4 23 -1 30 12 30 13 0 16 -7 12
-30z m256 5 c7 -14 12 -27 12 -28 0 -2 -15 -3 -34 -3 l-34 0 14 28 c18 35 27
35 42 3z m100 13 c10 -10 15 -10 22 2 7 11 10 7 10 -17 0 -35 -8 -41 -29 -20
-11 10 -14 9 -18 -1 -8 -21 -21 -4 -15 23 5 28 12 31 30 13z m324 5 c-10 -4
-8 -9 7 -20 27 -18 18 -33 -17 -32 -22 0 -23 2 -9 8 17 6 17 8 3 20 -23 19
-20 31 7 30 12 0 16 -3 9 -6z m90 -13 c4 -28 21 -27 30 2 5 19 6 18 7 -10 1
-31 -1 -33 -26 -30 -22 2 -29 9 -31 31 -4 31 15 38 20 7z m148 0 c0 -11 -7
-20 -15 -20 -8 0 -15 -4 -15 -10 0 -5 -4 -10 -10 -10 -5 0 -10 14 -10 30 0 25
4 30 25 30 18 0 25 -5 25 -20z m81 13 c-11 -5 -11 -7 0 -14 12 -8 12 -10 0
-18 -11 -7 -10 -10 5 -14 13 -3 11 -5 -8 -6 -25 -1 -28 3 -28 29 0 25 4 30 23
29 12 0 16 -3 8 -6z m124 -25 c1 -29 -9 -36 -21 -17 -4 8 -9 7 -15 -2 -6 -10
-9 -3 -9 19 0 29 3 33 23 30 16 -2 22 -10 22 -30z m84 20 c11 -10 14 -10 18 0
9 24 23 11 22 -20 0 -23 -3 -28 -7 -16 -6 16 -10 16 -34 4 -27 -14 -27 -14
-25 15 2 32 7 35 26 17z m147 -16 c11 -28 10 -29 -17 -28 -31 1 -34 7 -19 37
15 26 24 24 36 -9z m95 12 c12 -14 14 -14 20 3 6 13 8 10 8 -14 1 -37 -6 -41
-25 -15 -8 10 -13 12 -14 5 0 -25 -15 -13 -15 12 0 29 7 31 26 9z m-911 -31
c0 -26 -25 -31 -34 -7 -10 25 -7 30 14 30 14 0 20 -7 20 -23z m110 -52 c0 -12
-114 -21 -187 -14 -34 3 -60 10 -57 14 7 12 244 12 244 0z m-584 -59 c1 -7 0
-8 -3 -2 -2 5 -9 8 -14 4 -5 -3 -9 0 -9 6 0 15 23 7 26 -8z m84 -3 c0 -5 -4
-9 -10 -9 -5 0 -10 7 -10 16 0 8 5 12 10 9 6 -3 10 -10 10 -16z m110 1 c0 -15
-39 -18 -44 -3 -3 8 -1 11 4 8 6 -3 10 -2 10 4 0 6 7 8 15 5 8 -4 15 -10 15
-14z m90 -1 c0 -11 -27 -12 -34 0 -3 4 -3 11 0 14 8 8 34 -3 34 -14z m146 10
c3 -6 1 -16 -5 -22 -9 -9 -10 -7 -5 8 7 18 6 18 -9 6 -9 -7 -17 -9 -17 -4 0
22 24 30 36 12z m84 2 c0 -6 -4 -13 -10 -16 -5 -3 -10 1 -10 9 0 9 5 16 10 16
6 0 10 -4 10 -9z m197 -13 c-3 -8 -6 -5 -6 6 -1 11 2 17 5 13 3 -3 4 -12 1
-19z m103 0 c0 -19 -2 -20 -10 -8 -13 19 -13 30 0 30 6 0 10 -10 10 -22z m80
7 c0 -8 -2 -15 -4 -15 -2 0 -6 7 -10 15 -3 8 -1 15 4 15 6 0 10 -7 10 -15z
m-249 -18 c-10 -9 -11 -8 -5 6 3 10 9 15 12 12 3 -3 0 -11 -7 -18z m474 13 c3
-5 1 -10 -4 -10 -6 0 -11 5 -11 10 0 6 2 10 4 10 3 0 8 -4 11 -10z m-1398
-246 c-3 -3 -12 -4 -19 -1 -8 3 -5 6 6 6 11 1 17 -2 13 -5z m-439 -15 c-2 -6
-8 -10 -13 -10 -5 0 -11 4 -13 10 -2 6 4 11 13 11 9 0 15 -5 13 -11z m122 -8
c0 -12 -29 -35 -36 -28 -11 10 5 37 21 37 8 0 15 -4 15 -9z m1110 -91 c-7 -13
-6 -20 3 -23 6 -3 -3 -6 -22 -6 l-34 -1 19 21 c15 17 16 23 5 27 -11 4 -11 6
0 13 20 12 41 -9 29 -31z m57 26 c-3 -7 -1 -18 5 -24 15 -15 1 -32 -25 -31
-21 0 -21 1 -2 8 18 7 18 8 1 18 -22 12 -15 43 10 43 10 0 14 -6 11 -14z
m-150 -26 c2 -27 -1 -30 -25 -29 -16 1 -20 3 -10 6 18 4 14 31 -6 45 -6 4 0 8
14 8 21 0 25 -5 27 -30z m223 0 c0 -16 -4 -30 -9 -30 -5 0 -11 14 -13 30 -3
20 0 30 9 30 8 0 13 -12 13 -30z m52 21 c-11 -7 -11 -9 2 -14 26 -10 19 -37
-9 -37 -20 0 -25 5 -25 23 0 28 7 37 29 37 13 0 13 -2 3 -9z"/>
<path d="M7282 6608 c-14 -14 -16 -28 -2 -28 5 0 14 9 20 20 12 22 1 27 -18 8z"/>
<path d="M7971 6581 c-4 -4 -10 -16 -13 -28 -5 -18 -2 -23 14 -23 26 0 55 17
67 38 8 16 5 18 -25 18 -19 0 -38 -2 -43 -5z"/>
<path d="M8185 6580 c-3 -5 -1 -10 4 -10 6 0 11 5 11 10 0 6 -2 10 -4 10 -3 0
-8 -4 -11 -10z"/>
<path d="M7370 6505 c-10 -12 -10 -15 4 -15 9 0 16 7 16 15 0 8 -2 15 -4 15
-2 0 -9 -7 -16 -15z"/>
<path d="M7518 6502 c-10 -2 -18 -8 -18 -13 0 -13 27 -11 35 2 9 13 4 16 -17
11z"/>
<path d="M7245 6479 c-11 -17 1 -21 15 -4 8 9 8 15 2 15 -6 0 -14 -5 -17 -11z"/>
<path d="M8414 6459 c-3 -6 -2 -15 4 -21 13 -13 32 -2 32 18 0 16 -26 19 -36
3z"/>
<path d="M7335 6440 c-11 -17 5 -32 21 -19 8 6 14 15 14 20 0 12 -27 11 -35
-1z"/>
<path d="M7045 6390 c-3 -5 -1 -10 4 -10 6 0 11 5 11 10 0 6 -2 10 -4 10 -3 0
-8 -4 -11 -10z"/>
<path d="M7695 5441 c-6 -11 9 -23 19 -14 9 9 7 23 -3 23 -6 0 -12 -4 -16 -9z"/>
<path d="M6940 5020 c0 -13 18 -22 24 -11 3 5 -1 11 -9 15 -8 3 -15 1 -15 -4z"/>
<path d="M7005 4960 c3 -5 8 -10 11 -10 2 0 4 5 4 10 0 6 -5 10 -11 10 -5 0
-7 -4 -4 -10z"/>
<path d="M8609 4934 c-7 -9 -8 -14 -1 -14 6 0 13 6 16 13 5 9 7 9 12 -1 6 -12
24 -7 24 6 0 14 -39 11 -51 -4z"/>
<path d="M7055 4914 c64 -54 212 -145 300 -184 163 -71 233 -84 445 -85 204 0
277 11 356 54 26 14 55 38 63 53 14 25 14 29 -5 55 -28 39 -97 71 -194 89
l-83 16 -44 -31 c-24 -17 -49 -28 -56 -24 -22 13 -60 12 -75 -3 -8 -8 -21 -13
-29 -10 -8 3 -24 6 -35 6 -15 0 -18 4 -14 17 6 15 4 15 -14 -2 -11 -10 -20
-14 -20 -8 0 9 -119 28 -253 39 -50 4 -76 1 -99 -11 -17 -8 -34 -12 -37 -8
-11 15 -85 36 -134 38 -27 2 -54 8 -60 14 -6 6 -18 11 -26 11 -11 0 -6 -9 14
-26z"/>
<path d="M8515 4890 c-27 -30 -11 -35 20 -6 19 17 23 26 13 26 -8 0 -23 -9
-33 -20z"/>
<path d="M8585 4873 c-16 -8 -38 -22 -47 -31 -10 -8 -18 -11 -18 -7 0 5 -6 0
-14 -10 -8 -11 -11 -25 -8 -33 4 -10 0 -13 -14 -8 -13 4 -23 -1 -32 -14 -7
-12 -8 -20 -2 -20 5 0 10 5 10 10 0 6 5 10 10 10 7 0 7 -6 0 -19 -5 -11 -7
-27 -4 -35 3 -9 1 -16 -5 -16 -6 0 -11 -7 -11 -15 0 -8 5 -15 11 -15 5 0 7 5
4 10 -3 6 -1 10 5 10 7 0 9 -7 6 -16 -3 -9 -6 -17 -6 -20 0 -2 -8 -1 -17 2
-15 5 -16 4 -3 -5 12 -9 21 -4 43 21 15 18 27 38 27 44 0 7 6 19 13 26 7 7 20
27 29 44 15 30 14 31 -5 26 -32 -8 -12 14 39 44 24 14 44 28 44 30 0 9 -26 3
-55 -13z m-60 -63 c-3 -5 -11 -10 -16 -10 -6 0 -7 5 -4 10 3 6 11 10 16 10 6
0 7 -4 4 -10z"/>
<path d="M8480 4856 c0 -9 5 -16 10 -16 6 0 10 4 10 9 0 6 -4 13 -10 16 -5 3
-10 -1 -10 -9z"/>
<path d="M7181 4664 c2 -5 11 -27 19 -48 13 -33 44 -61 195 -174 129 -98 179
-141 178 -154 -3 -19 12 -25 22 -8 3 5 48 -20 100 -56 l94 -65 78 53 c43 29
128 90 189 135 62 46 116 83 122 83 5 0 12 6 15 13 3 7 34 33 70 58 49 33 69
54 81 83 9 22 14 41 13 42 -2 2 -20 -10 -40 -27 -26 -21 -43 -28 -57 -24 -16
5 -20 2 -20 -17 -1 -17 -27 -43 -112 -108 -138 -105 -326 -240 -334 -240 -22
0 -425 296 -541 398 -42 36 -74 62 -72 56z"/>
<path d="M8558 4643 c7 -3 16 -2 19 1 4 3 -2 6 -13 5 -11 0 -14 -3 -6 -6z"/>
<path d="M8443 4603 c9 -2 23 -2 30 0 6 3 -1 5 -18 5 -16 0 -22 -2 -12 -5z"/>
<path d="M8380 4578 c0 -9 5 -20 10 -23 13 -8 13 5 0 25 -8 13 -10 13 -10 -2z"/>
<path d="M8082 4569 c-47 -18 -143 -20 -301 -8 -142 11 -167 11 -190 -2 -17
-9 -26 -23 -26 -38 0 -20 18 -34 105 -83 74 -41 112 -57 130 -54 14 2 70 30
125 62 55 31 119 68 142 81 24 14 45 28 48 33 8 14 -8 18 -33 9z"/>
<path d="M8440 4466 c0 -8 6 -16 13 -19 8 -3 13 3 13 14 0 11 -6 19 -13 19 -7
0 -13 -6 -13 -14z"/>
<path d="M7781 4336 c-8 -9 -11 -19 -7 -23 9 -9 29 13 24 27 -2 8 -8 7 -17 -4z"/>
<path d="M8060 4230 c0 -5 5 -10 10 -10 6 0 10 5 10 10 0 6 -4 10 -10 10 -5 0
-10 -4 -10 -10z"/>
<path d="M7305 4220 c-3 -5 -1 -10 4 -10 6 0 11 5 11 10 0 6 -2 10 -4 10 -3 0
-8 -4 -11 -10z"/>
<path d="M7425 4170 c-3 -5 1 -10 9 -10 9 0 16 5 16 10 0 6 -4 10 -9 10 -6 0
-13 -4 -16 -10z"/>
<path d="M8245 3950 c-3 -5 -2 -10 4 -10 5 0 13 5 16 10 3 6 2 10 -4 10 -5 0
-13 -4 -16 -10z"/>
<path d="M8231 3697 c-6 -8 -8 -17 -4 -20 7 -8 33 11 33 24 0 13 -16 11 -29
-4z"/>
<path d="M8107 3375 c-4 -8 -2 -17 3 -20 13 -8 40 6 40 21 0 19 -36 18 -43 -1z"/>
<path d="M7849 3304 c-12 -14 -11 -16 5 -13 11 2 21 10 24 17 5 17 -13 15 -29
-4z"/>
<path d="M6935 2730 c-3 -5 1 -10 10 -10 9 0 13 5 10 10 -3 6 -8 10 -10 10 -2
0 -7 -4 -10 -10z"/>
<path d="M8065 2750 c3 -5 8 -10 11 -10 2 0 4 5 4 10 0 6 -5 10 -11 10 -5 0
-7 -4 -4 -10z"/>
<path d="M8270 2750 c0 -5 7 -10 15 -10 8 0 15 5 15 10 0 6 -7 10 -15 10 -8 0
-15 -4 -15 -10z"/>
<path d="M9577 6743 c-13 -12 -7 -1482 6 -1490 6 -3 13 -1 15 5 2 7 8 9 13 6
15 -9 37 14 44 44 3 15 15 41 26 57 14 21 19 24 16 10 -3 -11 -8 -37 -12 -59
-9 -52 12 -44 36 14 18 44 20 43 24 -13 2 -30 15 -51 15 -24 0 10 7 17 15 17
8 0 15 5 15 10 0 6 7 10 15 10 8 0 15 -4 15 -9 0 -30 88 -4 121 35 6 8 18 14
25 14 8 0 23 9 35 21 15 15 24 18 33 10 7 -6 25 -12 40 -13 14 -1 26 -6 26
-11 0 -5 7 -1 16 7 21 22 46 21 42 -1 -2 -10 9 -30 24 -45 16 -15 28 -34 28
-43 0 -23 -8 -18 -25 15 -9 17 -20 28 -24 25 -13 -7 -1 -46 15 -52 22 -8 16
-29 -16 -54 -16 -13 -30 -31 -30 -39 0 -13 -1 -13 -10 0 -9 13 -11 13 -20 0
-6 -9 -6 -18 0 -24 6 -6 10 -18 10 -28 0 -10 7 -18 16 -18 8 0 12 -4 9 -10 -3
-5 1 -20 8 -32 8 -13 17 -44 20 -70 3 -38 1 -48 -12 -53 -9 -2 -48 -36 -88
-74 -56 -54 -79 -86 -108 -147 -43 -93 -62 -160 -68 -232 -4 -58 4 -58 23 0
17 54 30 56 31 6 0 -38 2 -41 11 -20 6 12 17 22 23 22 13 0 29 34 41 85 15 62
52 116 123 177 19 16 20 16 23 -10 2 -17 -7 -43 -24 -68 -33 -50 -34 -54 -8
-54 11 0 20 -3 20 -7 0 -13 -39 -112 -60 -154 -24 -46 -25 -53 -4 -45 13 5 15
1 11 -21 -31 -152 -40 -227 -29 -231 7 -2 12 -13 12 -25 0 -12 10 -38 21 -57
l22 -35 9 24 c6 17 5 27 -4 33 -10 6 -8 8 5 8 9 0 17 5 17 10 0 15 30 12 31
-2 1 -7 0 -22 -1 -33 -2 -16 0 -17 13 -6 9 7 17 22 19 33 4 31 26 34 34 4 3
-13 12 -27 19 -30 7 -2 11 -13 9 -24 -3 -10 2 -24 10 -31 9 -8 16 -21 16 -30
0 -13 2 -14 9 -1 6 8 7 18 5 22 -3 5 5 12 17 16 16 6 19 11 10 17 -11 6 -10 9
0 16 10 6 11 9 2 9 -7 0 -13 5 -13 10 0 6 9 10 19 10 11 0 21 6 23 12 3 9 9 8
21 -4 21 -21 22 -44 2 -52 -22 -8 -19 -46 4 -46 11 0 22 -6 24 -12 4 -10 6
-10 6 0 1 6 6 12 11 12 6 0 10 -17 10 -37 0 -40 16 -35 22 7 1 14 9 26 16 26
6 1 17 2 22 3 6 0 16 12 22 26 13 30 16 30 47 6 20 -15 22 -21 12 -39 -10 -18
-9 -22 4 -22 8 0 15 5 15 10 0 13 27 13 35 -1 4 -5 -1 -19 -11 -30 -17 -18
-16 -19 10 -19 18 0 25 -4 20 -12 -5 -8 -2 -9 10 -5 10 4 20 7 22 7 3 0 9 11
14 25 5 14 17 25 28 25 14 0 26 16 43 60 13 33 27 60 31 60 16 0 17 -19 2 -35
-9 -9 -14 -19 -11 -22 3 -3 13 2 22 11 9 9 25 17 36 17 31 2 33 3 59 26 14 12
33 28 43 35 15 11 16 18 6 47 -10 29 -10 36 4 46 22 16 22 26 0 19 -17 -5 -17
-5 0 9 25 21 21 30 -12 24 -25 -5 -30 -3 -35 19 -9 36 9 55 40 44 15 -6 24 -6
24 0 0 18 48 -12 54 -33 12 -48 17 -4 7 68 -15 106 -14 152 6 203 14 38 15 51
3 113 -11 55 -11 75 -2 90 7 10 12 32 12 48 0 34 23 61 51 61 13 0 19 -7 19
-24 0 -14 -4 -28 -10 -31 -5 -3 -10 -15 -10 -26 0 -12 -7 -19 -20 -19 -24 0
-25 -8 -4 -31 12 -14 13 -21 3 -37 -15 -23 -5 -54 14 -46 19 7 29 -33 14 -57
-7 -11 -17 -19 -24 -19 -7 0 -13 -12 -13 -26 0 -23 3 -25 23 -19 12 4 40 9 61
11 22 2 45 5 53 8 10 4 12 -9 9 -65 -3 -39 -7 -74 -10 -76 -3 -3 2 -19 10 -35
12 -24 18 -27 30 -17 8 6 14 18 14 25 0 17 16 18 26 3 3 -6 -3 -24 -15 -40
-11 -15 -21 -35 -21 -43 0 -19 -17 -30 -25 -16 -3 5 -17 10 -31 10 -22 0 -24
4 -25 53 -1 28 -3 59 -4 67 -1 8 -3 21 -4 28 0 6 -5 12 -10 12 -4 0 -6 -32 -3
-70 4 -65 3 -73 -18 -92 l-23 -22 22 -10 c23 -10 37 -46 27 -71 -3 -9 -18 -15
-41 -15 -19 0 -35 -5 -35 -10 0 -6 16 -8 41 -4 l41 7 -3 -54 c-4 -64 14 -70
19 -7 4 55 16 67 42 43 13 -12 18 -25 14 -41 -6 -23 -6 -23 25 -8 19 10 31 23
31 36 0 16 5 19 24 14 29 -7 43 9 26 29 -16 20 -5 45 19 45 25 0 37 -18 17
-26 -20 -7 -21 -31 -3 -49 12 -11 16 -9 30 13 8 15 36 47 61 71 45 44 66 50
48 14 -5 -10 -15 -30 -22 -45 -7 -15 -16 -26 -19 -23 -4 2 -17 -5 -30 -15 -32
-23 -22 -46 23 -54 20 -4 36 -12 36 -18 0 -6 -9 -8 -20 -5 -11 3 -20 1 -20 -4
0 -20 46 -7 68 19 22 26 23 26 16 3 -4 -17 -2 -22 7 -19 8 3 17 24 21 49 12
84 17 112 22 117 18 18 70 -183 59 -230 -3 -15 -2 -19 4 -11 5 7 20 14 33 16
20 3 26 11 28 35 2 24 8 32 23 32 12 0 19 -7 19 -20 0 -12 -7 -20 -17 -20 -13
0 -14 -3 -5 -12 9 -9 16 -7 31 6 16 14 23 15 41 6 13 -7 19 -17 16 -28 -3 -9
-2 -21 2 -27 18 -24 75 -56 107 -59 19 -1 42 -10 52 -18 10 -9 32 -18 48 -20
26 -3 31 1 33 22 5 35 20 48 28 24 4 -10 12 -22 18 -26 8 -6 7 -11 -3 -17 -15
-10 -7 -31 14 -31 7 0 15 7 19 15 3 10 19 15 45 15 l41 0 -32 45 c-26 37 -29
47 -18 60 14 17 11 18 -42 15 -29 -1 -38 2 -38 14 0 9 7 16 15 16 8 0 15 -5
15 -11 0 -5 5 -7 11 -4 5 4 21 8 34 9 19 3 24 -3 29 -28 8 -40 29 -86 38 -86
5 0 8 -9 8 -19 0 -11 5 -23 11 -26 6 -4 8 -14 5 -22 -8 -19 21 -42 45 -36 16
4 17 12 12 52 -3 25 -14 71 -24 101 -11 30 -19 64 -19 76 0 27 -16 40 -60 49
-31 6 -38 14 -67 73 -35 73 -58 153 -50 174 3 7 6 3 6 -9 1 -15 7 -23 19 -24
9 0 36 -2 60 -4 47 -4 50 -1 25 23 -24 24 -65 43 -80 38 -10 -4 -10 1 2 24 18
34 35 47 35 26 0 -22 87 -106 109 -106 26 0 32 -10 20 -32 -6 -11 -8 -22 -5
-25 9 -9 36 18 29 30 -3 6 -1 7 5 3 7 -4 12 -18 12 -31 0 -16 5 -22 18 -21 12
2 19 16 25 52 9 57 5 92 -29 269 -31 167 -64 236 -155 326 -38 38 -69 71 -69
73 0 2 9 2 20 -1 11 -3 20 -9 20 -15 0 -15 128 -7 134 8 10 27 66 5 66 -25 0
-6 5 -11 10 -11 15 0 11 -42 -5 -64 -19 -26 -19 -41 2 -61 11 -12 16 -32 15
-67 -1 -40 2 -49 14 -44 8 3 17 -1 20 -9 4 -8 10 -15 15 -15 5 0 18 -9 29 -20
12 -12 25 -18 31 -14 6 3 31 3 56 -1 41 -6 43 -8 26 -20 -15 -12 -16 -14 -2
-15 10 0 19 -12 22 -30 7 -34 54 -63 95 -58 l27 3 0 1095 0 1095 -1581 3
c-869 1 -1584 -1 -1587 -5z m1855 -380 c-3 -14 -12 -23 -23 -23 -23 0 -23 -1
-2 52 16 40 18 41 23 18 3 -14 4 -35 2 -47z m-358 -39 c4 -10 1 -14 -6 -11 -7
2 -30 -4 -52 -15 -38 -19 -38 -19 -58 1 -20 22 -18 24 27 34 46 10 83 7 89 -9z
m-240 -186 c-4 -27 -10 -48 -15 -48 -5 0 -9 -22 -9 -50 0 -54 10 -62 43 -32
20 16 20 16 13 -3 -20 -58 -42 -105 -48 -105 -15 0 -40 65 -40 100 0 21 8 74
16 120 9 45 16 96 16 114 l1 31 14 -40 c10 -26 13 -57 9 -87z m66 -45 c0 -5
-4 -15 -10 -23 -11 -18 -25 -7 -17 15 6 15 27 21 27 8z m-123 -253 c0 -16 -4
-30 -9 -30 -9 0 -11 22 -2 44 9 23 11 20 11 -14z m-95 -56 c-15 -21 -18 -21
-29 -7 -16 21 0 43 27 36 18 -5 19 -6 2 -29z m155 -59 c20 -21 9 -53 -12 -35
-14 12 -21 50 -9 50 3 0 12 -7 21 -15z m148 -15 c3 -5 1 -10 -4 -10 -6 0 -11
5 -11 10 0 6 2 10 4 10 3 0 8 -4 11 -10z m-185 -54 c0 -26 -6 -18 -14 19 -5
22 -4 26 4 15 5 -8 10 -24 10 -34z m719 -39 c1 -5 -3 -6 -8 -3 -5 3 -11 -4
-14 -16 -4 -12 -9 -19 -13 -16 -3 4 0 24 7 45 10 32 13 35 20 18 4 -11 8 -24
8 -28z m-703 -27 c1 -25 -2 -37 -9 -33 -6 3 -7 1 -3 -5 7 -12 -27 -35 -38 -25
-3 3 -6 2 -6 -4 0 -21 14 -22 47 -2 37 23 41 20 16 -17 -14 -23 -15 -34 -5
-87 21 -109 22 -127 6 -127 -8 0 -23 -13 -32 -30 -18 -32 -27 -36 -37 -20 -8
13 -53 2 -82 -19 -27 -19 -29 -28 -5 -34 10 -3 5 -5 -11 -6 -16 0 -42 -11 -59
-22 -39 -28 -98 -33 -98 -9 0 10 -6 20 -13 23 -8 3 -12 22 -11 53 1 34 -3 52
-15 61 -14 11 -14 13 7 19 24 7 25 8 16 42 -4 14 -14 22 -28 22 -11 0 -31 11
-43 24 -12 12 -47 33 -77 47 -59 25 -69 35 -36 35 11 0 20 -4 20 -8 0 -4 16
-7 35 -5 37 2 52 21 34 43 -6 7 -8 18 -4 24 9 15 35 12 35 -5 0 -17 16 -20 25
-5 7 11 45 -5 57 -24 5 -7 8 -4 8 7 0 12 8 17 29 17 25 0 32 6 42 33 l12 34
68 -3 c85 -4 91 -6 106 -24 11 -13 12 -13 13 3 0 9 5 17 10 17 6 0 10 11 10
25 0 42 15 28 16 -15z m-1016 18 c0 -5 -7 -8 -15 -8 -8 0 -19 -8 -24 -18 -8
-15 -18 -17 -53 -13 -27 4 -53 1 -71 -7 -43 -21 -54 -10 -23 24 26 27 32 29
107 29 43 0 79 -3 79 -7z m530 -33 c0 -14 -4 -25 -9 -25 -5 0 -8 8 -6 18 2 9
4 20 4 25 2 19 11 4 11 -18z m561 -32 c9 -7 51 -25 93 -38 43 -14 90 -35 105
-47 l28 -23 -45 -16 c-60 -20 -63 -34 -8 -34 55 0 64 -8 37 -36 -24 -26 -19
-39 14 -39 29 0 35 -9 24 -37 -12 -32 -59 -54 -84 -40 -19 10 -126 114 -152
148 -11 13 -52 157 -53 182 0 9 17 1 41 -20z m-787 -52 c3 -5 -1 -14 -9 -21
-13 -10 -15 -9 -15 9 0 21 14 28 24 12z m-466 -58 c-2 -21 -7 -38 -13 -38 -5
0 -11 17 -13 38 -3 29 0 37 13 37 13 0 16 -8 13 -37z m632 12 c10 -12 10 -15
-4 -15 -9 0 -16 7 -16 15 0 8 2 15 4 15 2 0 9 -7 16 -15z m1336 -26 c10 -11
25 -42 35 -69 17 -48 17 -49 -4 -63 -26 -18 -14 -37 25 -41 27 -3 65 -33 55
-43 -8 -8 11 -43 23 -43 6 0 10 15 10 33 1 39 52 133 71 130 85 -13 99 -24 99
-76 l0 -40 -51 7 c-34 5 -49 4 -44 -4 3 -5 -2 -10 -14 -10 -32 0 -32 -15 -1
-38 36 -27 42 -27 65 -2 10 11 22 17 26 14 12 -7 11 -81 -1 -89 -5 -3 -10 -17
-10 -31 0 -17 -5 -24 -19 -24 -11 0 -23 -4 -26 -10 -3 -5 3 -10 14 -10 22 0
30 -20 9 -20 -9 -1 -8 -5 3 -13 18 -13 14 -37 -6 -37 -7 0 -18 7 -25 15 -7 8
-21 15 -32 15 -10 0 -17 4 -14 9 3 4 -6 19 -19 31 -15 14 -25 35 -25 52 0 15
-9 37 -20 48 -11 11 -20 29 -20 40 0 30 -40 70 -70 70 -14 0 -31 5 -38 12 -8
8 -15 8 -25 0 -11 -9 -17 -8 -30 6 -14 16 -18 36 -32 157 l-5 51 39 -4 c23 -2
47 -12 57 -23z m120 -37 c-13 -21 -26 -50 -29 -63 l-4 -24 -2 25 c0 14 10 42
24 63 34 49 42 48 11 -1z m-26 -113 c0 -6 -4 -7 -10 -4 -5 3 -10 11 -10 16 0
6 5 7 10 4 6 -3 10 -11 10 -16z m-1404 -106 c-10 -10 -19 5 -10 18 6 11 8 11
12 0 2 -7 1 -15 -2 -18z m-104 2 c16 -22 8 -45 -16 -45 -17 0 -25 7 -28 25 -3
13 -3 26 -1 29 7 7 38 1 45 -9z m28 -110 c0 -8 -7 -15 -15 -15 -8 0 -15 7 -15
15 0 8 7 15 15 15 8 0 15 -7 15 -15z m1549 -111 c-14 -18 -24 -11 -15 11 3 9
11 13 16 10 8 -5 7 -11 -1 -21z m-12 -40 c-3 -3 -12 -4 -19 -1 -8 3 -5 6 6 6
11 1 17 -2 13 -5z m-165 -50 c7 -6 -39 -54 -51 -54 -5 0 -14 6 -20 14 -9 11
-8 18 4 30 16 16 56 22 67 10z m-42 -111 c0 -19 -18 -16 -30 6 -17 33 -12 46
10 26 11 -10 20 -24 20 -32z m-400 25 c0 -30 -13 -58 -26 -58 -11 0 -13 7 -8
28 4 15 9 30 11 35 7 12 23 8 23 -5z m337 -10 c-3 -8 -6 -5 -6 6 -1 11 2 17 5
13 3 -3 4 -12 1 -19z m36 -114 c0 -27 -4 -58 -8 -68 -6 -15 -5 -17 5 -11 10 6
12 4 7 -9 -4 -10 -7 -27 -7 -39 0 -20 0 -20 -15 -1 -8 10 -15 33 -15 50 0 16
-4 34 -9 40 -11 11 -22 114 -14 127 3 5 17 -2 31 -16 19 -20 25 -35 25 -73z
m247 -24 c0 -27 -4 -50 -9 -50 -11 0 -25 75 -16 90 14 23 25 7 25 -40z m53
-72 c-19 -33 -41 29 -22 64 13 22 13 22 20 -17 4 -22 5 -43 2 -47z m-870 43
c-24 -20 -30 -41 -13 -41 6 0 10 -7 10 -15 0 -8 -5 -15 -12 -15 -6 0 -20 -7
-30 -17 -17 -15 -18 -14 -18 18 0 26 7 40 32 61 18 15 38 27 43 27 6 0 0 -8
-12 -18z m-538 -107 c0 -10 -8 -20 -18 -22 -16 -3 -17 4 -8 46 3 13 26 -8 26
-24z m538 -76 l-10 -33 -8 28 c-4 15 -4 39 0 55 7 27 7 27 18 5 7 -16 7 -33 0
-55z m-508 12 c12 -14 20 -60 16 -106 -1 -27 -46 -53 -63 -36 -9 9 -8 12 5 12
29 0 48 61 31 104 -8 21 -77 21 -98 1 -17 -17 -36 -20 -36 -5 0 13 80 48 108
47 13 -1 29 -8 37 -17z m442 -32 c-3 -7 -5 -2 -5 12 0 14 2 19 5 13 2 -7 2
-19 0 -25z m-643 -90 c-1 -13 -3 -26 -3 -30 -2 -14 -28 -8 -42 8 -11 14 -10
18 6 30 27 20 42 17 39 -8z m996 12 c16 0 17 -3 5 -37 -9 -26 -20 -39 -34 -41
-19 -3 -21 2 -21 43 0 39 3 46 16 41 9 -3 24 -6 34 -6z m-886 -62 c8 -41 1
-46 -23 -17 -26 30 -26 49 -2 49 13 0 20 -10 25 -32z m176 12 c0 -5 -4 -10
-10 -10 -5 0 -10 5 -10 10 0 6 5 10 10 10 6 0 10 -4 10 -10z m206 -58 c-18
-16 -18 -16 -6 6 6 13 14 21 18 18 3 -4 -2 -14 -12 -24z m-346 -17 c0 -16 -27
-32 -37 -22 -3 4 -3 13 0 22 8 20 37 20 37 0z m336 -5 c9 0 12 -5 9 -10 -8
-13 -35 6 -34 24 0 7 2 6 6 -1 2 -7 11 -13 19 -13z m74 -10 c0 -5 -5 -10 -11
-10 -5 0 -7 5 -4 10 3 6 8 10 11 10 2 0 4 -4 4 -10z m1440 -50 c0 -5 -2 -10
-4 -10 -3 0 -8 5 -11 10 -3 6 -1 10 4 10 6 0 11 -4 11 -10z m-1520 -84 c-5 -5
-10 -18 -10 -28 0 -11 -7 -18 -20 -18 -24 0 -24 -2 -5 45 13 31 18 35 31 24
10 -8 12 -15 4 -23z m40 4 c0 -5 -4 -10 -10 -10 -5 0 -10 5 -10 10 0 6 5 10
10 10 6 0 10 -4 10 -10z m1540 -10 c6 -11 7 -20 3 -20 -5 0 -14 9 -21 20 -7
11 -8 20 -2 20 5 0 14 -9 20 -20z m-115 -40 c3 -5 -1 -10 -9 -10 -8 0 -18 5
-21 10 -3 6 1 10 9 10 8 0 18 -4 21 -10z m129 -35 c3 -8 1 -15 -3 -15 -5 0
-11 7 -15 15 -3 8 -1 15 3 15 5 0 11 -7 15 -15z"/>
<path d="M10650 5362 c0 -6 -8 -13 -19 -17 -10 -3 -28 -14 -40 -24 -18 -16
-19 -21 -8 -44 10 -23 17 -26 45 -24 19 2 37 9 41 15 11 19 6 95 -7 100 -7 2
-12 -1 -12 -6z"/>
<path d="M12947 6743 c-8 -8 -9 -743 -1 -743 3 0 60 24 128 54 68 30 154 64
192 76 38 12 116 37 174 55 193 62 645 135 928 151 141 8 454 -9 682 -37 373
-46 663 -126 948 -260 l122 -58 -2 382 -3 382 -1581 3 c-869 1 -1584 -1 -1587
-5z m500 -63 c3 -11 9 -20 13 -20 4 0 10 -13 12 -30 6 -43 -5 -37 -23 13 -11
28 -22 43 -36 45 -24 4 -33 -20 -33 -90 0 -56 7 -78 26 -78 10 0 14 13 14 47
0 52 11 49 30 -9 9 -30 17 -38 36 -38 24 0 24 2 24 85 0 87 -8 102 -39 73 -11
-11 -13 -10 -9 2 3 8 17 16 31 18 l27 3 0 -95 c0 -56 -4 -98 -11 -101 -18 -12
-55 4 -67 27 l-11 23 0 -22 c-1 -19 -7 -23 -31 -23 l-30 0 0 88 c0 49 3 92 7
95 3 4 20 7 36 7 20 0 30 -6 34 -20z m143 -74 c0 -98 -6 -112 -40 -101 -18 6
-20 15 -20 94 0 48 3 91 7 94 3 4 17 7 30 7 22 0 23 -2 23 -94z m80 81 c-19
-7 -40 -23 -47 -37 -9 -18 -13 -20 -13 -8 0 25 40 58 69 57 23 0 22 -1 -9 -12z
m78 -13 c-7 -15 -14 -21 -16 -15 -2 7 2 18 8 26 18 22 21 18 8 -11z m122 -81
l0 -94 -27 3 c-24 3 -29 8 -34 43 -5 41 -15 34 -21 -15 -2 -19 -9 -25 -28 -25
-20 0 -25 5 -27 25 -1 14 0 18 3 8 3 -10 14 -18 24 -18 14 0 20 9 22 32 5 50
36 51 40 1 2 -26 8 -38 18 -38 12 0 16 17 18 83 2 65 0 82 -11 82 -8 0 -17
-13 -20 -30 -5 -21 -12 -30 -27 -30 -17 0 -20 6 -18 38 l1 37 4 -33 c5 -38 26
-39 32 -1 3 27 18 40 38 32 9 -4 13 -30 13 -100z m145 82 c16 -15 25 -35 24
-52 -1 -28 -1 -28 -10 4 -11 39 -50 67 -78 58 -11 -3 -30 -18 -41 -32 -11 -14
-20 -21 -20 -16 0 24 50 62 83 63 10 0 29 -11 42 -25z m-295 -10 c0 -20 -5
-25 -24 -25 -28 0 -41 -27 -31 -61 5 -16 13 -20 31 -16 21 4 24 0 24 -24 0
-23 -6 -30 -27 -35 -33 -9 -76 14 -82 41 -2 16 1 14 19 -8 16 -20 30 -27 49
-25 35 4 42 38 8 38 -26 0 -37 16 -37 54 0 27 18 46 42 46 11 0 18 7 18 20 0
11 2 20 5 20 3 0 5 -11 5 -25z m398 -41 c2 -52 6 -63 22 -67 14 -3 20 -14 20
-31 0 -25 -3 -26 -50 -26 l-50 0 1 38 c1 36 2 36 8 7 5 -26 11 -30 40 -30 38
0 53 20 22 30 -17 5 -21 16 -23 68 -2 49 -6 62 -20 65 -15 3 -18 -4 -18 -43 0
-25 -3 -44 -8 -41 -4 2 -6 25 -4 51 4 43 6 46 31 43 25 -3 26 -6 29 -64z m156
60 c22 -9 21 -54 -1 -54 -15 0 -15 2 -4 9 23 15 5 41 -28 41 -64 0 -81 -59
-27 -91 36 -21 40 -49 7 -49 -14 0 -14 2 -1 10 8 5 12 11 10 12 -3 2 -17 12
-32 21 -69 43 -3 131 76 101z m76 -19 c-13 -14 -27 -44 -31 -68 -6 -41 -7 -41
-8 -7 -1 37 31 100 51 100 6 0 1 -11 -12 -25z m75 19 c21 -8 45 -56 45 -91 0
-40 -34 -91 -66 -99 -33 -8 -77 13 -82 39 -3 14 2 12 22 -8 38 -38 77 -32 101
16 24 45 19 87 -14 120 -31 31 -32 33 -6 23z m88 -4 c-14 -6 -23 -19 -24 -32
-1 -18 -2 -19 -6 -5 -7 29 4 47 29 46 l23 0 -22 -9z m114 -20 l3 -25 -10 23
c-16 37 -35 20 -38 -34 l-4 -49 -19 50 c-22 59 -24 69 -4 35 13 -23 14 -23 15
-4 0 27 9 36 35 32 13 -2 21 -11 22 -28z m281 9 l8 -20 18 20 c11 12 23 21 27
21 4 0 -3 -12 -16 -26 -14 -15 -25 -31 -25 -35 0 -5 -4 -9 -10 -9 -5 0 -10 13
-10 29 0 16 -6 32 -12 34 -10 4 -10 6 0 6 7 1 16 -8 20 -20z m152 11 c0 -5 -6
-9 -12 -7 -10 1 -14 -21 -16 -80 -3 -75 -1 -82 18 -88 12 -4 19 -9 17 -12 -3
-3 -15 -2 -26 2 -19 6 -21 14 -21 95 0 85 4 96 33 99 4 1 7 -3 7 -9z m66 -36
c-3 -8 -15 -14 -26 -14 -12 0 -18 -4 -15 -10 3 -5 1 -10 -4 -10 -6 0 -11 7
-11 15 0 9 9 15 25 15 20 0 25 5 26 28 1 17 3 21 6 9 3 -10 2 -25 -1 -33z m83
36 c-10 -6 -22 -35 -29 -75 -7 -36 -15 -64 -17 -61 -4 4 12 103 22 134 3 6 12
12 22 12 16 -1 16 -2 2 -10z m58 -20 c1 -14 0 -18 -3 -10 -4 8 -14 21 -23 28
-14 13 -14 13 4 10 13 -2 21 -12 22 -28z m143 0 c0 -20 -5 -30 -15 -30 -12 0
-15 -14 -15 -65 0 -69 -11 -86 -47 -69 -15 6 -13 8 10 12 26 3 27 5 27 67 0
47 4 64 15 69 8 3 15 12 15 21 0 11 -11 15 -44 15 -49 0 -68 -16 -43 -35 10
-7 16 -21 16 -31 -1 -17 -2 -17 -6 -1 -2 9 -11 17 -19 17 -14 0 -20 41 -7 53
3 4 30 7 60 7 52 0 53 0 53 -30z m65 18 c-24 -13 -38 -34 -46 -68 -7 -25 -7
-25 -8 3 -1 29 37 77 61 77 7 0 4 -6 -7 -12z m73 -8 c27 -26 37 -79 22 -124
-13 -41 -35 -56 -79 -56 -34 0 -72 39 -70 74 1 16 3 14 10 -9 25 -83 124 -69
135 20 6 47 -11 84 -46 102 -15 8 -19 13 -9 13 8 0 25 -9 37 -20z m70 9 c-15
-8 -18 -24 -18 -89 0 -78 0 -79 28 -82 22 -4 24 -6 10 -12 -40 -18 -48 -1 -48
93 0 87 4 98 35 100 6 0 2 -4 -7 -10z m71 -74 c0 -27 -3 -25 -25 24 -30 67
-30 74 1 36 14 -17 24 -43 24 -60z m46 -15 l0 -95 -29 0 c-30 0 -54 28 -71 83
-12 41 10 23 25 -20 12 -35 20 -44 43 -46 l27 -3 0 79 c0 59 -4 81 -14 85 -7
3 -19 0 -25 -6 -7 -7 -11 -7 -11 -1 0 17 13 25 35 22 18 -3 20 -10 20 -98z
m-865 5 c0 -67 3 -85 14 -85 9 0 16 12 18 33 l4 32 19 -32 c13 -22 28 -33 43
-33 l22 0 -26 42 c-25 40 -26 43 -10 67 10 14 20 34 23 44 3 9 10 17 15 17 5
0 -2 -20 -16 -45 l-27 -45 26 -37 c14 -21 25 -43 25 -50 0 -20 -45 -15 -66 8
l-18 20 -8 -21 c-5 -15 -15 -20 -30 -18 -22 3 -23 8 -26 96 -2 59 1 92 8 92 6
0 10 -33 10 -85z m-880 30 c12 -33 -4 -78 -27 -73 -9 2 -18 9 -19 16 -1 7 0 8
3 2 12 -24 33 -9 33 24 0 40 -14 54 -29 29 -9 -15 -10 -15 -11 -2 0 37 36 40
50 4z m414 9 c9 -8 16 -25 15 -37 0 -19 -2 -19 -11 6 -14 39 -38 35 -38 -6 0
-40 8 -51 27 -36 9 8 13 8 13 1 0 -18 -20 -24 -35 -12 -18 15 -20 71 -3 88 15
15 13 15 32 -4z m-667 -56 c-2 -13 -4 -3 -4 22 0 25 2 35 4 23 2 -13 2 -33 0
-45z m503 52 c0 -5 14 -16 30 -25 38 -19 40 -56 5 -90 -26 -27 -41 -30 -79
-15 -31 12 -38 61 -8 59 10 0 12 -3 5 -6 -21 -8 -14 -33 12 -45 22 -10 30 -8
53 9 41 30 40 59 -2 84 -35 20 -47 39 -26 39 6 0 10 -4 10 -10z m1284 -12 c15
-24 -4 -73 -28 -73 -11 0 -20 6 -22 13 -1 7 0 8 3 2 16 -34 50 11 38 50 -7 21
-35 28 -35 8 0 -6 -3 -9 -6 -5 -10 10 7 28 23 25 9 -2 21 -11 27 -20z m-764
-3 c10 -12 10 -18 0 -30 -14 -17 -20 -18 -39 -6 -16 10 -6 51 13 51 8 0 19 -7
26 -15z m483 -47 c-2 -5 -11 -8 -19 -8 -15 0 -18 27 -7 56 6 16 9 14 19 -11 7
-17 10 -33 7 -37z m56 -55 c1 -31 -44 -32 -60 -1 l-11 21 -18 -22 c-20 -27
-54 -25 -57 4 -2 11 0 14 3 8 8 -18 34 -16 48 3 12 15 46 10 46 -7 0 -5 9 -9
21 -9 17 0 20 5 16 23 -3 12 -8 40 -11 62 -5 36 -4 35 8 -10 8 -27 15 -60 15
-72z m-1692 70 c-3 -10 -5 -4 -5 12 0 17 2 24 5 18 2 -7 2 -21 0 -30z m308
-53 c39 -43 113 -14 116 45 0 11 3 14 6 7 9 -23 -18 -70 -46 -82 -53 -22 -113
30 -110 97 1 24 2 22 9 -9 4 -21 15 -47 25 -58z m572 68 c-3 -8 -6 -5 -6 6 -1
11 2 17 5 13 3 -3 4 -12 1 -19z m643 -8 c0 -13 -7 -20 -19 -20 -29 0 -35 -18
-9 -22 24 -3 36 -34 20 -50 -6 -6 -8 0 -5 16 5 23 2 26 -21 26 -19 0 -26 5
-26 20 0 15 7 20 26 20 19 0 25 4 20 15 -3 8 -1 15 4 15 6 0 10 -9 10 -20z
m-570 -52 c7 -20 16 -28 34 -28 21 0 25 5 29 38 l4 37 1 -42 c2 -33 -2 -43
-17 -48 -25 -8 -47 2 -59 28 l-11 22 0 -22 c-1 -18 -7 -23 -25 -23 -14 0 -28
5 -31 10 -4 7 2 9 19 4 25 -6 26 -5 27 42 0 51 5 48 29 -18z"/>
<path d="M13547 6684 c-4 -4 -7 -43 -7 -86 0 -72 2 -78 20 -78 20 0 21 5 18
82 -3 75 -12 100 -31 82z"/>
<path d="M14725 6610 c-10 -17 12 -37 25 -24 8 8 6 15 -4 23 -10 9 -16 9 -21
1z"/>
<path d="M14212 6279 c-190 -11 -457 -52 -618 -95 -158 -41 -461 -147 -576
-201 l-78 -36 0 -129 c0 -70 3 -128 6 -128 3 0 44 22 92 48 114 63 168 85 340
143 238 80 491 136 722 158 63 7 149 16 190 21 102 13 500 22 475 11 -22 -10
9 -15 145 -26 41 -3 93 -9 115 -12 22 -3 36 -2 32 3 -5 5 -32 12 -60 16 -51 7
-51 7 10 3 40 -2 68 -9 78 -19 17 -16 80 -23 71 -7 -3 5 22 3 56 -4 33 -7 64
-18 68 -25 5 -8 16 -9 31 -5 13 4 20 4 16 -1 -4 -5 38 -21 95 -36 111 -30 131
-33 108 -18 -38 26 66 -10 277 -97 7 -3 10 -10 6 -16 -3 -6 -1 -7 5 -3 6 3 39
-5 73 -19 34 -14 66 -25 70 -25 12 0 -21 59 -42 74 -11 7 -76 37 -145 67 -72
31 -118 56 -107 58 23 4 33 19 33 53 0 15 5 30 10 33 22 13 7 25 -69 54 -127
49 -305 97 -486 132 -163 31 -651 46 -943 28z m706 -216 c-10 -2 -28 -2 -40 0
-13 2 -5 4 17 4 22 1 32 -1 23 -4z"/>
<path d="M15238 6003 c7 -3 16 -2 19 1 4 3 -2 6 -13 5 -11 0 -14 -3 -6 -6z"/>
<path d="M14259 5939 c-6 -12 -15 -87 -20 -166 -18 -311 -77 -471 -201 -550
-30 -18 -37 -27 -29 -37 16 -19 -64 -28 -131 -16 -136 26 -203 73 -229 160 -7
23 -21 46 -31 51 -22 12 -24 29 -2 29 11 0 14 5 9 18 -33 86 -27 214 15 294
23 44 20 59 -7 37 -18 -15 -18 -16 4 38 6 14 0 15 -50 10 -31 -4 -81 -18 -111
-31 -29 -13 -68 -27 -86 -31 -30 -6 -31 -6 -19 13 7 11 24 26 37 32 14 6 22
13 19 16 -3 4 -20 -1 -38 -10 -17 -9 -35 -13 -40 -11 -4 3 -10 1 -14 -4 -3 -6
-12 -8 -20 -4 -9 3 -21 1 -28 -5 -6 -5 -34 -13 -60 -16 -26 -4 -63 -14 -82
-22 -27 -11 -35 -11 -35 -2 0 8 -5 5 -11 -4 -5 -10 -19 -18 -29 -18 -11 0 -20
-4 -20 -10 0 -5 3 -10 8 -10 22 0 142 29 161 39 12 7 27 11 34 8 7 -2 -6 -12
-28 -22 -51 -24 -209 -119 -252 -152 l-33 -25 0 -638 c0 -624 0 -637 20 -655
11 -10 20 -22 20 -27 0 -5 -9 -6 -20 -3 -80 25 90 -120 215 -183 159 -82 238
-113 266 -107 16 4 29 10 29 14 0 7 -73 43 -111 54 -9 3 -19 18 -22 34 -3 15
-17 59 -31 97 -28 72 -30 117 -3 56 8 -19 16 -29 16 -22 2 26 -40 93 -64 102
-16 6 -27 22 -34 47 -19 66 -13 93 22 106 9 3 17 14 17 23 0 29 43 94 75 114
48 29 96 34 160 15 67 -19 128 -75 193 -177 71 -110 102 -134 102 -77 0 34 44
99 66 99 12 0 12 -6 -2 -32 l-16 -32 39 32 c53 41 126 72 172 72 118 0 202
-67 284 -225 77 -149 126 -265 132 -313 l7 -54 -25 17 c-25 16 -66 29 -202 65
-155 41 -170 49 -142 78 15 14 15 17 -1 28 -16 12 -16 13 2 20 10 4 21 2 25
-4 4 -6 12 -7 20 -3 7 5 10 14 7 20 -4 6 -12 9 -17 6 -5 -4 -9 -1 -9 4 0 6
-13 11 -30 11 -30 0 -40 14 -17 24 6 3 -1 4 -16 2 -16 -2 -34 3 -42 10 -23 23
-84 25 -132 4 -43 -19 -61 -45 -65 -96 -2 -18 -7 -23 -18 -18 -8 4 -26 7 -40
6 -50 -1 -236 31 -276 49 -23 9 -45 15 -48 12 -3 -4 -6 -1 -6 5 0 7 -8 12 -17
12 -10 0 -30 7 -45 14 -27 14 -28 14 -28 -8 0 -14 16 -37 40 -59 22 -19 40
-42 40 -50 0 -20 28 -42 74 -58 22 -8 41 -22 44 -31 2 -10 10 -18 17 -18 6 0
20 -9 30 -20 10 -11 22 -20 28 -20 17 0 48 -43 42 -58 -4 -10 0 -12 12 -8 9 4
19 2 23 -4 3 -5 26 -14 51 -19 24 -5 77 -16 118 -25 41 -9 96 -17 123 -19 26
-1 48 -6 48 -10 0 -5 17 -6 39 -2 25 4 51 1 75 -9 48 -20 210 -36 345 -35 99
2 102 2 46 10 -33 4 -71 6 -85 3 -14 -2 -18 -1 -10 3 8 3 21 14 28 24 11 16
16 17 39 6 21 -9 27 -9 31 1 2 6 14 12 26 12 12 0 31 7 42 15 23 17 129 20
170 5 15 -6 42 -23 59 -39 27 -24 42 -28 99 -30 37 -1 79 -7 93 -14 23 -10 11
-13 -98 -30 -215 -32 -676 -22 -909 19 -389 69 -661 152 -923 283 -84 41 -155
77 -159 79 -5 2 -8 -458 -8 -1022 l0 -1026 1590 0 1590 0 0 1045 c0 575 -2
1045 -4 1045 -2 0 -33 -17 -67 -39 -53 -32 -64 -43 -64 -65 0 -21 -9 -33 -40
-52 -53 -32 -67 -31 -59 2 8 31 16 33 -141 -30 -96 -37 -110 -46 -109 -66 1
-27 -54 -53 -148 -70 -35 -6 -74 -14 -87 -17 -17 -4 -22 -2 -17 6 4 6 16 11
26 11 18 0 64 39 56 47 -1 2 -36 -3 -77 -11 -126 -25 -140 -26 -134 -16 3 5
30 17 59 25 47 14 53 18 49 39 -4 20 -1 23 21 21 14 -2 24 1 23 7 -1 6 14 19
33 30 19 11 39 26 45 32 5 7 24 19 42 25 17 7 34 19 37 27 3 8 13 14 23 15 16
0 16 1 -2 9 -11 5 -14 9 -7 9 7 1 10 6 6 12 -4 8 1 9 17 4 13 -4 21 -4 17 0
-4 4 0 14 8 22 11 12 12 18 3 29 -13 16 -41 18 -54 5 -20 -19 -251 -45 -261
-30 -2 4 -23 10 -45 14 -40 7 -41 7 -37 46 3 37 2 38 -27 37 -16 -1 -45 6 -62
16 -18 9 -44 17 -58 18 -14 1 -25 9 -25 16 0 10 -8 13 -24 10 -18 -4 -26 0
-30 15 -3 14 -11 18 -25 14 -12 -3 -24 -1 -27 4 -3 5 -14 9 -26 9 -19 0 -19
-1 -5 -24 14 -20 14 -26 3 -36 -15 -11 -62 -4 -72 11 -8 14 -24 10 -24 -6 0
-9 -9 -15 -25 -15 -18 0 -28 -7 -35 -25 -8 -21 -14 -24 -38 -19 -26 5 -30 3
-35 -22 -5 -26 -4 -27 8 -10 8 10 19 16 26 14 8 -3 7 -8 -3 -19 -9 -8 -19 -25
-22 -37 -6 -18 -4 -22 16 -22 20 0 23 -6 26 -40 1 -22 -2 -41 -8 -41 -20 -3
-25 -4 -60 -18 -39 -16 -130 -98 -130 -118 0 -7 -4 -13 -10 -13 -5 0 -10 11
-10 25 0 14 -4 25 -10 25 -15 0 -35 43 -21 48 6 2 11 12 11 23 0 13 6 19 16
17 11 -2 22 15 39 61 25 68 53 108 41 59 -13 -57 11 -25 52 70 47 110 48 112
27 112 -19 0 -19 23 0 61 15 28 15 30 -7 39 l-23 9 23 7 c23 7 29 19 12 29 -5
3 -10 13 -10 21 0 12 4 12 20 4 23 -12 40 -6 40 16 0 8 5 14 10 14 6 0 10 -4
10 -10 0 -16 19 -12 58 15 47 32 59 32 37 -1 -9 -14 -15 -28 -12 -30 2 -2 26
5 52 17 89 40 194 8 292 -87 74 -72 112 -84 78 -24 -18 31 -18 40 -3 40 6 0
29 19 50 43 30 33 37 38 38 22 0 -15 17 -3 73 51 81 79 108 94 173 94 91 0
166 -66 180 -157 9 -62 -8 -176 -39 -251 -28 -69 -15 -87 22 -29 11 17 21 26
21 19 0 -26 -52 -113 -93 -157 -48 -50 -72 -59 -62 -22 6 21 6 21 -11 -3 -9
-14 -23 -30 -32 -37 -8 -6 -12 -16 -11 -22 10 -28 321 125 455 224 l94 70 0
663 0 662 -92 61 c-153 100 -344 189 -365 168 -12 -12 -99 6 -157 32 -23 10
-49 19 -59 19 -10 0 -38 14 -62 30 -59 40 -67 38 -23 -7 65 -67 83 -121 83
-253 0 -133 -12 -166 -93 -252 -60 -64 -95 -88 -153 -108 -59 -19 -59 -36 1
-33 35 1 40 -1 20 -7 -67 -22 -231 -1 -288 36 -13 9 -37 44 -53 78 -46 98 -69
228 -73 411 -5 217 -5 215 -13 215 -5 0 -30 -32 -58 -70 -41 -57 -55 -69 -78
-70 -24 0 -27 -3 -22 -20 6 -19 2 -20 -117 -20 -117 0 -165 9 -139 24 20 13
13 39 -10 33 -15 -4 -25 2 -40 26 -10 18 -19 39 -19 47 0 28 -21 90 -30 90 -5
0 -14 -10 -21 -21z m-33 -595 c-4 -9 -9 -15 -11 -12 -3 3 -3 13 1 22 4 9 9 15
11 12 3 -3 3 -13 -1 -22z m-186 -1324 c0 -5 -4 -10 -10 -10 -5 0 -10 5 -10 10
0 6 5 10 10 10 6 0 10 -4 10 -10z m1155 -345 c-27 -7 -68 -13 -90 -14 l-40 0
29 12 c16 7 57 13 90 14 l61 1 -50 -13z m-1816 -22 c16 -10 20 -18 12 -26 -12
-12 -76 3 -76 18 0 6 -4 16 -9 24 -7 11 -3 13 20 7 16 -4 40 -14 53 -23z m177
-49 c41 -14 116 -36 166 -49 51 -13 87 -24 80 -25 -7 0 -10 -4 -7 -10 10 -17
-24 -12 -174 26 -149 36 -206 58 -196 74 10 17 53 11 131 -16z m759 -133 c17
-3 31 -14 33 -24 3 -14 -4 -17 -50 -16 -29 0 -84 6 -123 13 -61 10 -67 13 -50
24 21 12 139 14 190 3z m575 -21 c0 -12 -51 -19 -74 -10 -17 6 -18 9 -6 13 41
15 80 14 80 -3z m-1085 -230 c4 -6 -10 -10 -35 -10 -27 0 -43 -5 -46 -15 -4
-8 -10 -15 -15 -15 -10 0 -12 33 -2 43 10 11 91 8 98 -3z m330 1 l40 -9 -49
-1 c-31 -1 -56 -7 -68 -18 -17 -15 -18 -15 -18 4 0 35 17 40 95 24z m228 -10
c-57 -7 -67 -13 -68 -41 0 -31 -20 -23 -20 8 0 15 1 30 3 35 2 4 33 6 70 6
l67 -2 -52 -6z m114 -7 c3 -8 1 -20 -6 -27 -8 -8 -11 -6 -11 10 0 14 -8 23
-22 26 -20 4 -19 4 5 6 17 0 30 -5 34 -15z m168 6 c-3 -5 -19 -10 -36 -10
l-29 0 0 -101 c0 -64 -4 -98 -10 -94 -6 3 -10 52 -10 111 l0 104 46 0 c27 0
43 -4 39 -10z m145 1 c0 -6 -15 -11 -32 -13 -29 -3 -34 -8 -46 -51 -19 -66
-29 -51 -12 18 13 55 13 55 52 55 21 0 38 -4 38 -9z m246 2 c-4 -4 -15 -8 -24
-8 -9 -1 -31 -2 -49 -3 -29 -2 -33 -6 -41 -44 l-10 -43 -1 46 c-1 25 2 49 6
52 3 4 33 7 66 7 33 0 57 -3 53 -7z m204 -2 c0 -5 -12 -11 -27 -13 -25 -3 -29
-8 -34 -53 l-6 -50 -1 63 -2 62 35 0 c19 0 35 -4 35 -9z m115 -1 c4 -6 -8 -10
-29 -10 -20 0 -36 5 -36 10 0 6 13 10 29 10 17 0 33 -4 36 -10z m-682 -50 c3
-11 1 -20 -4 -20 -5 0 -9 9 -9 20 0 11 2 20 4 20 2 0 6 -9 9 -20z m627 -32 c0
-25 -3 -29 -10 -18 -13 20 -13 50 0 50 6 0 10 -15 10 -32z m-1584 -124 c-5
-111 -4 -135 9 -147 20 -21 19 -27 -5 -27 -19 0 -20 7 -20 161 0 117 3 158 11
153 8 -5 10 -45 5 -140z m319 31 c-8 -55 -15 -119 -15 -142 0 -41 1 -43 30
-43 17 0 30 -4 30 -10 0 -5 -18 -10 -40 -10 -47 0 -45 -13 -25 165 8 72 15
137 15 145 0 9 3 11 10 4 6 -6 4 -45 -5 -109z m85 105 c0 -5 -4 -10 -10 -10
-5 0 -10 5 -10 10 0 6 5 10 10 10 6 0 10 -4 10 -10z m-333 -22 c-3 -8 -6 -5
-6 6 -1 11 2 17 5 13 3 -3 4 -12 1 -19z m113 -4 c0 -8 -4 -12 -10 -9 -5 3 -10
10 -10 16 0 5 5 9 10 9 6 0 10 -7 10 -16z m445 -127 l0 -132 30 -3 c52 -6 53
-22 2 -22 l-47 0 0 152 c0 83 3 148 7 144 4 -4 7 -66 8 -139z m-515 108 c0
-19 -5 -25 -20 -25 -20 0 -20 1 -3 25 22 30 23 30 23 0z m309 -73 c1 -13 -3
-20 -9 -17 -5 3 -10 23 -9 43 0 30 2 33 9 17 5 -11 9 -30 9 -43z m766 -9 c-4
-37 -11 -76 -16 -87 -9 -22 -8 -6 6 107 10 73 18 56 10 -20z m105 14 c0 -16
-4 -26 -10 -22 -5 3 -10 23 -10 43 0 28 3 33 10 22 5 -8 10 -28 10 -43z m-810
-4 c0 -44 -5 -41 -14 10 -5 27 -4 37 3 32 6 -3 11 -22 11 -42z m875 -18 c9
-81 0 -98 -10 -19 -4 31 -9 63 -12 71 -3 7 -1 13 5 13 6 0 14 -29 17 -65z
m-658 -22 c-2 -16 -4 -3 -4 27 0 30 2 43 4 28 2 -16 2 -40 0 -55z m760 -35
c-2 -24 -4 -7 -4 37 0 44 2 63 4 43 2 -21 2 -57 0 -80z m203 75 c0 -28 -3 -34
-10 -23 -13 20 -13 60 0 60 6 0 10 -17 10 -37z m-1283 5 c-3 -8 -6 -5 -6 6 -1
11 2 17 5 13 3 -3 4 -12 1 -19z m875 -10 c-9 -9 -12 -7 -12 12 0 19 3 21 12
12 9 -9 9 -15 0 -24z m-1073 -10 c-1 -22 -3 -26 -6 -13 -3 11 -10 26 -15 33
-8 9 -6 12 6 12 12 0 16 -9 15 -32z m898 -15 c-3 -10 -5 -2 -5 17 0 19 2 27 5
18 2 -10 2 -26 0 -35z m-967 -38 c0 -23 -6 -38 -15 -42 -23 -8 -33 7 -12 18 9
6 17 21 17 34 0 14 2 25 5 25 3 0 5 -16 5 -35z m293 18 c-7 -2 -19 -2 -25 0
-7 3 -2 5 12 5 14 0 19 -2 13 -5z m877 -3 c0 -5 -9 -10 -20 -10 -11 0 -20 5
-20 10 0 6 9 10 20 10 11 0 20 -4 20 -10z m-324 -99 c6 -20 34 6 35 33 1 11 5
3 9 -19 5 -22 4 -44 -1 -49 -6 -6 -9 -4 -9 5 0 12 -2 12 -10 -1 -18 -26 -50
24 -49 74 l1 41 10 -35 c6 -19 12 -41 14 -49z m625 -18 c5 -15 5 -23 -1 -23
-12 0 -29 41 -36 85 -5 30 -5 30 11 -5 9 -19 21 -45 26 -57z m-81 -13 c17 0
30 -4 30 -10 0 -8 -40 -6 -76 5 -6 2 -9 17 -6 37 l5 33 9 -32 c7 -28 13 -33
38 -33z m-1035 10 c13 0 27 -4 30 -10 4 -6 -10 -10 -33 -10 -27 0 -42 5 -46
16 -9 23 5 40 16 20 5 -9 20 -16 33 -16z m402 5 c10 -22 9 -25 -8 -25 -14 0
-19 7 -19 25 0 32 12 32 27 0z m307 -1 c4 -10 13 -13 25 -9 11 3 22 1 26 -5 4
-6 -9 -10 -34 -10 -34 0 -41 3 -41 20 0 24 15 27 24 4z m123 -16 c-3 -7 -5 -2
-5 12 0 14 2 19 5 13 2 -7 2 -19 0 -25z m-1167 2 c0 -5 -21 -10 -46 -10 -27 0
-43 4 -39 10 3 6 24 10 46 10 21 0 39 -4 39 -10z m795 0 c3 -5 -3 -10 -15 -10
-12 0 -18 5 -15 10 3 6 10 10 15 10 5 0 12 -4 15 -10z m143 -7 c-10 -2 -26 -2
-35 0 -10 3 -2 5 17 5 19 0 27 -2 18 -5z m295 0 c-7 -2 -21 -2 -30 0 -10 3 -4
5 12 5 17 0 24 -2 18 -5z m287 -3 c0 -5 -4 -10 -9 -10 -6 0 -13 5 -16 10 -3 6
1 10 9 10 9 0 16 -4 16 -10z m67 4 c-3 -3 -12 -4 -19 -1 -8 3 -5 6 6 6 11 1
17 -2 13 -5z"/>
<path d="M13999 5888 c-13 -5 -41 -8 -64 -7 -23 2 -46 0 -51 -4 -6 -3 -28 -7
-50 -8 -42 -2 -104 -40 -104 -64 0 -7 14 -27 31 -44 43 -44 94 -41 191 9 9 5
36 10 60 11 52 2 118 19 118 31 0 4 7 8 15 8 9 0 15 9 15 25 0 18 -8 29 -27
37 -34 14 -103 17 -134 6z"/>
<path d="M13735 5860 c-14 -16 -15 -20 -4 -20 16 0 39 19 39 32 0 14 -16 9
-35 -12z"/>
<path d="M13683 5762 c-19 -12 -21 -72 -2 -72 5 0 7 5 3 12 -5 8 5 9 39 5 58
-8 64 11 13 42 -38 24 -37 23 -53 13z"/>
<path d="M16060 5729 c0 -11 40 -48 53 -49 4 0 7 14 7 30 0 27 -3 30 -30 30
-16 0 -30 -5 -30 -11z"/>
<path d="M5990 5613 c-8 -3 -22 -11 -30 -18 -8 -7 -36 -20 -62 -30 -26 -10
-53 -24 -59 -31 -6 -7 -17 -10 -24 -7 -15 5 -31 -38 -21 -56 4 -6 -2 -19 -14
-31 -11 -11 -20 -28 -20 -38 0 -10 -5 -23 -12 -30 -16 -16 9 -44 33 -37 16 6
19 1 19 -33 0 -40 22 -73 35 -52 9 14 35 13 35 -3 0 -7 8 -22 19 -33 10 -11
24 -30 30 -42 6 -12 19 -22 27 -22 8 0 13 -4 10 -9 -4 -5 0 -12 6 -14 10 -4
10 -6 0 -6 -10 -1 -9 -6 2 -23 11 -19 12 -34 4 -80 -5 -32 -14 -58 -19 -58 -5
0 -9 -22 -9 -50 0 -27 4 -50 9 -50 5 0 11 -9 14 -19 2 -10 14 -24 26 -30 l21
-12 0 411 c0 225 -1 410 -2 409 -2 0 -10 -3 -18 -6z m0 -773 c0 -5 -4 -10 -10
-10 -5 0 -10 5 -10 10 0 6 5 10 10 10 6 0 10 -4 10 -10z"/>
<path d="M10113 5357 c-19 -24 -23 -36 -14 -41 5 -3 16 5 25 19 16 24 6 45
-11 22z"/>
<path d="M5572 5318 c-18 -18 -15 -36 7 -48 28 -15 49 -14 33 2 -7 7 -12 22
-12 35 0 25 -10 29 -28 11z"/>
<path d="M10090 5243 c0 -5 5 -15 10 -23 7 -11 12 -12 21 -3 6 6 8 16 5 22 -8
12 -36 15 -36 4z"/>
<path d="M5540 5100 c0 -5 5 -10 10 -10 6 0 10 5 10 10 0 6 -4 10 -10 10 -5 0
-10 -4 -10 -10z"/>
<path d="M5560 5066 c-12 -15 -10 -20 8 -38 28 -29 39 -16 21 23 -13 28 -16
30 -29 15z"/>
<path d="M3793 5037 c-22 -27 -24 -37 -9 -37 18 0 40 36 27 44 -5 3 -13 0 -18
-7z"/>
<path d="M5577 4949 c-31 -31 -27 -54 8 -45 17 4 25 0 33 -19 12 -26 23 -29
56 -16 17 7 17 8 -5 23 -13 8 -34 18 -47 22 -26 9 -24 32 2 30 11 -1 16 4 14
14 -5 26 -30 22 -61 -9z"/>
<path d="M10138 4973 c7 -3 16 -2 19 1 4 3 -2 6 -13 5 -11 0 -14 -3 -6 -6z"/>
<path d="M5640 4840 c0 -5 5 -10 10 -10 6 0 10 5 10 10 0 6 -4 10 -10 10 -5 0
-10 -4 -10 -10z"/>
<path d="M12367 4766 c-4 -10 -5 -21 -2 -24 9 -9 17 6 13 25 -3 17 -4 17 -11
-1z"/>
<path d="M3736 4745 c4 -8 18 -15 33 -15 25 1 25 1 7 15 -26 19 -47 19 -40 0z"/>
<path d="M5506 4585 c-3 -8 -1 -15 3 -15 5 0 11 7 15 15 3 8 1 15 -3 15 -5 0
-11 -7 -15 -15z"/>
<path d="M3709 4516 c-14 -6 -33 -19 -43 -28 -17 -17 -16 -18 11 -18 18 1 34
9 46 26 23 31 20 35 -14 20z"/>
<path d="M12702 4478 c-6 -6 -12 -21 -12 -31 0 -10 -8 -21 -18 -24 -27 -7 -16
-49 20 -74 45 -32 54 -21 54 62 -1 58 -4 74 -16 77 -9 1 -21 -3 -28 -10z"/>
<path d="M3531 4461 c-7 -13 -6 -24 4 -37 13 -18 14 -16 15 19 0 41 -5 46 -19
18z"/>
<path d="M5702 4444 c-1 -36 8 -43 27 -20 13 15 6 42 -13 49 -9 4 -13 -6 -14
-29z"/>
<path d="M3600 4452 c0 -4 5 -13 12 -20 8 -8 8 -15 -2 -27 -20 -24 4 -17 28 8
27 29 28 40 2 32 -11 -4 -20 -2 -20 4 0 6 -4 11 -10 11 -5 0 -10 -4 -10 -8z"/>
<path d="M3745 4450 c-3 -5 1 -10 9 -10 9 0 16 5 16 10 0 6 -4 10 -9 10 -6 0
-13 -4 -16 -10z"/>
<path d="M5640 4410 c0 -5 6 -10 14 -10 8 0 18 5 21 10 3 6 -3 10 -14 10 -12
0 -21 -4 -21 -10z"/>
<path d="M3520 4358 c0 -9 5 -20 11 -23 17 -11 20 0 4 21 -13 17 -14 17 -15 2z"/>
<path d="M11005 4309 c-10 -15 3 -25 16 -12 7 7 7 13 1 17 -6 3 -14 1 -17 -5z"/>
<path d="M3440 4291 c0 -10 6 -24 14 -30 11 -10 16 -8 21 8 3 12 3 25 0 31
-11 17 -35 11 -35 -9z"/>
<path d="M2830 4177 c0 -87 13 -100 59 -61 25 21 61 75 61 91 0 2 -9 1 -21 -2
-15 -5 -22 -2 -26 14 -3 12 -13 21 -23 21 -10 0 -25 3 -34 6 -14 5 -16 -5 -16
-69z"/>
<path d="M11293 4132 c-35 -5 -47 -27 -30 -53 9 -12 13 -28 10 -35 -3 -8 1
-14 10 -14 22 0 30 17 13 27 -8 4 -16 19 -18 33 -2 20 1 25 19 25 13 0 23 4
24 8 1 12 -3 13 -28 9z"/>
<path d="M11406 4125 c-24 -18 -33 -135 -11 -135 38 0 53 51 36 122 -5 24 -8
25 -25 13z"/>
<path d="M3277 4124 c-7 -7 30 -44 45 -44 16 0 8 29 -11 40 -23 12 -26 12 -34
4z"/>
<path d="M3480 4090 c-6 -12 -8 -29 -5 -40 3 -10 1 -21 -5 -25 -5 -3 -15 -15
-20 -26 -10 -18 -7 -19 44 -19 46 0 57 4 67 21 10 19 8 20 -10 14 -18 -5 -21
-2 -22 22 -1 15 0 34 1 42 1 13 -16 31 -32 31 -4 0 -12 -9 -18 -20z"/>
<path d="M10930 4085 c0 -14 5 -25 10 -25 6 0 10 11 10 25 0 14 -4 25 -10 25
-5 0 -10 -11 -10 -25z"/>
<path d="M5761 4068 c-1 -13 -9 -18 -28 -18 -25 -1 -26 -2 -10 -14 9 -7 17
-18 17 -23 0 -6 9 -13 21 -16 11 -3 25 -19 32 -36 6 -17 15 -31 19 -31 12 0 9
58 -3 66 -6 3 -8 17 -4 31 5 21 3 24 -10 19 -10 -4 -19 2 -25 17 -7 17 -9 18
-9 5z"/>
<path d="M14676 4055 c-3 -8 -1 -15 4 -15 6 0 10 7 10 15 0 8 -2 15 -4 15 -2
0 -6 -7 -10 -15z"/>
<path d="M10961 4046 c-8 -9 -11 -19 -7 -23 9 -9 29 13 24 27 -2 8 -8 7 -17
-4z"/>
<path d="M5630 3991 c0 -5 7 -11 15 -15 9 -3 15 0 15 9 0 8 -7 15 -15 15 -8 0
-15 -4 -15 -9z"/>
<path d="M11109 3981 c-45 -4 -74 -12 -88 -25 -22 -20 -44 -83 -35 -98 10 -16
24 -8 24 15 0 22 24 65 44 79 6 4 18 5 28 2 9 -2 19 0 23 6 3 5 31 10 61 10
48 0 58 -4 93 -36 47 -42 59 -74 65 -171 3 -58 0 -75 -13 -87 -13 -12 -21 -13
-40 -3 -39 20 -46 40 -27 77 13 27 14 40 5 67 -19 59 -91 74 -128 27 -26 -33
-27 -72 -3 -114 16 -30 16 -31 -2 -43 -11 -7 -38 -19 -60 -27 -26 -10 -42 -23
-44 -35 -2 -11 -12 -49 -23 -85 -10 -36 -27 -105 -37 -155 -16 -85 -18 -90
-42 -89 -35 2 -201 -33 -213 -45 -15 -15 2 -33 25 -26 12 4 27 0 38 -10 20
-18 40 -16 100 13 l35 17 -32 3 c-51 5 -39 22 16 22 46 0 48 -1 43 -25 -2 -14
1 -31 7 -39 14 -16 2 -42 -38 -88 l-24 -28 -11 23 c-10 20 -21 23 -108 28 -53
4 -101 10 -107 13 -20 13 -12 25 22 35 29 8 27 9 -25 10 -55 1 -58 0 -59 -24
-1 -14 -2 -31 -3 -37 -1 -8 -23 -15 -61 -18 -80 -7 -88 -13 -80 -61 7 -38 6
-39 -24 -39 -16 0 -33 -5 -37 -11 -7 -12 -71 -4 -90 12 -20 16 -265 38 -469
41 -64 1 -66 1 -25 7 l45 7 -29 12 c-16 7 -36 10 -45 8 -31 -10 -142 -9 -152
1 -7 7 2 18 28 34 52 33 53 33 53 14 0 -12 5 -15 16 -11 9 3 25 6 37 7 12 0
16 3 10 6 -7 2 -13 10 -13 16 0 16 83 16 93 0 11 -18 24 -16 57 8 30 23 60 20
60 -6 0 -20 13 -19 34 4 9 10 28 19 42 19 39 0 76 23 71 44 -3 10 -2 20 3 23
10 6 0 55 -11 55 -5 0 -9 9 -9 20 0 11 -6 20 -14 20 -8 0 -22 8 -32 17 -12 12
-31 17 -66 15 -27 -1 -57 2 -67 8 -12 6 -22 5 -29 -2 -9 -9 -18 -6 -35 10 -13
12 -33 22 -45 22 -12 0 -22 5 -22 10 0 11 -61 13 -109 4 -17 -4 -31 -13 -31
-20 0 -8 -5 -14 -11 -14 -6 0 -8 9 -4 20 7 21 -2 24 -29 14 -14 -5 -16 -28
-16 -151 0 -89 4 -152 11 -166 9 -16 9 -22 0 -25 -8 -3 -11 -145 -11 -533 l0
-529 1590 0 1590 0 0 729 0 730 -21 6 c-12 4 -26 2 -32 -4 -18 -18 -34 -13
-41 11 -10 40 -29 4 -31 -59 -4 -133 -5 -144 -15 -138 -5 3 -10 14 -10 24 0
30 -39 73 -61 66 -14 -5 -19 -1 -19 12 -1 17 -1 17 -15 -1 -18 -24 -43 -14
-47 19 -4 32 -22 38 -26 8 -7 -45 -62 -57 -62 -14 0 24 -35 37 -55 21 -8 -7
-15 -27 -15 -46 0 -18 -5 -36 -11 -39 -7 -5 -10 50 -7 188 3 189 2 196 -17
203 -11 3 -26 5 -33 5 -9 -2 -11 6 -6 23 4 19 2 28 -10 32 -9 3 -16 16 -16 27
l0 21 -20 -22 c-11 -12 -20 -35 -20 -53 0 -22 -4 -30 -14 -26 -23 9 -40 -41
-42 -122 -1 -103 -1 -101 -27 -101 -27 0 -47 -34 -47 -80 0 -35 -19 -49 -36
-26 -16 23 -22 10 -18 -44 1 -31 9 -49 23 -61 12 -10 21 -22 21 -28 0 -13 33
-31 58 -31 11 0 36 -16 56 -35 21 -19 44 -35 52 -35 8 0 14 -7 14 -15 0 -28
45 -40 100 -27 34 8 58 8 75 2 19 -7 34 -6 56 6 29 15 31 14 36 -5 6 -25 58
-42 92 -29 26 9 61 2 61 -13 0 -12 -76 -11 -160 1 -42 6 -68 6 -76 -1 -7 -5
-24 -7 -38 -3 -19 4 -26 3 -24 -6 2 -9 -13 -14 -47 -17 -27 -2 -52 -9 -56 -15
-6 -9 -14 -9 -31 -1 -14 6 -51 8 -95 4 -39 -4 -83 -3 -98 2 -18 6 -36 5 -52
-2 -32 -15 -37 -9 -52 53 -11 45 -10 51 6 65 31 26 44 48 49 81 5 28 2 32 -33
47 -21 8 -56 17 -78 18 -22 1 -47 6 -57 9 -12 5 -16 2 -15 -11 3 -34 -49 -29
-88 9 -19 18 -35 38 -35 45 0 24 -45 37 -134 39 l-90 2 -17 52 c-9 29 -20 73
-24 96 -3 24 -10 46 -15 49 -6 3 -5 16 0 30 5 14 7 31 4 38 -2 7 -1 24 4 36 5
15 2 52 -9 102 -22 105 -23 105 -56 113 -15 4 -35 13 -43 21 -21 17 -72 23
-151 16z m101 -171 c0 -15 -7 -20 -25 -20 -24 0 -34 18 -18 33 15 15 43 7 43
-13z m-20 -50 c0 -5 -5 -10 -11 -10 -5 0 -7 5 -4 10 3 6 8 10 11 10 2 0 4 -4
4 -10z m-27 -153 c-6 -43 -18 -66 -29 -54 -4 3 -3 31 1 62 5 45 9 54 20 45 9
-7 11 -25 8 -53z m59 -4 c-7 -22 -29 -14 -34 11 -3 15 2 31 11 41 15 15 16 14
22 -12 3 -15 3 -34 1 -40z m-11 -90 c-9 -16 -10 -14 -11 12 0 21 3 26 11 18 8
-8 8 -16 0 -30z m145 -209 c-11 -29 -26 -3 -25 44 l0 47 16 -38 c8 -20 12 -44
9 -53z m98 70 c7 -19 -2 -37 -15 -29 -12 8 -12 45 0 45 5 0 12 -7 15 -16z m86
6 c0 -6 9 -6 26 0 37 14 44 13 44 -10 0 -25 -45 -49 -61 -33 -8 8 -19 7 -37
-3 -25 -13 -28 -12 -36 6 -6 13 -5 25 4 35 14 17 60 21 60 5z m-519 -77 c-8
-15 -10 -15 -11 -2 0 17 10 32 18 25 2 -3 -1 -13 -7 -23z m349 -43 c0 -5 -7
-10 -15 -10 -8 0 -15 5 -15 10 0 6 7 10 15 10 8 0 15 -4 15 -10z m-381 -57 c0
-5 -4 -17 -9 -28 -8 -18 -9 -17 -9 8 -1 15 4 27 9 27 6 0 10 -3 9 -7z m-19
-99 c0 -8 -5 -12 -10 -9 -6 4 -8 11 -5 16 9 14 15 11 15 -7z m1430 -14 c0 -5
-8 -10 -17 -10 -15 0 -16 2 -3 10 19 12 20 12 20 0z m-510 -150 c0 -5 -5 -10
-11 -10 -5 0 -7 5 -4 10 3 6 8 10 11 10 2 0 4 -4 4 -10z m68 -37 c-10 -2 -26
-2 -35 0 -10 3 -2 5 17 5 19 0 27 -2 18 -5z m-1404 -140 c-9 -51 -22 -63 -40
-39 -15 21 -19 58 -7 69 3 4 17 7 30 7 22 0 23 -3 17 -37z"/>
<path d="M10726 3954 c-4 -10 -1 -14 6 -12 15 5 23 28 10 28 -5 0 -13 -7 -16
-16z"/>
<path d="M12735 3960 c3 -5 8 -10 11 -10 2 0 4 5 4 10 0 6 -5 10 -11 10 -5 0
-7 -4 -4 -10z"/>
<path d="M5720 3944 c0 -8 5 -12 10 -9 6 3 10 10 10 16 0 5 -4 9 -10 9 -5 0
-10 -7 -10 -16z"/>
<path d="M11425 3950 c-3 -5 -1 -10 4 -10 6 0 11 5 11 10 0 6 -2 10 -4 10 -3
0 -8 -4 -11 -10z"/>
<path d="M10625 3940 c-3 -5 -1 -10 4 -10 6 0 11 5 11 10 0 6 -2 10 -4 10 -3
0 -8 -4 -11 -10z"/>
<path d="M5752 3920 c-10 -17 -10 -20 3 -20 8 0 15 9 15 20 0 11 -1 20 -3 20
-1 0 -8 -9 -15 -20z"/>
<path d="M5779 3873 c-13 -16 -12 -17 4 -4 16 13 21 21 13 21 -2 0 -10 -8 -17
-17z"/>
<path d="M12370 3838 c0 -16 5 -28 10 -28 13 0 13 20 0 40 -8 12 -10 9 -10
-12z"/>
<path d="M11560 3845 c0 -14 21 -45 31 -45 18 0 5 45 -13 48 -10 2 -18 1 -18
-3z"/>
<path d="M5680 3820 c0 -13 5 -20 13 -17 6 2 12 10 12 17 0 7 -6 15 -12 18 -8
2 -13 -5 -13 -18z"/>
<path d="M5750 3833 c1 -18 29 -43 49 -43 15 0 21 -6 22 -22 0 -22 1 -22 9 -3
8 21 -9 60 -28 60 -6 0 -14 3 -18 8 -4 4 -13 7 -21 7 -7 0 -13 -3 -13 -7z"/>
<path d="M5650 3803 c0 -12 -4 -25 -10 -28 -13 -8 -13 -25 0 -25 18 0 35 49
22 62 -9 9 -12 7 -12 -9z"/>
<path d="M10763 3809 c-7 -7 -10 -24 -7 -38 8 -42 -14 -60 -77 -62 -69 -3 -81
4 -69 36 6 16 6 27 -2 31 -12 8 -29 -16 -21 -29 8 -13 -17 -27 -47 -27 -36 0
-105 -26 -91 -34 6 -4 15 -5 21 -1 5 3 36 -1 69 -8 50 -12 61 -12 65 -1 4 10
25 14 69 14 72 0 97 -17 97 -63 0 -15 5 -27 10 -27 6 0 10 20 10 44 0 35 4 45
20 49 28 7 25 27 -5 27 -21 0 -25 5 -26 33 -1 17 -1 40 0 50 3 20 -1 21 -16 6z"/>
<path d="M11705 3806 c-3 -9 -7 -23 -10 -32 -5 -14 -17 -16 -88 -10 -86 6
-128 -4 -97 -24 8 -5 27 -10 43 -10 25 0 27 -3 22 -27 -6 -27 -5 -27 8 3 12
24 23 32 53 37 58 10 64 9 64 -13 0 -11 2 -20 5 -20 3 0 14 9 25 20 11 11 35
20 53 21 30 1 30 2 -10 11 -32 7 -43 14 -43 28 0 24 -19 36 -25 16z"/>
<path d="M13615 3810 c-3 -5 1 -10 10 -10 9 0 13 5 10 10 -3 6 -8 10 -10 10
-2 0 -7 -4 -10 -10z"/>
<path d="M5710 3785 c-14 -16 -10 -18 14 -9 9 3 16 10 16 15 0 14 -16 11 -30
-6z"/>
<path d="M12440 3736 c0 -5 7 -18 17 -28 15 -17 15 -18 0 -18 -19 0 -23 -15
-6 -26 6 -3 18 1 27 10 15 15 14 18 -11 43 -15 15 -27 24 -27 19z"/>
<path d="M11880 3510 c0 -5 5 -10 10 -10 6 0 10 5 10 10 0 6 -4 10 -10 10 -5
0 -10 -4 -10 -10z"/>
<path d="M11920 3492 c0 -5 7 -13 16 -16 10 -4 14 -1 12 6 -5 15 -28 23 -28
10z"/>
<path d="M11850 3460 c0 -5 5 -10 10 -10 6 0 10 5 10 10 0 6 -4 10 -10 10 -5
0 -10 -4 -10 -10z"/>
<path d="M11670 3379 c0 -12 25 -22 41 -17 6 2 0 9 -15 16 -16 7 -26 8 -26 1z"/>
<path d="M10187 3320 c9 -34 30 -44 43 -20 11 21 12 20 -34 34 -9 3 -12 -2 -9
-14z"/>
<path d="M10270 3305 c0 -8 5 -15 10 -15 6 0 10 7 10 15 0 8 -4 15 -10 15 -5
0 -10 -7 -10 -15z"/>
<path d="M10495 3235 c-24 -11 -26 -14 -9 -14 11 -1 29 6 40 14 24 18 8 18
-31 0z"/>
<path d="M12006 3215 c4 -8 10 -12 15 -9 14 8 10 24 -6 24 -9 0 -12 -6 -9 -15z"/>
<path d="M11980 3180 c0 -12 7 -20 18 -20 9 0 28 -3 41 -7 21 -5 23 -3 16 18
-10 31 -15 36 -23 22 -5 -8 -13 -9 -22 -3 -23 15 -30 12 -30 -10z"/>
<path d="M12080 3160 c0 -5 5 -10 11 -10 5 0 7 5 4 10 -3 6 -8 10 -11 10 -2 0
-4 -4 -4 -10z"/>
<path d="M10054 1525 c0 -66 1 -95 3 -65 4 57 24 90 53 90 28 0 39 -22 43 -85
l3 -60 2 62 c1 45 -2 66 -14 77 -20 21 -48 20 -65 -1 -12 -14 -15 -9 -20 43
-4 41 -6 22 -5 -61z"/>
<path d="M3160 1525 l0 -105 33 0 c18 0 43 7 55 16 29 20 30 68 2 87 -18 13
-19 16 -5 27 21 18 19 57 -4 70 -11 5 -33 10 -50 10 l-31 0 0 -105z m84 73
c16 -26 -4 -52 -43 -56 -30 -3 -31 -2 -31 38 0 40 1 41 31 38 18 -2 37 -11 43
-20z m-3 -78 c12 -7 19 -21 19 -40 0 -32 -23 -50 -64 -50 -24 0 -26 3 -26 50
0 47 2 50 26 50 14 0 34 -5 45 -10z"/>
<path d="M4200 1525 l0 -105 33 0 c18 0 43 7 55 16 29 20 30 68 2 87 -18 13
-19 16 -5 27 21 18 19 57 -4 70 -11 5 -33 10 -50 10 l-31 0 0 -105z m84 73
c16 -26 -4 -52 -43 -56 -30 -3 -31 -2 -31 38 0 40 1 41 31 38 18 -2 37 -11 43
-20z m-3 -78 c12 -7 19 -21 19 -40 0 -32 -23 -50 -64 -50 -24 0 -26 3 -26 50
0 47 2 50 26 50 14 0 34 -5 45 -10z"/>
<path d="M4670 1620 c0 -5 5 -10 10 -10 6 0 10 5 10 10 0 6 -4 10 -10 10 -5 0
-10 -4 -10 -10z"/>
<path d="M6530 1525 l0 -105 33 0 c18 0 43 7 55 16 29 20 30 68 2 87 -18 13
-19 16 -5 27 21 18 19 57 -4 70 -11 5 -33 10 -50 10 l-31 0 0 -105z m84 73
c16 -26 -4 -52 -43 -56 -30 -3 -31 -2 -31 38 0 40 1 41 31 38 18 -2 37 -11 43
-20z m-3 -78 c12 -7 19 -21 19 -40 0 -32 -23 -50 -64 -50 -24 0 -26 3 -26 50
0 47 2 50 26 50 14 0 34 -5 45 -10z"/>
<path d="M9907 1613 l32 -4 4 -102 3 -102 2 102 2 102 33 4 c17 2 1 4 -38 4
-38 0 -56 -2 -38 -4z"/>
<path d="M10440 1515 l0 -105 40 0 c68 0 108 69 60 103 -18 13 -19 16 -5 27
38 32 4 80 -56 80 l-39 0 0 -105z m94 73 c16 -26 -4 -52 -43 -56 -30 -3 -31
-2 -31 38 0 40 1 41 31 38 18 -2 37 -11 43 -20z m0 -84 c34 -34 8 -84 -45 -84
-28 0 -29 1 -29 50 0 49 1 50 29 50 16 0 37 -7 45 -16z"/>
<path d="M3471 1588 c0 -9 -7 -19 -13 -21 -10 -4 -10 -6 0 -6 8 -1 12 -20 12
-59 0 -59 11 -83 40 -81 9 0 6 4 -7 9 -20 8 -23 16 -23 69 0 54 2 60 23 64 22
4 22 4 0 6 -12 0 -24 9 -26 19 -4 15 -5 15 -6 0z"/>
<path d="M6841 1588 c0 -9 -7 -19 -13 -21 -10 -4 -10 -6 0 -6 8 -1 12 -20 12
-60 0 -60 15 -88 42 -78 9 4 7 6 -3 6 -22 1 -29 22 -29 81 0 42 3 49 23 53 22
4 22 4 0 6 -12 0 -24 9 -26 19 -4 15 -5 15 -6 0z"/>
<path d="M10761 1583 c0 -12 -9 -24 -18 -26 -17 -4 -17 -5 0 -6 14 -1 17 -11
17 -59 0 -59 11 -83 40 -81 9 0 6 4 -7 9 -20 8 -23 16 -23 69 0 54 2 60 23 64
22 4 22 4 0 6 -14 1 -23 9 -26 24 -4 22 -4 22 -6 0z"/>
<path d="M3340 1560 c-11 -8 -8 -9 13 -4 29 7 57 -9 57 -31 0 -7 -17 -18 -37
-24 l-38 -10 38 5 c30 4 37 2 37 -12 0 -10 -8 -27 -17 -38 -15 -18 -16 -19 -1
-8 14 11 17 10 21 -5 3 -10 5 10 6 44 1 81 -31 115 -79 83z"/>
<path d="M3563 1495 c1 -69 1 -72 4 -20 2 32 9 66 16 74 9 11 9 13 0 8 -6 -4
-14 -1 -16 5 -3 7 -5 -23 -4 -67z"/>
<path d="M3620 1557 c22 -11 26 -21 31 -77 l6 -65 1 56 c2 61 24 94 59 87 15
-3 19 -15 21 -71 2 -40 7 -67 14 -67 14 0 4 116 -12 135 -16 19 -45 19 -64 -1
-15 -14 -17 -14 -32 0 -8 9 -23 16 -32 16 -12 0 -9 -4 8 -13z"/>
<path d="M3821 1561 c-10 -7 -5 -9 18 -8 39 2 67 -27 41 -43 -9 -6 -11 -10 -3
-10 8 0 12 -13 11 -35 -1 -19 2 -38 5 -42 4 -3 7 24 7 60 0 55 -3 68 -19 77
-24 12 -41 13 -60 1z"/>
<path d="M3953 1495 c0 -63 2 -68 4 -25 4 57 24 90 53 90 28 0 39 -22 43 -85
l3 -60 2 62 c1 45 -2 66 -14 77 -20 20 -48 20 -65 0 -12 -14 -14 -14 -20 3 -4
10 -7 -18 -6 -62z"/>
<path d="M4372 1554 c-17 -12 -22 -25 -22 -59 0 -48 25 -76 65 -74 14 0 12 3
-9 9 -32 10 -46 25 -46 53 0 14 9 17 56 17 53 0 55 1 49 23 -14 45 -54 59 -93
31z m76 -21 c14 -23 14 -23 -37 -23 -54 0 -69 18 -33 39 25 16 53 9 70 -16z"/>
<path d="M4520 1550 c-26 -26 -27 -90 -2 -113 21 -19 45 -21 73 -7 16 9 19 7
19 -13 0 -36 -33 -61 -70 -53 -19 3 -29 2 -25 -4 11 -17 64 -11 85 10 17 17
20 33 20 113 0 50 -4 87 -8 80 -5 -8 -13 -9 -22 -3 -24 15 -48 12 -70 -10z
m71 0 c14 -8 19 -21 19 -55 0 -45 -17 -65 -54 -65 -42 0 -62 76 -29 112 18 20
36 23 64 8z"/>
<path d="M4683 1495 c0 -44 2 -61 4 -37 2 23 2 59 0 80 -2 20 -4 1 -4 -43z"/>
<path d="M4743 1495 l0 -80 6 65 c6 59 8 65 34 74 38 14 51 -3 58 -77 l6 -62
1 61 c2 50 -2 64 -19 79 -17 16 -25 17 -49 8 -21 -8 -30 -8 -34 1 -2 6 -4 -25
-3 -69z"/>
<path d="M4902 1558 c-21 -21 -13 -46 24 -67 45 -27 43 -56 -3 -56 -17 0 -29
-3 -26 -7 7 -12 48 -9 61 4 21 21 13 46 -23 67 -19 11 -35 27 -35 35 0 18 43
32 61 20 8 -4 9 -3 5 4 -9 16 -49 15 -64 0z"/>
<path d="M6710 1560 c-11 -8 -8 -9 13 -4 29 7 57 -9 57 -31 0 -7 -17 -18 -37
-24 l-38 -10 38 5 c30 4 37 2 37 -12 0 -10 -8 -27 -17 -38 -15 -18 -16 -19 -1
-8 14 11 17 10 21 -5 3 -10 5 10 6 44 1 81 -31 115 -79 83z"/>
<path d="M6933 1495 c1 -69 1 -72 4 -20 2 32 9 66 16 74 9 11 9 13 0 8 -6 -4
-14 -1 -16 5 -3 7 -5 -23 -4 -67z"/>
<path d="M6990 1557 c22 -11 26 -21 31 -77 l6 -65 1 56 c2 61 24 94 59 87 15
-3 19 -15 21 -71 2 -40 7 -67 14 -67 14 0 4 116 -12 135 -16 19 -45 19 -64 -1
-15 -14 -17 -14 -32 0 -8 9 -23 16 -32 16 -12 0 -9 -4 8 -13z"/>
<path d="M7190 1560 c-11 -8 -8 -9 13 -4 29 7 57 -9 57 -31 0 -7 -20 -18 -44
-24 -44 -11 -60 -29 -50 -56 8 -19 52 -31 65 -18 7 7 3 9 -13 6 -33 -6 -58 22
-37 41 8 8 29 17 46 21 32 6 32 6 31 -29 -1 -20 2 -39 5 -43 4 -3 7 24 7 60 0
55 -3 68 -19 77 -25 13 -42 13 -61 0z"/>
<path d="M7322 1495 c1 -65 2 -70 5 -25 4 57 24 90 53 90 28 0 39 -22 43 -85
l3 -60 2 62 c1 45 -2 66 -14 77 -19 19 -45 21 -62 4 -10 -10 -15 -10 -22 2 -7
10 -9 -12 -8 -65z"/>
<path d="M7551 1565 c-2 -21 51 -145 60 -139 5 3 9 10 9 15 0 6 -4 8 -9 5 -4
-3 -20 25 -34 62 -14 37 -26 63 -26 57z"/>
<path d="M7646 1537 c-18 -44 -30 -83 -23 -77 8 8 47 110 42 110 -3 0 -11 -15
-19 -33z"/>
<path d="M10220 1540 c-12 -12 -20 -33 -20 -55 0 -58 55 -94 100 -65 11 7 5 8
-18 4 -37 -7 -72 16 -72 48 0 15 8 18 55 18 47 0 55 3 55 18 0 25 -31 52 -58
52 -12 0 -31 -9 -42 -20z m74 -6 c26 -26 18 -34 -34 -34 -54 0 -59 4 -33 32
20 22 46 23 67 2z"/>
<path d="M10628 1553 c-10 -2 -18 -8 -18 -13 0 -4 14 -3 31 3 27 11 32 10 45
-7 18 -26 18 -34 -3 -39 -17 -4 -17 -5 0 -6 23 -1 22 -26 -4 -52 -28 -28 -64
-22 -64 11 0 17 7 26 25 31 21 6 22 7 5 8 -41 2 -60 -44 -29 -70 12 -10 22
-10 47 -1 24 9 33 9 39 -1 4 -7 8 13 8 43 0 82 -23 109 -82 93z"/>
<path d="M10852 1485 l1 -80 6 64 c7 71 26 95 59 75 12 -8 19 -29 23 -75 l6
-64 1 57 c2 72 30 105 69 80 7 -4 14 -37 16 -72 l4 -65 -1 69 c-1 82 -18 102
-64 75 -23 -13 -30 -13 -40 -2 -15 16 -48 17 -58 2 -4 -8 -9 -7 -15 2 -5 9 -8
-18 -7 -66z"/>
<path d="M11110 1550 c-11 -8 -8 -9 13 -4 29 7 57 -9 57 -31 0 -7 -17 -18 -37
-24 l-38 -10 38 5 c30 4 37 2 37 -12 0 -10 -8 -27 -17 -38 -15 -18 -16 -19 -1
-8 14 11 17 10 21 -5 3 -10 5 10 6 44 1 81 -31 115 -79 83z"/>
<path d="M11243 1485 c0 -63 2 -68 4 -25 4 57 24 90 53 90 28 0 39 -22 43 -85
l3 -60 2 62 c1 45 -2 66 -14 77 -20 20 -48 20 -65 0 -12 -14 -14 -14 -20 3 -4
10 -7 -18 -6 -62z"/>
<path d="M13270 1455 l0 -105 38 0 c52 0 77 28 73 82 0 9 -10 20 -22 23 -17 6
-18 9 -6 18 43 35 17 87 -44 87 l-39 0 0 -105z m74 89 c19 -7 21 -45 4 -62 -7
-7 -25 -12 -40 -12 -26 0 -28 3 -28 40 0 36 3 40 24 40 13 0 31 -3 40 -6z m7
-94 c12 -7 19 -21 19 -40 0 -32 -23 -50 -64 -50 -24 0 -26 3 -26 50 0 47 2 50
26 50 14 0 34 -5 45 -10z"/>
<path d="M13581 1518 c0 -9 -7 -19 -13 -21 -10 -4 -10 -6 0 -6 8 -1 12 -20 12
-59 0 -59 11 -83 40 -81 9 0 6 4 -7 9 -20 8 -23 16 -23 69 0 54 2 60 23 64 22
4 22 4 0 6 -12 0 -24 9 -26 19 -4 15 -5 15 -6 0z"/>
<path d="M3806 1484 c-9 -8 -16 -19 -16 -24 0 -27 61 -53 74 -31 3 4 -5 6 -17
4 -30 -6 -54 21 -37 41 6 8 21 17 33 19 l22 4 -22 2 c-12 0 -29 -6 -37 -15z"/>
<path d="M13450 1490 c-11 -8 -8 -9 13 -4 29 7 57 -9 57 -31 0 -7 -17 -18 -37
-24 l-38 -10 38 5 c30 4 37 2 37 -12 0 -10 -8 -27 -17 -38 -15 -18 -16 -19 -1
-8 14 11 17 10 21 -5 3 -10 5 10 6 44 1 81 -31 115 -79 83z"/>
<path d="M13673 1425 c1 -69 1 -72 4 -20 2 32 9 66 16 74 9 11 9 13 0 8 -6 -4
-14 -1 -16 5 -3 7 -5 -23 -4 -67z"/>
<path d="M13730 1487 c22 -11 26 -21 31 -77 l6 -65 1 56 c2 61 24 94 59 87 15
-3 19 -15 21 -71 2 -40 7 -67 14 -67 14 0 4 116 -12 135 -16 19 -45 19 -64 -1
-15 -14 -17 -14 -32 0 -8 9 -23 16 -32 16 -12 0 -9 -4 8 -13z"/>
<path d="M13930 1490 c-11 -8 -8 -9 13 -4 29 7 57 -9 57 -31 0 -7 -20 -18 -44
-24 -44 -11 -60 -29 -50 -56 8 -19 52 -31 65 -18 7 7 3 9 -13 6 -33 -6 -58 22
-37 41 8 8 29 17 46 21 32 6 32 6 31 -29 -1 -20 2 -39 5 -43 4 -3 7 24 7 60 0
55 -3 68 -19 77 -25 13 -42 13 -61 0z"/>
<path d="M14062 1425 c1 -77 1 -78 7 -24 6 60 23 89 51 89 28 0 39 -21 43 -85
l3 -60 2 68 c2 64 1 68 -24 79 -20 9 -30 9 -46 -1 -17 -11 -22 -10 -29 1 -5 8
-8 -20 -7 -67z"/>
<path d="M3313 1474 c-9 -23 10 -48 38 -52 l24 -3 -25 14 c-17 9 -24 21 -23
35 3 26 -5 29 -14 6z"/>
<path d="M6683 1474 c-9 -23 10 -48 38 -52 l24 -3 -25 14 c-17 9 -24 21 -23
35 3 26 -5 29 -14 6z"/>
<path d="M11083 1464 c-9 -23 10 -48 38 -52 l24 -3 -25 14 c-17 9 -24 21 -23
35 3 26 -5 29 -14 6z"/>
<path d="M13423 1404 c-9 -23 10 -48 38 -52 l24 -3 -25 14 c-17 9 -24 21 -23
35 3 26 -5 29 -14 6z"/>
<path d="M8936 1234 c-9 -8 -16 -26 -16 -40 0 -13 -6 -24 -12 -24 -10 0 -10
-2 -1 -8 7 -4 14 -38 16 -77 l3 -70 2 72 c2 66 4 72 25 76 l22 4 -23 2 c-19 1
-23 6 -20 28 2 17 12 32 28 40 17 9 20 13 8 13 -9 0 -24 -7 -32 -16z"/>
<path d="M6540 1210 c-30 -30 -25 -46 23 -81 48 -35 59 -51 51 -73 -8 -20 -39
-29 -72 -22 -20 5 -23 4 -12 -4 23 -15 55 -12 80 8 33 26 21 62 -29 90 -41 23
-54 42 -45 67 7 18 47 30 69 21 9 -3 13 -2 10 4 -10 17 -54 11 -75 -10z"/>
<path d="M7960 1124 l0 -107 50 5 c28 3 59 13 70 23 28 26 40 77 29 121 -12
40 -53 64 -114 64 l-35 0 0 -106z m122 66 c18 -22 24 -83 12 -115 -9 -22 -57
-45 -94 -45 l-30 0 0 96 0 97 47 -6 c32 -3 53 -12 65 -27z"/>
<path d="M6672 1119 c-2 -43 3 -63 17 -80 17 -22 22 -23 50 -13 22 9 31 9 35
0 2 -6 4 25 3 69 -1 69 -1 71 -4 20 -4 -58 -19 -85 -47 -85 -29 1 -41 22 -47
82 l-6 63 -1 -56z"/>
<path d="M6842 1060 c1 -74 3 -98 7 -68 5 39 9 46 21 38 43 -28 90 9 90 70 0
52 -36 80 -81 63 -20 -8 -29 -8 -33 1 -2 6 -4 -41 -4 -104z m92 84 c23 -22 20
-77 -4 -99 -16 -15 -26 -17 -48 -9 -23 8 -27 16 -30 54 -3 33 1 47 14 57 24
17 49 16 68 -3z"/>
<path d="M7014 1148 c-19 -23 -19 -23 2 -5 34 29 84 17 84 -21 0 -11 -13 -13
-55 -10 -54 3 -55 3 -55 -24 0 -51 58 -85 100 -58 10 6 4 8 -21 4 -30 -5 -39
-2 -53 17 -28 40 -21 49 39 49 47 0 55 3 55 18 0 24 -31 52 -57 52 -11 0 -28
-10 -39 -22z"/>
<path d="M7162 1095 l1 -80 6 65 c5 56 9 66 31 77 17 9 20 13 8 13 -9 0 -20
-5 -24 -11 -4 -8 -9 -7 -15 2 -5 9 -8 -18 -7 -66z"/>
<path d="M7252 1095 c1 -65 2 -70 5 -25 4 58 24 90 55 90 23 0 37 -36 40 -98
1 -42 2 -41 7 17 4 46 11 67 24 75 32 20 51 -4 58 -75 l6 -64 1 62 c2 44 -2
66 -14 77 -20 20 -48 20 -64 1 -12 -14 -15 -14 -30 0 -20 18 -42 19 -58 3 -10
-10 -15 -10 -22 2 -7 10 -9 -12 -8 -65z"/>
<path d="M7520 1160 c-11 -8 -8 -9 13 -4 29 7 57 -9 57 -31 0 -7 -17 -18 -37
-24 l-38 -10 38 5 c30 4 37 2 37 -12 0 -10 -8 -27 -17 -38 -15 -18 -16 -19 -1
-8 14 11 17 10 21 -5 3 -10 5 10 6 44 1 81 -31 115 -79 83z"/>
<path d="M7653 1095 l0 -80 6 65 c6 59 8 65 34 74 38 14 51 -3 58 -77 l6 -62
1 61 c2 50 -2 64 -19 79 -17 16 -25 17 -49 8 -21 -8 -30 -8 -34 1 -2 6 -4 -25
-3 -69z"/>
<path d="M8180 1160 c-11 -8 -8 -9 13 -4 29 7 57 -9 57 -31 0 -7 -17 -18 -37
-24 l-38 -10 38 5 c30 4 37 2 37 -12 0 -10 -8 -27 -17 -38 -15 -18 -16 -19 -1
-8 14 11 17 10 21 -5 3 -10 5 10 6 44 1 81 -31 115 -79 83z"/>
<path d="M8294 1153 c29 -105 41 -132 50 -123 8 8 8 13 0 18 -6 4 -19 33 -28
65 -9 31 -19 57 -22 57 -3 0 -3 -8 0 -17z"/>
<path d="M8366 1122 c-10 -29 -16 -55 -14 -58 3 -2 11 15 18 38 l13 43 13 -35
c7 -19 12 -28 12 -20 0 8 -5 31 -12 50 l-13 35 -17 -53z"/>
<path d="M8460 1145 c-13 -34 -24 -81 -18 -75 8 8 37 100 32 100 -2 0 -9 -11
-14 -25z"/>
<path d="M8513 1095 c0 -63 2 -68 4 -25 4 57 24 90 53 90 28 0 39 -22 43 -85
l3 -60 2 62 c1 45 -2 66 -14 77 -20 20 -48 20 -65 0 -12 -14 -14 -14 -20 3 -4
10 -7 -18 -6 -62z"/>
<path d="M8765 1145 c-14 -13 -25 -36 -25 -50 0 -31 41 -75 70 -75 28 0 70 44
70 73 0 35 -36 77 -66 77 -14 0 -36 -11 -49 -25z m85 -5 c11 -11 20 -31 20
-45 0 -30 -32 -65 -60 -65 -28 0 -60 35 -60 65 0 30 32 65 60 65 11 0 29 -9
40 -20z"/>
<path d="M3156 1152 c-3 -5 5 -8 17 -8 36 1 34 -38 -2 -64 -45 -31 -41 -50 12
-48 l42 1 -39 4 -39 4 33 34 c37 38 39 78 3 83 -11 2 -24 -1 -27 -6z"/>
<path d="M3250 1141 c-32 -62 15 -142 58 -99 16 16 16 90 0 106 -18 18 -46 14
-58 -7z m55 -46 c0 -43 -3 -50 -20 -50 -27 0 -42 46 -27 80 8 17 19 25 30 23
13 -3 17 -14 17 -53z"/>
<path d="M3350 1141 c-32 -62 15 -142 58 -99 16 16 16 90 0 106 -18 18 -46 14
-58 -7z m55 -46 c0 -43 -3 -50 -20 -50 -27 0 -42 46 -27 80 8 17 19 25 30 23
13 -3 17 -14 17 -53z"/>
<path d="M3460 1146 c0 -8 -3 -21 -6 -29 -4 -11 2 -16 23 -19 22 -2 28 -8 28
-28 0 -19 -6 -26 -30 -31 -29 -6 -29 -7 -4 -8 50 -2 66 54 21 74 -31 14 -28
43 6 48 25 4 25 4 -5 6 -23 1 -33 -4 -33 -13z"/>
<path d="M9896 1142 c-3 -5 5 -8 17 -8 36 1 34 -38 -2 -64 -45 -31 -41 -50 12
-48 l42 1 -39 4 -39 4 33 34 c37 38 39 78 3 83 -11 2 -24 -1 -27 -6z"/>
<path d="M9990 1131 c-22 -43 -5 -111 28 -111 29 0 42 21 42 65 0 23 -5 46
-12 53 -18 18 -46 14 -58 -7z m55 -46 c0 -43 -3 -50 -20 -50 -27 0 -42 46 -27
80 8 17 19 25 30 23 13 -3 17 -14 17 -53z"/>
<path d="M10096 1141 c-3 -4 6 -6 19 -3 37 7 34 -36 -5 -70 -41 -36 -38 -48
13 -47 l42 2 -40 6 -40 6 32 24 c39 29 46 46 33 72 -11 19 -44 26 -54 10z"/>
<path d="M10196 1141 c-3 -4 6 -6 19 -3 40 7 43 -24 6 -62 -41 -43 -40 -56 7
-54 36 1 36 1 5 5 -41 5 -41 13 -3 41 31 24 38 50 18 70 -14 14 -44 16 -52 3z"/>
<path d="M5232 1075 l1 -50 4 43 c7 74 51 67 54 -8 2 -32 2 -31 8 10 4 32 11
46 24 48 14 3 17 -4 17 -42 0 -25 5 -46 10 -46 15 0 12 64 -4 86 -13 16 -18
17 -35 7 -12 -8 -22 -9 -26 -3 -3 5 -17 9 -30 8 -23 -2 -25 -6 -23 -53z"/>
<path d="M5392 1118 c-16 -16 -15 -63 2 -78 39 -31 96 25 70 68 -14 21 -55 27
-72 10z m56 -10 c17 -17 15 -43 -4 -59 -31 -26 -70 25 -44 56 15 18 32 19 48
3z"/>
<path d="M5499 1083 c10 -27 23 -46 27 -44 12 5 44 91 35 91 -4 0 -14 -19 -21
-42 l-13 -43 -13 30 c-7 17 -13 36 -14 43 0 6 -4 12 -10 12 -5 0 -1 -21 9 -47z"/>
<path d="M5593 1080 c0 -30 2 -43 4 -27 2 15 2 39 0 55 -2 15 -4 2 -4 -28z"/>
<path d="M5636 1108 c-9 -13 -13 -33 -9 -46 6 -24 48 -41 64 -25 5 5 -2 9 -18
8 -18 0 -29 6 -31 18 -3 13 3 17 28 17 27 0 31 3 28 23 -4 31 -42 35 -62 5z
m52 -5 c2 -8 -6 -13 -22 -13 -25 0 -33 10 -19 24 10 10 36 3 41 -11z"/>
<path d="M11972 1065 l1 -50 4 43 c7 74 51 67 54 -8 2 -32 2 -31 8 10 4 32 11
46 24 48 14 3 17 -4 17 -42 0 -25 5 -46 10 -46 15 0 12 64 -4 86 -13 16 -18
17 -35 7 -12 -8 -22 -9 -26 -3 -3 5 -17 9 -30 8 -23 -2 -25 -6 -23 -53z"/>
<path d="M12132 1108 c-16 -16 -15 -63 2 -78 39 -31 96 25 70 68 -14 21 -55
27 -72 10z m56 -10 c17 -17 15 -43 -4 -59 -31 -26 -70 25 -44 56 15 18 32 19
48 3z"/>
<path d="M12239 1073 c10 -27 23 -46 27 -44 12 5 44 91 35 91 -4 0 -14 -19
-21 -42 l-13 -43 -13 30 c-7 17 -13 36 -14 43 0 6 -4 12 -10 12 -5 0 -1 -21 9
-47z"/>
<path d="M12333 1070 c0 -30 2 -43 4 -27 2 15 2 39 0 55 -2 15 -4 2 -4 -28z"/>
<path d="M12376 1098 c-9 -13 -13 -33 -9 -46 6 -24 48 -41 64 -25 5 5 -2 9
-18 8 -18 0 -29 6 -31 18 -3 13 3 17 28 17 27 0 31 3 28 23 -4 31 -42 35 -62
5z m52 -5 c2 -8 -6 -13 -22 -13 -25 0 -33 10 -19 24 10 10 36 3 41 -11z"/>
<path d="M7493 1074 c-9 -23 10 -48 38 -52 l24 -3 -25 14 c-17 9 -24 21 -23
35 3 26 -5 29 -14 6z"/>
<path d="M8153 1074 c-9 -23 10 -48 38 -52 l24 -3 -25 14 c-17 9 -24 21 -23
35 3 26 -5 29 -14 6z"/>
<path d="M13283 1078 c-25 -12 -32 -31 -8 -22 12 5 15 -4 15 -45 0 -28 5 -51
10 -51 6 0 10 28 10 65 0 36 -1 65 -2 64 -2 0 -13 -5 -25 -11z"/>
<path d="M13362 1078 c-28 -28 -1 -75 38 -65 12 3 20 0 20 -7 0 -18 -21 -36
-44 -37 -18 -1 -19 -2 -3 -6 29 -8 57 25 57 67 0 39 -14 60 -40 60 -9 0 -21
-5 -28 -12z m53 -28 c0 -18 -6 -26 -21 -28 -23 -3 -37 18 -27 44 10 25 48 13
48 -16z"/>
<path d="M13465 1080 c-4 -6 -5 -20 -4 -33 1 -12 -2 -30 -6 -40 -11 -27 16
-51 49 -43 26 6 36 38 16 51 -6 4 -5 13 2 25 9 14 9 22 -1 34 -15 18 -47 21
-56 6z m48 -12 c6 -19 -3 -38 -18 -38 -18 0 -28 17 -21 35 7 18 33 20 39 3z
m2 -73 c0 -22 -31 -33 -47 -17 -17 17 -1 44 24 40 15 -2 23 -10 23 -23z"/>
<path d="M13566 1074 c-19 -19 -20 -25 -2 -49 8 -12 20 -16 35 -12 13 3 21 1
21 -8 0 -16 -19 -31 -45 -38 -19 -4 -18 -5 2 -6 32 -2 53 25 53 68 0 56 -31
78 -64 45z m49 -24 c0 -16 -6 -26 -18 -28 -19 -4 -32 20 -23 44 9 25 41 13 41
-16z"/>
<path d="M8411 1060 c0 -8 3 -21 8 -28 6 -11 10 -10 15 4 3 9 4 19 1 22 -3 3
-5 -1 -6 -9 0 -8 -4 -6 -9 6 -6 13 -9 15 -9 5z"/>
<path d="M15342 1005 l1 -50 4 43 c7 74 51 67 54 -8 2 -32 2 -31 8 10 4 32 11
46 24 48 14 3 17 -4 17 -42 0 -25 5 -46 10 -46 15 0 12 64 -4 86 -13 16 -18
17 -35 7 -12 -8 -22 -9 -26 -3 -3 5 -17 9 -30 8 -23 -2 -25 -6 -23 -53z"/>
<path d="M15502 1048 c-16 -16 -15 -63 2 -78 39 -31 96 25 70 68 -14 21 -55
27 -72 10z m56 -10 c17 -17 15 -43 -4 -59 -31 -26 -70 25 -44 56 15 18 32 19
48 3z"/>
<path d="M15609 1013 c10 -27 23 -46 27 -44 12 5 44 91 35 91 -4 0 -14 -19
-21 -42 l-13 -43 -13 30 c-7 17 -13 36 -14 43 0 6 -4 12 -10 12 -5 0 -1 -21 9
-47z"/>
<path d="M15703 1010 c0 -30 2 -43 4 -27 2 15 2 39 0 55 -2 15 -4 2 -4 -28z"/>
<path d="M15746 1038 c-9 -13 -13 -33 -9 -46 6 -24 48 -41 64 -25 5 5 -2 9
-18 8 -18 0 -29 6 -31 18 -3 13 3 17 28 17 27 0 31 3 28 23 -4 31 -42 35 -62
5z m52 -5 c2 -8 -6 -13 -22 -13 -25 0 -33 10 -19 24 10 10 36 3 41 -11z"/>
<path d="M6562 760 c-3 -98 -9 -117 -41 -129 -24 -9 -24 -9 -4 -10 40 -2 54
36 50 130 l-3 84 -2 -75z"/>
<path d="M6911 788 c0 -9 -9 -19 -18 -21 -16 -4 -17 -5 -1 -6 14 -1 18 -13 20
-68 2 -52 7 -68 18 -69 9 0 10 1 3 3 -9 3 -13 26 -13 68 0 58 2 64 23 68 22 4
22 4 0 6 -12 0 -24 9 -26 19 -4 15 -5 15 -6 0z"/>
<path d="M6622 713 c-1 -45 2 -66 14 -77 17 -17 50 -21 58 -7 3 4 -5 6 -17 4
-33 -6 -45 14 -50 82 l-3 60 -2 -62z"/>
<path d="M6718 709 c-1 -33 0 -68 4 -77 4 -9 7 18 7 61 1 92 -6 102 -11 16z"/>
<path d="M6792 758 c-21 -21 -13 -46 23 -67 19 -11 35 -27 35 -35 0 -18 -42
-32 -62 -20 -10 5 -11 4 -1 -6 19 -20 67 -1 71 28 3 17 -5 26 -33 39 -26 13
-35 23 -33 38 2 16 10 20 35 19 18 -1 30 2 27 7 -8 13 -48 11 -62 -3z"/>
<path d="M6993 695 c0 -44 2 -61 4 -37 2 23 2 59 0 80 -2 20 -4 1 -4 -43z"/>
<path d="M7066 749 c-50 -39 -23 -129 38 -129 14 0 27 4 30 9 3 4 -6 6 -20 3
-33 -6 -64 23 -64 60 0 37 34 71 66 65 13 -2 24 0 24 4 0 17 -47 9 -74 -12z"/>
<path d="M7199 751 c-45 -36 -19 -131 35 -131 12 0 28 5 36 10 11 8 8 9 -12 4
-35 -8 -64 9 -70 41 -5 24 -4 25 54 25 57 0 59 1 53 23 -14 47 -57 60 -96 28z
m69 -3 c25 -25 13 -38 -33 -38 -33 0 -45 4 -45 15 0 29 56 45 78 23z"/>
<path d="M6526 352 c-3 -5 5 -8 17 -8 36 1 34 -38 -2 -64 -45 -31 -41 -50 12
-48 l42 1 -39 4 -39 4 33 34 c37 38 39 78 3 83 -11 2 -24 -1 -27 -6z"/>
<path d="M6620 341 c-22 -43 -5 -111 28 -111 29 0 42 21 42 65 0 23 -5 46 -12
53 -18 18 -46 14 -58 -7z m55 -46 c0 -43 -3 -50 -20 -50 -27 0 -42 46 -27 80
8 17 19 25 30 23 13 -3 17 -14 17 -53z"/>
<path d="M6743 348 c-25 -12 -32 -31 -8 -22 12 5 15 -4 15 -45 0 -28 5 -51 10
-51 6 0 10 28 10 65 0 36 -1 65 -2 64 -2 0 -13 -5 -25 -11z"/>
<path d="M6837 342 c-20 -22 -22 -83 -5 -100 20 -20 48 -14 60 13 14 32 -5 59
-39 52 -43 -8 -23 35 22 46 19 4 19 5 -1 6 -11 0 -28 -7 -37 -17z m41 -69 c-3
-31 -34 -44 -44 -19 -9 24 3 46 26 46 17 0 21 -5 18 -27z"/>
<path d="M8602 275 l1 -50 4 43 c7 74 51 67 54 -8 2 -32 2 -31 8 10 4 32 11
46 24 48 14 3 17 -4 17 -42 0 -25 5 -46 10 -46 15 0 12 64 -4 86 -13 16 -18
17 -35 7 -12 -8 -22 -9 -26 -3 -3 5 -17 9 -30 8 -23 -2 -25 -6 -23 -53z"/>
<path d="M8762 318 c-16 -16 -15 -63 2 -78 39 -31 96 25 70 68 -14 21 -55 27
-72 10z m56 -10 c17 -17 15 -43 -4 -59 -31 -26 -70 25 -44 56 15 18 32 19 48
3z"/>
<path d="M8869 283 c10 -27 23 -46 27 -44 12 5 44 91 35 91 -4 0 -14 -19 -21
-42 l-13 -43 -13 30 c-7 17 -13 36 -14 43 0 6 -4 12 -10 12 -5 0 -1 -21 9 -47z"/>
<path d="M8963 280 c0 -30 2 -43 4 -27 2 15 2 39 0 55 -2 15 -4 2 -4 -28z"/>
<path d="M9006 308 c-9 -13 -13 -33 -9 -46 6 -24 48 -41 64 -25 5 5 -2 9 -18
8 -18 0 -29 6 -31 18 -3 13 3 17 28 17 27 0 31 3 28 23 -4 31 -42 35 -62 5z
m52 -5 c2 -8 -6 -13 -22 -13 -25 0 -33 10 -19 24 10 10 36 3 41 -11z"/>
<path d="M19050 125 l24 -25 23 22 c13 12 23 23 23 25 0 2 -21 3 -47 3 l-46 0
23 -25z"/>
<path d="M0 10 c0 -7 3203 -10 9590 -10 6387 0 9590 3 9590 10 0 7 -3203 10
-9590 10 -6387 0 -9590 -3 -9590 -10z"/>
</g>
</svg>
