<?xml version="1.0" standalone="no"?>
<!DOCTYPE svg PUBLIC "-//W3C//DTD SVG 20010904//EN"
 "http://www.w3.org/TR/2001/REC-SVG-20010904/DTD/svg10.dtd">
<svg version="1.0" xmlns="http://www.w3.org/2000/svg"
 width="1919.000000pt" height="917.000000pt" viewBox="0 0 1919.000000 917.000000"
 preserveAspectRatio="xMidYMid meet">

<g transform="translate(0.000000,917.000000) scale(0.100000,-0.100000)"
fill="#000000" stroke="none">
<path d="M17058 8713 c7 -3 16 -2 19 1 4 3 -2 6 -13 5 -11 0 -14 -3 -6 -6z"/>
<path d="M14555 6661 c-10 -17 12 -21 25 -6 10 12 10 15 -3 15 -9 0 -18 -4
-22 -9z"/>
<path d="M4525 6650 c-17 -6 -17 -7 -1 -13 14 -6 17 -17 16 -50 -4 -62 -1 -79
10 -72 6 3 10 -1 10 -10 0 -11 -6 -14 -25 -9 -20 5 -25 2 -31 -20 -3 -14 -4
-32 -1 -40 9 -22 -61 -32 -81 -12 -19 18 -6 38 26 41 10 0 28 10 40 21 l22 21
-20 18 c-27 24 -25 35 6 35 19 0 25 4 22 18 -3 13 -13 17 -47 15 -60 -3 -68
-14 -41 -53 12 -17 19 -34 16 -38 -8 -8 -66 52 -66 68 0 6 -4 9 -9 5 -5 -3
-12 -1 -16 5 -4 6 -16 3 -32 -10 -14 -11 -34 -20 -44 -20 -11 0 -19 -7 -19
-15 0 -8 -10 -20 -22 -26 -20 -10 -51 -33 -96 -70 -9 -8 -5 -19 20 -49 17 -22
37 -40 45 -40 7 0 13 -7 13 -15 0 -8 -4 -15 -10 -15 -5 0 -10 -12 -10 -26 0
-26 -1 -26 -57 -20 -87 8 -96 11 -137 30 -24 11 -49 16 -67 12 -37 -7 -45 8
-12 23 14 6 23 14 20 17 -10 10 -56 -8 -78 -32 l-22 -24 22 0 c12 0 19 -4 16
-10 -3 -5 2 -10 11 -10 30 0 6 -13 -30 -16 -20 -2 -38 1 -41 6 -3 6 1 7 10 3
16 -5 16 -4 1 24 -8 17 -22 33 -31 36 -8 4 -15 13 -15 22 0 18 -26 20 -33 3
-3 -9 -10 -6 -22 10 -20 27 -65 51 -85 44 -8 -2 -37 -27 -64 -54 -27 -27 -61
-52 -77 -55 -15 -3 -38 -16 -50 -29 -12 -13 -29 -24 -37 -24 -14 0 -132 -69
-132 -77 0 -2 4 -2 8 1 5 3 9 -8 10 -24 0 -19 -7 -35 -20 -44 -12 -9 -18 -21
-15 -30 3 -8 -3 -24 -14 -37 -25 -28 -24 -43 1 -36 26 7 25 3 -4 -25 -33 -32
-84 -201 -56 -183 9 5 8 -2 -3 -21 -25 -48 -40 -110 -33 -139 7 -28 26 -25 26
4 0 20 27 48 36 38 4 -3 -3 -19 -15 -35 -12 -17 -21 -37 -21 -45 0 -9 -4 -17
-10 -19 -14 -5 -46 -99 -42 -126 2 -12 7 -20 12 -17 4 3 6 -4 3 -16 -7 -25 27
-97 65 -134 33 -34 73 -52 236 -104 88 -28 146 -41 184 -41 79 0 219 -26 328
-61 143 -46 190 -52 306 -39 57 6 132 22 168 35 76 27 183 75 190 85 10 14
286 123 321 127 33 4 43 -1 90 -44 30 -26 77 -72 106 -101 29 -28 68 -63 88
-76 l35 -24 -52 -20 c-127 -47 -373 -105 -526 -123 -130 -16 -538 -6 -662 16
-364 63 -602 159 -830 333 l-45 34 45 -42 c40 -38 105 -83 210 -148 44 -27 32
-28 -23 -2 -31 16 -37 17 -22 4 35 -29 205 -105 325 -145 139 -46 363 -92 560
-115 246 -28 513 -7 812 65 415 100 699 278 804 506 49 107 60 176 41 270 -16
76 -59 180 -91 220 -9 11 -2 -10 15 -48 37 -81 49 -193 29 -278 -28 -120 -117
-247 -231 -333 -71 -53 -159 -101 -159 -87 0 5 4 11 9 13 16 5 120 168 157
244 51 105 60 164 45 294 -10 83 -10 118 -1 151 13 49 47 119 57 119 4 0 18
-10 32 -22 19 -18 17 -13 -8 20 -18 24 -63 69 -99 100 -36 31 -83 74 -104 95
-40 38 -73 52 -47 20 36 -46 50 -95 30 -107 -12 -8 -21 18 -14 43 5 18 1 21
-26 21 -32 0 -57 30 -33 38 19 6 14 32 -5 32 -39 1 -70 48 -43 65 15 9 12 35
-3 35 -7 0 -19 -6 -25 -12 -7 -7 -18 -13 -25 -13 -7 -1 -11 -6 -9 -13 5 -24
-27 -23 -65 2 -23 16 -31 26 -21 26 24 0 31 16 24 55 -7 35 -39 56 -58 37 -13
-13 -48 -3 -48 13 0 7 7 18 16 26 14 11 14 13 -2 22 -11 6 -19 5 -25 -4 -7
-11 -11 -11 -21 -1 -10 10 -10 15 -1 20 7 5 9 13 4 21 -7 11 -10 11 -17 -2 -5
-8 -39 -47 -76 -86 -38 -39 -68 -74 -68 -78 0 -5 -22 -33 -49 -63 -38 -43 -52
-52 -62 -43 -21 17 -167 37 -184 25 -15 -10 -35 -59 -35 -84 0 -19 -5 -20 -58
-16 -56 4 -154 44 -154 62 0 8 103 133 142 173 25 25 19 43 -15 43 -15 0 -29
-9 -36 -22 -6 -13 -18 -31 -27 -41 -15 -16 -16 -16 -34 3 -20 21 -17 40 7 40
8 0 19 9 25 20 7 14 21 20 45 20 18 0 36 4 39 9 3 4 17 6 30 4 17 -4 33 3 53
21 42 39 63 34 126 -29 48 -48 74 -92 82 -138 5 -27 10 -35 16 -25 5 7 9 22 9
33 0 11 11 42 25 69 14 27 25 59 25 71 0 33 -34 71 -81 89 -38 15 -46 15 -88
1 -25 -8 -74 -17 -107 -20 -52 -4 -61 -2 -60 12 0 9 -8 17 -21 19 -13 2 -23
-1 -23 -6 0 -5 -11 -9 -24 -8 -20 2 -22 5 -12 20 6 10 21 21 34 26 l23 7 -33
31 c-24 21 -40 29 -53 24z m-265 -284 c0 -2 -7 -9 -15 -16 -12 -10 -15 -10
-15 4 0 9 7 16 15 16 8 0 15 -2 15 -4z m-201 -130 c10 -12 8 -13 -8 -9 -12 3
-21 9 -21 14 0 14 16 11 29 -5z m-265 -5 c7 -10 -17 -21 -45 -21 -24 0 -25 17
-1 23 29 8 41 7 46 -2z m127 -1 c25 -14 24 -30 -1 -30 -14 0 -18 5 -13 17 5
12 2 15 -10 10 -9 -3 -17 -2 -17 3 0 13 16 13 41 0z m69 0 c0 -5 -2 -10 -4
-10 -3 0 -8 5 -11 10 -3 6 -1 10 4 10 6 0 11 -4 11 -10z m330 -22 c0 -6 -11
-8 -25 -6 -13 3 -26 0 -28 -5 -4 -14 -27 1 -27 18 0 7 10 15 23 17 26 5 57 -8
57 -24z m1084 -83 c29 -57 34 -113 10 -122 -8 -3 -39 -2 -67 3 -46 8 -52 12
-52 34 0 14 6 30 13 35 7 6 15 27 19 49 6 37 5 38 -18 31 -13 -4 -29 -13 -35
-21 -13 -16 -24 -18 -24 -6 0 5 16 17 35 28 19 10 35 21 35 25 0 3 10 19 22
35 l23 28 6 -34 c4 -19 19 -57 33 -85z m-1579 69 c0 -10 -8 -20 -18 -22 -22
-4 -35 27 -16 39 20 12 34 5 34 -17z m556 8 c-7 -2 -18 1 -23 6 -8 8 -4 9 13
5 13 -4 18 -8 10 -11z m537 -7 c29 -3 75 -14 102 -25 28 -11 60 -20 70 -20 35
0 21 -19 -17 -25 -21 -3 -51 -8 -67 -10 -29 -5 -86 6 -139 27 -25 10 -26 12
-10 23 15 11 15 13 -5 24 -13 7 -20 16 -16 22 4 7 10 6 18 -1 7 -5 36 -12 64
-15z m-1232 -1 c-3 -8 -2 -13 2 -10 4 2 16 -2 27 -10 20 -15 8 -19 -31 -8 -15
4 -20 11 -17 25 3 10 10 19 15 19 6 0 7 -7 4 -16z m324 1 c-7 -8 -17 -15 -23
-15 -6 0 -2 7 9 15 25 19 30 19 14 0z m60 5 c13 -8 13 -10 -2 -10 -9 0 -20 5
-23 10 -8 13 5 13 25 0z m-614 -47 c-14 -14 -23 4 -13 27 l10 25 5 -23 c2 -13
1 -26 -2 -29z m314 38 c0 -5 -7 -11 -15 -15 -15 -5 -20 5 -8 17 9 10 23 9 23
-2z m655 -1 c3 -6 -1 -7 -9 -4 -18 7 -21 14 -7 14 6 0 13 -4 16 -10z m315 0
c0 -5 -2 -10 -4 -10 -3 0 -8 5 -11 10 -3 6 -1 10 4 10 6 0 11 -4 11 -10z
m-400 -10 c0 -5 -4 -10 -10 -10 -5 0 -10 5 -10 10 0 6 5 10 10 10 6 0 10 -4
10 -10z m-429 -61 c34 -31 40 -42 29 -49 -8 -5 -17 -7 -21 -4 -4 2 -9 0 -11
-6 -2 -7 -13 -6 -30 2 -32 15 -36 28 -9 28 12 0 18 6 17 17 -3 20 -22 28 -31
13 -5 -8 -11 -8 -21 1 -12 10 -12 14 3 25 25 19 25 19 74 -27z m-231 27 c0 -3
-4 -8 -10 -11 -5 -3 -10 -1 -10 4 0 6 5 11 10 11 6 0 10 -2 10 -4z m110 0 c0
-3 -4 -8 -10 -11 -5 -3 -10 -1 -10 4 0 6 5 11 10 11 6 0 10 -2 10 -4z m-40
-27 c0 -11 -4 -17 -10 -14 -5 3 -10 13 -10 21 0 8 5 14 10 14 6 0 10 -9 10
-21z m570 -4 c0 -7 -6 -15 -13 -18 -10 -4 -13 2 -9 19 4 24 22 24 22 -1z
m-130 -31 c-18 -21 -24 -10 -8 15 7 12 14 17 16 11 2 -6 -2 -17 -8 -26z m573
-28 l22 -19 -25 6 -25 6 24 -18 c24 -18 24 -19 3 -30 -34 -18 -75 -3 -94 34
l-17 34 35 -5 c32 -4 34 -2 24 15 -17 33 -10 47 11 21 11 -14 30 -34 42 -44z
m-1056 22 c30 -28 31 -52 0 -45 -12 4 -28 2 -36 -2 -18 -11 -48 -3 -55 15 -3
9 2 18 12 21 9 4 23 13 30 20 18 17 22 17 49 -9z m283 12 c0 -5 -4 -10 -9 -10
-6 0 -13 5 -16 10 -3 6 1 10 9 10 9 0 16 -4 16 -10z m605 0 c-3 -5 -11 -10
-16 -10 -6 0 -7 5 -4 10 3 6 11 10 16 10 6 0 7 -4 4 -10z m653 -32 c3 -30 -1
-38 -20 -44 -13 -4 -31 -7 -41 -5 -12 2 -21 -5 -24 -18 -6 -23 -23 -29 -23 -8
0 18 83 118 95 114 6 -2 11 -20 13 -39z m-813 22 c3 -5 1 -10 -4 -10 -6 0 -11
5 -11 10 0 6 2 10 4 10 3 0 8 -4 11 -10z m-281 -26 c3 -9 -1 -14 -13 -14 -23
0 -31 8 -24 25 6 16 29 9 37 -11z m246 -9 c0 -8 -7 -15 -15 -15 -16 0 -20 12
-8 23 11 12 23 8 23 -8z m-540 -11 c0 -2 -14 -4 -31 -4 -16 0 -28 4 -25 9 5 8
56 3 56 -5z m-250 -15 c0 -5 -4 -9 -10 -9 -5 0 -10 7 -10 16 0 8 5 12 10 9 6
-3 10 -10 10 -16z m926 -5 c-4 -9 -9 -15 -11 -12 -3 3 -3 13 1 22 4 9 9 15 11
12 3 -3 3 -13 -1 -22z m-1196 -3 c0 -5 -6 -11 -13 -14 -8 -3 -22 -22 -31 -42
-10 -20 -19 -35 -21 -33 -8 8 21 78 32 78 7 0 13 5 13 10 0 6 5 10 10 10 6 0
10 -4 10 -9z m360 -11 c0 -5 -7 -10 -16 -10 -8 0 -12 5 -9 10 3 6 10 10 16 10
5 0 9 -4 9 -10z m1254 -16 c15 -14 16 -14 16 0 0 11 9 16 30 16 42 0 37 -14
-10 -30 -23 -8 -45 -21 -50 -29 -6 -10 -10 -11 -10 -3 0 19 -18 14 -25 -8 -8
-26 -19 -25 -45 2 -20 22 -20 23 -2 29 11 4 22 14 25 23 8 21 51 21 71 0z
m-474 2 c0 -2 -7 -6 -15 -10 -8 -3 -15 -1 -15 4 0 6 7 10 15 10 8 0 15 -2 15
-4z m799 -7 c17 -6 31 -15 31 -20 0 -5 12 -6 26 -3 18 5 25 3 21 -3 -4 -6 -1
-13 7 -16 22 -9 28 -59 13 -97 -16 -38 -20 -31 -32 53 -5 40 -9 47 -29 47 -31
0 -88 19 -106 36 -12 12 -11 14 11 14 14 0 40 -5 58 -11z m-1099 -9 c0 -5 -4
-10 -10 -10 -5 0 -10 5 -10 10 0 6 5 10 10 10 6 0 10 -4 10 -10z m-798 -50
c-30 -28 -35 -25 -16 11 11 23 19 28 27 20 8 -8 5 -16 -11 -31z m721 34 c7 -8
-13 -54 -25 -54 -9 0 -10 7 -2 38 6 22 15 27 27 16z m-419 -20 c11 -29 6 -44
-13 -44 -26 0 -31 10 -20 38 10 26 24 29 33 6z m636 2 c0 -10 -25 -13 -67 -8
-30 4 -10 17 27 18 24 1 40 -3 40 -10z m26 -23 c-11 -11 -17 4 -9 23 7 18 8
18 11 1 2 -10 1 -21 -2 -24z m141 21 c5 -16 -25 -13 -32 3 -3 10 1 13 12 11 9
-2 18 -8 20 -14z m268 6 c3 -5 1 -10 -4 -10 -6 0 -11 5 -11 10 0 6 2 10 4 10
3 0 8 -4 11 -10z m72 -9 c2 -10 16 -24 29 -30 14 -6 22 -15 19 -21 -6 -10 -45
9 -45 22 0 5 -6 8 -14 8 -18 0 -29 16 -21 30 10 16 26 12 32 -9z m-771 -7 c-4
-10 1 -22 10 -29 15 -11 14 -13 -9 -17 -21 -4 -27 -1 -27 13 0 25 11 49 22 49
6 0 7 -7 4 -16z m1404 -6 c0 -6 -6 -5 -15 2 -8 7 -15 14 -15 16 0 2 7 1 15 -2
8 -4 15 -11 15 -16z m-1440 -16 c0 -15 -2 -15 -10 -2 -13 20 -13 33 0 25 6 -3
10 -14 10 -23z m595 -28 c-12 -9 -13 -13 -3 -17 9 -4 7 -6 -4 -6 -11 -1 -15
-6 -12 -16 4 -8 1 -15 -5 -15 -6 0 -11 9 -11 20 0 12 -7 20 -17 20 -12 0 -7 7
15 20 17 11 32 28 33 37 0 13 3 11 10 -7 8 -19 6 -27 -6 -36z m109 35 c-3 -5
-10 -7 -15 -3 -5 3 -7 10 -3 15 3 5 10 7 15 3 5 -3 7 -10 3 -15z m-404 -10 c0
-4 -7 -6 -15 -3 -8 4 -15 10 -15 15 0 4 7 6 15 3 8 -4 15 -10 15 -15z m-810
-2 c8 -7 24 -23 35 -36 l20 -24 -23 6 c-13 3 -21 3 -18 0 3 -4 1 -12 -6 -20
-16 -20 -2 -28 28 -14 32 14 42 8 19 -10 -69 -59 -83 -64 -109 -40 -12 12 -28
21 -34 21 -7 0 -12 8 -12 17 0 13 -3 14 -11 6 -9 -9 -6 -19 10 -42 l21 -30
-32 10 c-18 5 -34 9 -35 9 -2 0 -3 7 -3 16 0 9 -8 23 -17 30 -17 13 -17 15 0
25 9 5 17 19 17 29 0 20 11 26 23 13 4 -3 2 -12 -4 -20 -9 -10 -8 -13 5 -13 9
0 19 7 22 15 4 8 11 15 16 15 6 0 19 11 30 25 22 28 36 31 58 12z m895 4 c3
-5 1 -12 -5 -16 -5 -3 -10 1 -10 9 0 18 6 21 15 7z m878 -8 c8 -14 -12 -54
-24 -47 -8 5 -7 9 2 14 10 7 10 11 0 24 -11 13 -11 16 2 16 9 0 18 -3 20 -7z
m217 -35 c0 -38 -5 -34 -13 10 -4 21 -3 31 3 27 6 -3 10 -20 10 -37z m-1660
22 c0 -5 -4 -10 -10 -10 -5 0 -10 5 -10 10 0 6 5 10 10 10 6 0 10 -4 10 -10z
m870 -24 c0 -3 -6 -6 -14 -6 -15 0 -28 24 -19 34 6 5 33 -18 33 -28z m370 24
c13 -9 13 -11 1 -19 -8 -5 -20 -7 -28 -4 -8 3 -12 0 -9 -8 18 -56 16 -67 -12
-77 -45 -18 -82 -11 -89 17 -4 15 -2 26 5 29 7 2 12 10 12 19 0 17 27 46 37
40 5 -3 17 -1 28 4 27 11 37 10 55 -1z m-635 -10 c3 -5 2 -10 -4 -10 -5 0 -13
5 -16 10 -3 6 -2 10 4 10 5 0 13 -4 16 -10z m305 -11 c0 -6 -4 -7 -10 -4 -5 3
-10 11 -10 16 0 6 5 7 10 4 6 -3 10 -11 10 -16z m-1450 2 c0 -11 -31 -24 -39
-16 -3 3 1 10 9 15 19 12 30 12 30 1z m460 0 c0 -12 -20 -25 -27 -18 -7 7 6
27 18 27 5 0 9 -4 9 -9z m117 -17 c-9 -9 -28 6 -21 18 4 6 10 6 17 -1 6 -6 8
-13 4 -17z m788 -4 c-3 -5 -11 -10 -16 -10 -6 0 -7 5 -4 10 3 6 11 10 16 10 6
0 7 -4 4 -10z m-1390 -30 c3 -5 1 -10 -4 -10 -6 0 -11 5 -11 10 0 6 2 10 4 10
3 0 8 -4 11 -10z m40 0 c3 -5 1 -10 -4 -10 -6 0 -11 5 -11 10 0 6 2 10 4 10 3
0 8 -4 11 -10z m865 0 c8 -5 12 -12 9 -15 -8 -8 -39 5 -39 16 0 11 11 11 30
-1z m1070 0 c0 -5 -9 -10 -21 -10 -11 0 -17 5 -14 10 3 6 13 10 21 10 8 0 14
-4 14 -10z m-730 -14 c0 -3 -4 -8 -10 -11 -5 -3 -10 -1 -10 4 0 6 5 11 10 11
6 0 10 -2 10 -4z m-236 -19 c11 -8 17 -20 14 -27 -3 -9 -13 -5 -33 13 -32 28
-15 39 19 14z m-934 -1 c0 -3 -4 -8 -10 -11 -5 -3 -10 -1 -10 4 0 6 5 11 10
11 6 0 10 -2 10 -4z m-58 -55 c-3 -9 -12 -27 -20 -39 l-15 -24 -13 24 c-17 29
-17 38 -1 38 7 0 18 10 26 21 10 17 15 19 21 9 5 -7 6 -20 2 -29z m618 13 c0
-8 -5 -12 -10 -9 -6 4 -8 11 -5 16 9 14 15 11 15 -7z m263 -5 c13 -18 13 -23
-9 -46 -22 -23 -44 -24 -44 -2 0 6 4 8 8 5 4 -2 14 0 22 5 9 6 11 12 5 15 -5
3 -28 13 -50 23 l-40 19 47 1 c37 1 50 -4 61 -20z m787 0 c0 -6 -4 -7 -10 -4
-5 3 -10 11 -10 16 0 6 5 7 10 4 6 -3 10 -11 10 -16z m275 12 c3 -5 1 -12 -5
-16 -5 -3 -10 1 -10 9 0 18 6 21 15 7z m121 -15 c-4 -17 -1 -26 10 -30 13 -5
14 -9 5 -20 -12 -15 -73 -12 -121 6 -24 9 -24 10 -6 24 11 8 30 14 43 14 12 0
28 7 35 15 21 24 41 19 34 -9z m-1304 -18 c7 -21 5 -31 -11 -47 -11 -11 -23
-16 -26 -11 -4 6 -17 10 -31 10 -13 0 -24 5 -24 10 0 6 4 10 8 10 4 0 13 14
19 31 15 39 52 38 65 -3z m563 13 c3 -5 1 -12 -5 -16 -5 -3 -10 1 -10 9 0 18
6 21 15 7z m540 -32 c0 -26 -3 -29 -22 -24 -22 5 -28 -2 -24 -32 1 -6 -3 -14
-8 -17 -5 -3 3 -19 19 -36 25 -27 75 -137 99 -220 5 -19 20 -69 32 -110 12
-41 24 -91 27 -110 2 -19 12 -40 21 -47 15 -11 15 -12 -1 -18 -11 -4 -37 10
-80 44 -86 68 -136 121 -114 121 9 0 16 5 16 10 0 6 -6 10 -13 10 -19 0 -58
82 -64 135 -2 17 -8 32 -13 33 -7 3 -6 10 2 20 7 8 12 17 11 19 -11 14 0 46
17 50 16 4 18 8 9 19 -6 8 -19 14 -29 14 -11 0 -17 7 -16 18 0 9 -5 16 -12 14
-10 -2 -10 2 -2 18 9 16 7 24 -10 42 -27 29 -27 62 0 55 10 -3 21 0 24 7 3 6
5 4 4 -4 -3 -30 22 -72 40 -68 9 2 16 10 15 16 -2 7 1 12 6 12 5 0 12 13 16
29 4 20 11 28 21 24 8 -3 14 1 14 8 0 7 3 9 8 5 4 -4 7 -21 7 -37z m-1518 -13
c-7 -17 -37 -22 -37 -6 0 6 5 10 10 10 6 0 10 8 10 17 0 13 3 14 11 6 7 -7 9
-19 6 -27z m1898 25 c3 -5 1 -12 -5 -16 -5 -3 -10 1 -10 9 0 18 6 21 15 7z
m-1840 -11 c17 -7 15 -9 -12 -9 -18 -1 -33 4 -33 9 0 12 17 12 45 0z m253 -16
c3 -15 1 -16 -8 -7 -7 6 -19 9 -26 6 -8 -3 -14 -1 -14 5 0 12 20 22 35 18 6
-2 12 -11 13 -22z m611 -78 c15 -16 19 -26 11 -31 -6 -4 -20 3 -31 16 -36 41
-18 55 20 15z m-1319 -25 c0 -5 -6 -14 -14 -20 -10 -9 -15 -8 -19 3 -3 8 -1
17 6 20 19 7 27 7 27 -3z m1316 -66 c2 -27 -10 -34 -19 -11 -4 10 9 36 18 36
0 0 1 -11 1 -25z m170 -32 c-8 -9 -46 18 -40 28 4 6 13 4 25 -7 11 -9 17 -19
15 -21z m-243 13 c4 -10 1 -13 -8 -9 -8 3 -12 9 -9 14 7 12 11 11 17 -5z m51
-30 c7 3 21 -4 31 -16 13 -14 14 -20 5 -20 -10 0 -11 -3 -3 -11 18 -18 5 -37
-33 -49 -33 -11 -46 -29 -21 -31 6 0 3 -4 -8 -9 -11 -5 -15 -9 -9 -9 7 -1 14
-7 17 -15 4 -9 0 -12 -13 -9 -12 3 -23 -3 -32 -16 -14 -23 -48 -29 -48 -8 0 8
3 16 6 19 3 3 7 35 8 71 3 61 23 107 40 90 3 -4 6 -1 6 5 0 12 33 22 38 10 2
-4 9 -5 16 -2z m83 -32 c-3 -3 -12 -4 -19 -1 -8 3 -5 6 6 6 11 1 17 -2 13 -5z
m-1082 -396 c7 -7 2 -8 -15 -3 -25 8 -70 34 -70 41 0 7 74 -26 85 -38z"/>
<path d="M5055 5460 c3 -5 8 -10 11 -10 2 0 4 5 4 10 0 6 -5 10 -11 10 -5 0
-7 -4 -4 -10z"/>
<path d="M5060 5419 c0 -5 5 -7 10 -4 6 3 10 8 10 11 0 2 -4 4 -10 4 -5 0 -10
-5 -10 -11z"/>
<path d="M4280 6570 c-13 -8 -12 -10 3 -10 9 0 17 5 17 10 0 12 -1 12 -20 0z"/>
<path d="M14420 6540 c14 -11 30 -20 35 -20 6 0 -1 9 -15 20 -14 11 -29 20
-35 20 -5 0 1 -9 15 -20z"/>
<path d="M14790 6455 c0 -19 5 -35 10 -35 6 0 10 7 10 15 0 9 6 12 16 8 14 -5
14 -3 3 15 -23 37 -39 35 -39 -3z"/>
<path d="M8340 6430 c11 -28 20 -53 20 -56 0 -3 4 -2 10 1 9 6 -34 105 -45
105 -3 0 4 -23 15 -50z"/>
<path d="M7825 6373 c11 -3 32 -16 46 -30 19 -17 29 -21 34 -13 12 19 -31 50
-67 49 -21 -1 -26 -3 -13 -6z"/>
<path d="M5360 6339 c0 -5 5 -7 10 -4 6 3 10 8 10 11 0 2 -4 4 -10 4 -5 0 -10
-5 -10 -11z"/>
<path d="M11259 6336 c-36 -13 -109 -54 -109 -62 0 -2 24 6 53 17 28 12 63 24
76 28 14 4 26 12 29 19 5 15 -3 15 -49 -2z"/>
<path d="M8152 6306 c20 -18 33 -22 55 -17 26 6 26 6 -10 9 -22 2 -41 10 -44
18 -3 8 -10 14 -17 14 -6 0 1 -11 16 -24z"/>
<path d="M11620 6327 c0 -3 20 -15 44 -26 25 -10 72 -38 107 -62 39 -26 60
-36 56 -25 -6 14 -3 15 13 6 11 -6 20 -18 20 -28 0 -9 9 -28 19 -41 l19 -25
-5 27 c-12 64 -137 158 -231 173 -23 4 -42 4 -42 1z"/>
<path d="M14550 6313 c0 -29 14 -43 30 -33 11 7 12 14 4 27 -15 24 -34 28 -34
6z"/>
<path d="M7916 6295 c-11 -8 -17 -17 -14 -21 8 -8 48 14 48 26 0 14 -12 12
-34 -5z"/>
<path d="M8450 6289 c0 -13 70 -43 79 -33 3 4 0 9 -7 11 -7 3 -19 11 -26 19
-17 16 -46 19 -46 3z"/>
<path d="M14466 6260 c-24 -29 -35 -70 -19 -70 4 0 22 10 40 23 25 16 33 28
31 46 -4 36 -22 36 -52 1z"/>
<path d="M14720 6255 c0 -2 9 -19 20 -37 11 -18 20 -41 20 -52 0 -14 -7 -10
-29 17 l-28 36 -70 -87 c-38 -48 -87 -113 -108 -144 -24 -35 -52 -62 -70 -69
-28 -11 -73 -75 -60 -87 3 -3 5 0 5 6 0 7 4 12 10 12 5 0 7 -7 4 -15 -9 -22
-23 -18 -33 7 -7 21 -8 20 -24 -11 -9 -17 -14 -38 -11 -46 7 -16 -51 -70 -75
-70 -29 -1 -71 -34 -71 -55 0 -11 -5 -29 -12 -39 -9 -16 -16 -17 -31 -9 -14 7
-17 7 -13 -1 10 -15 -1 -14 -28 4 -13 9 -29 29 -36 45 -8 18 -20 30 -31 30
-11 0 -19 5 -19 10 0 6 7 10 15 10 8 0 15 5 15 10 0 6 10 14 23 19 27 11 42
-10 27 -38 -17 -33 -12 -61 10 -61 18 0 19 3 10 20 -14 26 -6 40 20 33 11 -3
20 0 20 5 0 6 11 21 25 34 17 16 22 27 15 38 -7 12 -12 12 -29 -4 -11 -10 -25
-16 -33 -14 -8 2 3 19 30 44 26 26 42 36 42 27 0 -13 3 -13 15 -3 8 7 12 16 9
21 -3 5 13 9 35 9 31 0 44 6 62 28 19 24 21 25 15 5 -6 -18 -4 -22 8 -17 9 3
16 12 16 19 0 6 9 20 21 31 12 10 27 31 35 45 7 15 38 60 69 100 30 41 55 80
55 87 0 7 7 24 16 37 15 23 14 23 -43 -8 -32 -17 -64 -37 -71 -44 -18 -17 -31
-16 -38 2 -4 8 -10 12 -15 9 -5 -3 -9 0 -9 6 0 7 -7 5 -16 -4 -8 -9 -21 -16
-28 -16 -7 0 -21 -9 -31 -20 -10 -11 -37 -31 -61 -45 -24 -14 -47 -31 -51 -38
-4 -7 -27 -24 -49 -39 -23 -15 -66 -52 -95 -83 -29 -31 -66 -62 -83 -70 -17
-9 -37 -27 -43 -42 -11 -24 -10 -30 9 -50 12 -13 25 -23 30 -23 14 0 9 28 -7
34 -8 3 -15 13 -15 23 1 14 6 12 25 -12 16 -19 21 -33 15 -39 -6 -6 -10 -20
-10 -33 0 -14 -16 -38 -39 -61 -44 -43 -58 -76 -41 -97 7 -8 10 -22 6 -30 -4
-12 4 -15 43 -15 29 0 53 -6 60 -14 6 -7 39 -30 73 -51 68 -43 184 -68 293
-65 34 0 74 -4 90 -10 17 -7 82 -13 145 -15 126 -3 190 12 190 44 0 30 87 44
157 26 76 -20 86 -19 78 5 -4 11 -2 20 4 20 6 0 11 -4 11 -10 0 -13 86 -13
111 0 23 13 25 45 4 54 -11 4 -15 22 -15 71 0 39 -4 64 -9 60 -6 -3 -10 -13
-10 -23 -1 -48 -9 -109 -16 -126 -8 -19 -9 -19 -16 0 -7 18 -8 18 -8 1 -1 -16
-7 -18 -43 -12 -56 9 -90 44 -81 85 3 18 1 30 -5 30 -12 0 -35 62 -37 103 -1
18 5 31 16 37 24 13 40 67 33 107 -5 27 -10 32 -25 28 -22 -7 -36 16 -45 76
-3 24 -13 63 -21 87 -9 23 -13 45 -10 49 4 3 11 -7 17 -22 6 -15 13 -25 16
-23 7 8 -35 111 -49 120 -7 4 -12 12 -12 17 0 5 -10 19 -23 31 -12 12 -20 25
-17 30 5 7 -23 25 -36 22 -4 -1 -15 8 -24 18 -17 19 -35 26 -35 15z m-81 -228
c6 -8 14 -29 17 -48 4 -19 18 -46 32 -62 20 -21 26 -38 26 -75 1 -39 -2 -47
-16 -44 -10 1 -23 -6 -30 -18 -7 -11 -21 -20 -31 -20 -9 0 -22 -11 -27 -25
-10 -26 -40 -25 -40 1 0 8 -4 14 -10 14 -5 0 -10 -5 -10 -12 0 -6 -3 -9 -6 -5
-9 9 6 48 17 42 12 -8 26 29 34 89 5 36 9 46 16 35 7 -9 8 -3 3 21 -8 35 -8
43 -2 92 3 31 10 35 27 15z m-183 -206 c-15 -28 -28 -51 -30 -51 -8 0 19 76
33 92 25 29 24 12 -3 -41z m324 -26 c0 -9 -6 -12 -16 -8 -13 5 -13 7 -2 14 17
11 18 11 18 -6z m-385 -4 c3 -5 1 -12 -5 -16 -5 -3 -10 1 -10 9 0 18 6 21 15
7z m18 -51 c-3 -12 -8 -19 -11 -16 -5 6 5 36 12 36 2 0 2 -9 -1 -20z m327 -10
c0 -10 7 -30 14 -46 15 -27 13 -44 -4 -44 -5 0 -7 7 -4 15 4 10 0 15 -11 15
-11 0 -15 -5 -11 -15 3 -9 0 -15 -9 -15 -8 0 -16 -4 -16 -10 -3 -19 -5 -25
-15 -43 -8 -15 -13 -15 -37 -5 -25 12 -32 36 -8 31 6 -2 11 4 11 12 0 25 -21
17 -60 -25 -21 -22 -45 -40 -54 -40 -9 0 -16 -6 -16 -13 0 -7 -10 -18 -22 -26
-19 -12 -20 -14 -5 -23 9 -5 17 -14 17 -21 0 -7 -4 -6 -10 3 -8 12 -10 11 -10
-7 0 -13 -5 -23 -10 -23 -6 0 -10 12 -9 28 1 15 -2 35 -6 45 -4 9 -3 17 3 17
5 0 12 7 16 15 4 10 -1 14 -16 12 -16 -1 -25 6 -32 26 -12 33 2 47 47 47 16 0
26 4 23 9 -3 5 5 16 19 25 31 21 35 20 35 -4 0 -14 7 -20 23 -20 18 0 19 2 7
11 -12 8 -12 12 -2 16 7 3 25 16 39 29 14 13 32 24 39 24 8 0 14 4 14 9 0 5
14 9 30 9 21 -1 30 -6 30 -18z m-220 -35 c-7 -9 -15 -13 -19 -10 -3 3 1 10 9
15 21 14 24 12 10 -5z m-490 -36 c0 -6 -4 -7 -10 -4 -5 3 -10 11 -10 16 0 6 5
7 10 4 6 -3 10 -11 10 -16z m740 -53 c0 -3 -4 -8 -10 -11 -5 -3 -10 -1 -10 4
0 6 5 11 10 11 6 0 10 -2 10 -4z m-80 -56 c0 -5 -4 -10 -10 -10 -5 0 -10 5
-10 10 0 6 5 10 10 10 6 0 10 -4 10 -10z m54 -6 c3 -8 2 -12 -4 -9 -6 3 -10 0
-10 -8 0 -24 -36 -49 -60 -42 -27 8 -21 30 9 31 12 1 29 11 37 23 18 25 20 26
28 5z m81 -68 c6 -18 6 -33 -1 -44 -16 -25 -78 -65 -82 -53 -2 6 -10 11 -17
11 -24 0 -28 21 -6 36 12 8 21 22 21 29 0 8 11 17 25 21 14 3 25 13 25 21 0
23 24 9 35 -21z m-283 -26 c3 -27 -17 -36 -42 -20 -12 7 -12 12 -2 22 10 10
15 10 23 -2 7 -11 8 -6 3 15 -5 22 -3 27 4 20 6 -6 13 -21 14 -35z m167 11 c3
-1 -4 -7 -14 -15 -17 -12 -18 -17 -7 -40 16 -37 16 -38 -15 -34 -19 2 -27 8
-24 18 2 8 3 26 3 40 0 34 5 40 31 36 12 -3 24 -5 26 -5z"/>
<path d="M14640 5850 c0 -5 5 -10 10 -10 6 0 10 5 10 10 0 6 -4 10 -10 10 -5
0 -10 -4 -10 -10z"/>
<path d="M14631 5681 c-7 -5 -12 -14 -9 -21 2 -7 10 -4 22 9 19 21 12 28 -13
12z"/>
<path d="M11458 6216 c-21 -22 -27 -23 -83 -16 -208 30 -231 32 -257 21 -16
-6 -28 -15 -28 -21 0 -5 -7 -10 -15 -10 -16 0 -55 -70 -54 -97 0 -10 5 -4 10
13 12 43 40 65 91 71 l43 5 -25 -21 c-14 -11 -25 -25 -25 -31 0 -6 -11 -20
-25 -30 -24 -18 -25 -22 -25 -144 l1 -126 34 -35 c18 -19 36 -33 38 -30 3 2
-3 22 -11 44 -9 22 -21 69 -27 105 -13 84 -1 142 38 177 29 26 30 26 167 23
156 -4 160 -6 197 -83 19 -38 22 -63 23 -147 0 -70 -4 -106 -13 -117 -8 -10
-11 -27 -8 -44 3 -15 2 -34 -3 -42 -8 -12 -13 -12 -37 4 -27 17 -27 17 -45 -6
-10 -13 -21 -31 -24 -40 -5 -14 -17 -15 -75 -11 l-70 5 0 -36 c0 -38 -36 -91
-69 -102 -11 -3 -21 -15 -24 -27 -5 -19 -11 -20 -96 -16 -52 2 -96 9 -103 16
-7 7 -37 12 -67 12 -52 0 -58 3 -84 35 -16 21 -25 40 -21 47 5 7 7 24 6 39 -1
17 4 29 14 33 13 5 15 15 10 45 -5 30 -2 42 14 56 11 10 20 27 20 38 0 18 -5
19 -62 14 -52 -5 -118 -22 -137 -34 -3 -2 4 -10 15 -18 18 -13 16 -14 -21 -15
-22 0 -47 -5 -55 -10 -8 -5 -11 -10 -6 -10 6 0 3 -6 -6 -12 -9 -7 -18 -25 -22
-40 -3 -14 -9 -33 -12 -41 -3 -10 1 -17 13 -20 16 -4 16 -6 -4 -12 -42 -14
-41 -95 3 -193 28 -62 28 -62 10 -76 -8 -6 -17 -21 -21 -33 -6 -21 -3 -23 29
-23 40 0 48 -16 44 -85 -3 -39 -2 -40 32 -44 43 -4 96 -60 85 -89 -7 -16 -8
-16 -14 1 -7 18 -8 18 -31 -2 -21 -17 -22 -20 -7 -21 11 0 17 -6 15 -17 -4
-25 72 -30 128 -8 41 15 46 15 126 -9 46 -14 112 -28 148 -32 36 -4 82 -13
104 -20 52 -19 111 -18 130 2 9 8 39 19 68 24 44 7 58 5 84 -11 34 -21 122
-26 153 -9 28 15 33 38 12 59 -19 19 -19 20 32 45 29 14 70 43 92 64 39 39 41
40 97 34 66 -5 114 10 124 40 8 27 -6 39 -55 45 -31 4 -41 2 -41 -8 0 -7 -7
-3 -16 9 -19 28 -14 77 21 199 24 85 22 136 -7 155 -10 6 -10 8 0 8 21 0 13
32 -15 56 -16 13 -31 24 -36 24 -10 0 -67 52 -67 61 0 14 33 -3 78 -40 57 -48
106 -121 133 -200 19 -56 20 -70 10 -114 -6 -27 -9 -53 -5 -58 12 -19 75 -9
100 16 25 25 25 45 -1 45 -27 0 -82 87 -99 156 -23 92 -34 110 -115 187 -39
37 -71 74 -71 82 0 18 12 19 28 3 9 -9 12 -6 12 15 0 28 -14 37 -23 15 -9 -22
-7 24 3 109 14 109 1 143 -67 175 -45 20 -58 31 -65 51 -3 7 -139 58 -190 71
-21 5 -32 1 -50 -18z m-284 -2 c18 -7 22 -34 5 -34 -5 0 -7 5 -4 10 4 6 -6 10
-22 10 -22 0 -25 2 -13 10 18 12 15 11 34 4z m62 -53 c-3 -5 -23 -11 -43 -13
-21 -3 -47 -8 -58 -13 l-20 -7 20 15 c31 23 113 38 101 18z m364 -41 c0 -5 -4
-10 -10 -10 -5 0 -10 5 -10 10 0 6 5 10 10 10 6 0 10 -4 10 -10z m118 -55 c47
-40 66 -101 59 -191 -4 -41 -12 -85 -18 -97 -7 -11 -12 -30 -13 -42 -1 -14
-12 -23 -36 -31 -19 -6 -39 -21 -45 -33 -11 -24 -25 -28 -25 -6 0 8 5 15 10
15 6 0 3 15 -7 33 -15 27 -17 58 -15 217 1 102 1 186 2 188 0 6 60 -29 88 -53z
m-128 -486 c0 -6 -4 -7 -10 -4 -5 3 -10 11 -10 16 0 6 5 7 10 4 6 -3 10 -11
10 -16z m-840 -159 c0 -5 -5 -10 -11 -10 -5 0 -7 5 -4 10 3 6 8 10 11 10 2 0
4 -4 4 -10z m865 -10 c3 -5 1 -10 -4 -10 -6 0 -11 5 -11 10 0 6 2 10 4 10 3 0
8 -4 11 -10z m-660 -10 c-3 -5 -10 -10 -16 -10 -5 0 -9 5 -9 10 0 6 7 10 16
10 8 0 12 -4 9 -10z m330 -30 c3 -5 1 -10 -4 -10 -6 0 -11 5 -11 10 0 6 2 10
4 10 3 0 8 -4 11 -10z"/>
<path d="M3165 6079 c-42 -40 -86 -86 -98 -103 -12 -17 19 11 68 61 50 50 97
93 105 96 8 2 12 7 8 11 -3 4 -41 -25 -83 -65z"/>
<path d="M15175 6082 c-6 -4 -19 -27 -30 -51 -15 -33 -16 -46 -7 -49 17 -5 15
-22 -3 -22 -8 0 -15 5 -15 11 0 5 -4 7 -10 4 -5 -3 -16 -3 -22 2 -7 4 -22 9
-33 10 -22 4 -37 23 -30 41 2 6 0 12 -5 12 -11 0 -12 -131 -1 -169 6 -21 8
-22 20 -7 25 29 53 20 114 -38 14 -13 22 -16 25 -8 2 8 17 10 43 6 38 -6 39
-6 39 23 0 16 -5 34 -12 41 -9 9 -9 12 0 12 6 0 15 -15 20 -32 7 -28 13 -33
43 -35 30 -2 32 -1 16 11 -25 19 -12 50 15 35 14 -8 23 -8 31 0 6 6 7 11 3 11
-5 0 -3 7 4 15 10 12 9 16 -4 21 -9 3 -16 13 -16 22 0 13 -3 13 -12 4 -10 -10
-15 -6 -24 20 -7 21 -19 35 -35 39 l-24 6 28 8 c16 4 25 12 22 19 -3 6 -8 19
-11 29 -7 18 -24 24 -24 7 0 -5 -9 -10 -20 -10 -24 0 -27 -15 -5 -24 9 -3 15
-11 14 -18 -1 -7 0 -20 4 -28 3 -8 8 -26 10 -38 5 -21 3 -23 -18 -18 -16 4
-25 1 -29 -11 -6 -15 -8 -15 -16 -3 -5 8 -7 24 -4 35 4 16 3 17 -5 5 -10 -13
-12 -13 -21 0 -7 11 -4 17 10 24 26 12 26 30 0 23 -23 -6 -27 11 -5 19 8 4 15
17 15 30 0 24 -15 31 -35 16z m-85 -126 c0 -8 3 -21 6 -30 4 -10 1 -16 -9 -16
-21 0 -27 12 -20 38 6 24 23 30 23 8z m-32 -54 c2 -7 -3 -12 -12 -12 -9 0 -16
7 -16 16 0 17 22 14 28 -4z"/>
<path d="M8658 6028 c-5 -14 19 -87 33 -104 7 -9 -1 -14 -30 -19 -42 -7 -62
-33 -37 -47 8 -5 22 -15 31 -24 13 -14 15 -14 17 3 0 10 1 23 1 30 -1 13 32
27 44 20 22 -14 0 -105 -28 -115 -17 -7 -16 -11 16 -56 50 -71 47 -95 -15
-124 -28 -12 -50 -27 -50 -33 0 -11 -28 -51 -97 -137 -61 -77 -56 -92 16 -42
32 22 71 54 86 70 16 17 39 30 52 30 26 0 56 -40 48 -62 -8 -20 13 -28 42 -17
16 6 21 13 16 25 -5 12 0 15 20 12 18 -2 34 6 56 29 25 27 31 41 31 78 0 28 4
44 10 40 13 -8 13 15 0 35 -9 13 -11 13 -20 0 -5 -8 -10 -20 -10 -27 0 -7 -7
-10 -16 -6 -9 3 -13 12 -8 22 29 68 32 86 18 102 -8 8 -14 28 -14 42 0 40 -60
140 -130 218 -62 70 -75 79 -82 57z m119 -260 c-3 -8 -6 -5 -6 6 -1 11 2 17 5
13 3 -3 4 -12 1 -19z"/>
<path d="M7899 6006 c-3 -3 -77 -6 -165 -8 l-161 -3 17 -30 c17 -30 92 -83
121 -84 8 -1 26 10 39 24 13 14 20 25 16 25 -5 0 -3 7 4 15 7 8 31 16 54 16
62 2 101 13 101 28 0 15 -17 25 -26 17z"/>
<path d="M8012 5999 c3 -8 16 -14 29 -15 14 0 29 -3 34 -6 6 -3 53 -11 105
-18 52 -6 106 -16 119 -21 16 -7 28 -6 37 2 25 21 15 29 -33 28 -41 -2 -153
14 -267 37 -21 5 -27 3 -24 -7z"/>
<path d="M11021 5989 c0 -13 4 -33 9 -44 7 -14 8 -8 3 20 -7 46 -13 59 -12 24z"/>
<path d="M14936 5926 c3 -22 13 -49 21 -60 15 -20 15 -20 9 8 -4 16 -14 43
-22 60 l-14 31 6 -39z"/>
<path d="M11037 5894 c-3 -16 -1 -33 3 -38 14 -14 22 17 12 44 -9 24 -9 24
-15 -6z"/>
<path d="M14335 5850 c-3 -5 -1 -10 4 -10 6 0 11 5 11 10 0 6 -2 10 -4 10 -3
0 -8 -4 -11 -10z"/>
<path d="M7601 5817 c-9 -24 7 -73 20 -60 4 5 10 22 13 39 9 39 -20 57 -33 21z"/>
<path d="M14247 5806 c-18 -14 -24 -56 -7 -56 6 0 10 8 10 18 0 10 5 23 12 30
17 17 6 23 -15 8z"/>
<path d="M15073 5783 c-7 -2 -13 -9 -13 -15 0 -6 7 -8 15 -4 8 3 28 -6 44 -19
34 -29 41 -31 41 -10 0 9 -11 20 -25 25 -14 5 -25 14 -25 20 0 10 -16 12 -37
3z"/>
<path d="M15225 5761 c-3 -5 -1 -12 5 -16 12 -7 30 2 30 16 0 12 -27 12 -35 0z"/>
<path d="M15028 5737 c-7 -35 9 -74 24 -59 7 7 22 12 34 12 19 0 21 3 15 28
-5 16 -14 26 -24 26 -10 -1 -17 2 -17 7 0 20 -28 7 -32 -14z"/>
<path d="M7602 5668 c-7 -37 -15 -74 -18 -83 -4 -10 0 -15 14 -15 25 0 44 23
36 44 -3 9 -9 40 -13 69 l-6 52 -13 -67z"/>
<path d="M6660 5689 c-22 -9 -23 -12 -9 -22 15 -11 19 -18 19 -33 0 -4 7 -1
15 6 12 10 18 10 30 0 12 -10 19 -10 27 -2 16 16 122 16 112 1 -4 -7 1 -10 11
-7 37 7 24 26 -31 46 -59 23 -132 27 -174 11z"/>
<path d="M15170 5698 c0 -4 5 -19 11 -35 15 -37 19 -86 8 -99 -9 -11 -1 -54
11 -54 3 0 11 29 16 64 9 61 9 65 -18 97 -15 18 -28 30 -28 27z"/>
<path d="M14165 5660 c-3 -5 -1 -10 4 -10 6 0 11 5 11 10 0 6 -2 10 -4 10 -3
0 -8 -4 -11 -10z"/>
<path d="M15080 5660 c0 -5 5 -10 10 -10 6 0 10 5 10 10 0 6 -4 10 -10 10 -5
0 -10 -4 -10 -10z"/>
<path d="M15100 5620 c0 -5 7 -10 16 -10 8 0 12 5 9 10 -3 6 -10 10 -16 10 -5
0 -9 -4 -9 -10z"/>
<path d="M6753 5574 c-9 -25 14 -64 39 -64 27 0 88 35 88 50 0 5 -11 10 -24
10 -14 0 -28 5 -31 10 -10 16 -65 12 -72 -6z"/>
<path d="M15005 5540 c-8 -13 13 -40 30 -40 18 0 26 25 12 39 -14 14 -34 14
-42 1z"/>
<path d="M6888 5519 c-10 -5 -18 -19 -18 -30 0 -15 -5 -19 -19 -14 -27 8 -51
-20 -51 -61 0 -62 57 -59 108 6 28 34 32 44 24 72 -9 36 -19 42 -44 27z"/>
<path d="M11055 5470 c-17 -7 -15 -9 12 -9 17 -1 35 4 38 9 7 12 -22 12 -50 0z"/>
<path d="M3020 5435 c0 -22 105 -145 124 -145 6 0 -10 21 -35 48 -25 26 -55
60 -67 76 -12 16 -22 25 -22 21z"/>
<path d="M8831 5394 c0 -11 3 -14 6 -6 3 7 2 16 -1 19 -3 4 -6 -2 -5 -13z"/>
<path d="M6580 5336 c0 -14 50 -109 78 -146 133 -175 453 -349 743 -404 46 -8
111 -20 143 -26 65 -11 361 -12 441 -2 28 4 -53 7 -180 7 -200 0 -245 3 -345
23 -168 34 -318 85 -449 154 -200 105 -331 218 -398 343 -18 33 -33 56 -33 51z"/>
<path d="M8531 5306 c-8 -9 -8 -21 -1 -40 11 -31 21 -32 43 -8 22 24 21 39 -2
52 -25 13 -26 13 -40 -4z"/>
<path d="M7114 5279 c-3 -6 -17 -9 -31 -6 -19 3 -27 -1 -34 -20 -13 -35 -12
-36 25 -30 43 7 136 47 136 58 0 13 -88 11 -96 -2z"/>
<path d="M8375 5244 c-21 -19 -44 -34 -51 -34 -8 0 -14 -3 -14 -8 0 -13 -76
-41 -131 -48 -39 -5 -66 -16 -94 -38 -58 -46 -86 -62 -136 -80 l-44 -15 46 -1
c45 0 133 27 226 70 24 11 47 20 53 20 5 0 10 4 10 8 0 5 17 16 38 26 52 25
181 109 186 122 2 6 -8 11 -24 12 -18 0 -40 -11 -65 -34z"/>
<path d="M8470 5205 c-15 -18 -6 -61 16 -69 42 -16 73 42 37 70 -23 18 -38 17
-53 -1z"/>
<path d="M8580 5160 c-9 -6 -10 -10 -3 -10 6 0 15 5 18 10 8 12 4 12 -15 0z"/>
<path d="M7770 5060 c0 -5 5 -10 10 -10 6 0 10 5 10 10 0 6 -4 10 -10 10 -5 0
-10 -4 -10 -10z"/>
<path d="M11902 5016 c-27 -25 -34 -38 -26 -46 14 -14 146 -9 151 6 6 18 -46
74 -68 74 -11 0 -36 -15 -57 -34z"/>
<path d="M10495 5010 c-24 -27 -13 -50 25 -50 35 0 47 19 30 49 -14 26 -32 27
-55 1z"/>
<path d="M8140 5004 c-36 -8 -85 -16 -110 -19 -60 -8 -64 -15 -7 -15 48 0 165
22 207 39 l25 10 -25 -1 c-14 0 -54 -6 -90 -14z"/>
<path d="M11730 4965 c0 -20 38 -57 53 -52 7 2 13 13 15 25 3 16 -4 25 -23 32
-36 14 -45 13 -45 -5z"/>
<path d="M8188 4793 c7 -3 16 -2 19 1 4 3 -2 6 -13 5 -11 0 -14 -3 -6 -6z"/>
<path d="M8128 4783 c7 -3 16 -2 19 1 4 3 -2 6 -13 5 -11 0 -14 -3 -6 -6z"/>
<path d="M8078 4773 c7 -3 16 -2 19 1 4 3 -2 6 -13 5 -11 0 -14 -3 -6 -6z"/>
<path d="M3662 4288 c-7 -7 -12 -24 -12 -39 0 -18 -6 -29 -17 -32 -17 -4 -17
-5 -1 -6 14 -1 18 -14 21 -73 l3 -73 2 72 c2 66 4 72 25 76 l22 4 -22 2 c-19
1 -23 7 -23 31 0 22 6 33 23 40 13 5 16 9 7 9 -9 1 -21 -4 -28 -11z"/>
<path d="M6734 4185 c0 -66 1 -95 3 -65 3 32 11 63 21 75 16 18 16 19 0 7 -15
-12 -17 -8 -21 45 -2 32 -3 4 -3 -62z"/>
<path d="M7094 4185 c-1 -66 1 -103 3 -81 l4 39 42 -39 42 -39 -38 40 -37 41
35 34 c19 18 33 36 30 38 -2 2 -19 -13 -37 -34 l-33 -38 -6 80 c-5 70 -5 65
-5 -41z"/>
<path d="M13821 4185 c0 -66 3 -115 7 -108 5 8 13 9 22 3 43 -27 90 9 90 68 0
42 -23 72 -56 72 -13 -1 -9 -5 14 -15 28 -12 32 -19 32 -53 0 -52 -29 -80 -68
-66 -27 9 -27 11 -29 104 -4 138 -11 135 -12 -5z"/>
<path d="M3180 4175 l0 -105 33 0 c18 0 43 7 55 16 29 20 30 68 2 87 -18 13
-19 16 -5 27 21 18 19 57 -4 70 -11 5 -33 10 -50 10 l-31 0 0 -105z m84 73
c16 -26 -4 -52 -43 -56 -30 -3 -31 -2 -31 38 0 40 1 41 31 38 18 -2 37 -11 43
-20z m-3 -78 c12 -7 19 -21 19 -40 0 -32 -23 -50 -64 -50 -24 0 -26 3 -26 50
0 47 2 50 26 50 14 0 34 -5 45 -10z"/>
<path d="M6588 4264 c-15 -8 -32 -23 -38 -34 -17 -32 -12 -95 10 -123 24 -30
79 -44 107 -28 15 10 14 10 -10 5 -33 -7 -84 12 -97 37 -35 64 18 155 85 147
18 -2 31 0 29 4 -8 13 -57 8 -86 -8z"/>
<path d="M9920 4176 l0 -106 35 0 c43 0 90 23 105 49 5 11 10 39 10 64 0 59
-31 88 -100 95 l-50 5 0 -107z m122 64 c21 -26 24 -97 5 -121 -18 -24 -52 -39
-86 -39 l-31 0 0 96 0 97 47 -6 c32 -3 53 -12 65 -27z"/>
<path d="M13292 4178 l-2 -108 48 2 47 1 -42 4 -42 4 -4 102 -3 102 -2 -107z"/>
<path d="M10771 4238 c0 -9 -7 -19 -13 -21 -10 -4 -10 -6 0 -6 8 -1 12 -20 12
-59 0 -59 11 -83 40 -81 9 0 6 4 -7 9 -20 8 -23 16 -23 69 0 54 2 60 23 64 22
4 22 4 0 6 -12 0 -24 9 -26 19 -4 15 -5 15 -6 0z"/>
<path d="M3352 4197 c-57 -61 10 -161 78 -117 11 7 5 8 -18 4 -37 -7 -72 16
-72 48 0 15 8 18 55 18 47 0 55 3 55 18 0 24 -31 52 -57 52 -11 0 -29 -10 -41
-23z m76 1 c26 -26 13 -38 -38 -38 -54 0 -59 4 -33 32 18 21 53 24 71 6z"/>
<path d="M3502 4197 c-57 -61 10 -161 78 -117 11 7 5 8 -18 4 -37 -7 -72 16
-72 48 0 15 8 18 55 18 47 0 55 3 55 18 0 24 -31 52 -57 52 -11 0 -29 -10 -41
-23z m76 1 c26 -26 13 -38 -38 -38 -54 0 -59 4 -33 32 18 21 53 24 71 6z"/>
<path d="M6800 4207 c22 -11 26 -21 31 -77 l6 -65 1 67 c2 57 -1 69 -17 78
-11 5 -26 10 -33 10 -7 0 -2 -6 12 -13z"/>
<path d="M6893 4145 c0 -44 2 -61 4 -37 2 23 2 59 0 80 -2 20 -4 1 -4 -43z"/>
<path d="M6977 4208 c-57 -44 -29 -141 40 -137 10 0 3 5 -15 10 -40 12 -56 45
-41 89 11 31 45 48 74 36 9 -3 13 -2 10 4 -9 14 -48 12 -68 -2z"/>
<path d="M7232 4197 c-57 -61 10 -161 78 -117 11 7 5 8 -18 4 -37 -7 -72 16
-72 48 0 15 8 18 55 18 47 0 55 3 55 18 0 24 -31 52 -57 52 -11 0 -29 -10 -41
-23z m76 1 c26 -26 13 -38 -38 -38 -54 0 -59 4 -33 32 18 21 53 24 71 6z"/>
<path d="M7373 4145 c1 -60 2 -66 4 -25 3 32 11 63 21 75 15 18 15 18 0 7 -14
-11 -17 -10 -21 5 -3 10 -4 -18 -4 -62z"/>
<path d="M7440 4207 c22 -11 26 -21 31 -77 l6 -65 1 67 c2 57 -1 69 -17 78
-11 5 -26 10 -33 10 -7 0 -2 -6 12 -13z"/>
<path d="M10134 4205 c-17 -13 -16 -13 13 -3 27 10 35 9 52 -7 12 -10 21 -13
21 -7 0 13 -32 32 -52 32 -8 0 -23 -7 -34 -15z"/>
<path d="M10275 4204 c-21 -21 -16 -35 23 -59 45 -28 40 -61 -8 -59 -32 2 -33
1 -12 -9 29 -13 56 0 60 30 2 14 -7 27 -32 41 -20 12 -36 25 -36 30 0 17 30
34 50 29 11 -3 18 -1 14 4 -8 14 -41 10 -59 -7z"/>
<path d="M10392 4208 c-21 -21 -13 -46 24 -67 27 -16 35 -27 31 -41 -3 -11 -1
-18 4 -14 21 13 8 45 -26 61 -45 22 -45 55 0 64 28 6 28 7 5 8 -15 0 -31 -4
-38 -11z"/>
<path d="M10555 4213 c27 -7 45 -23 45 -40 0 -12 -12 -14 -56 -11 l-56 3 6
-35 c8 -52 55 -76 96 -50 10 6 4 8 -21 4 -30 -5 -39 -2 -53 17 -28 40 -21 49
39 49 47 0 55 3 55 18 0 24 -31 52 -56 51 -18 -1 -18 -2 1 -6z"/>
<path d="M10662 4145 l1 -80 6 65 c5 56 9 66 31 77 17 9 20 13 8 13 -9 0 -20
-5 -24 -11 -4 -8 -9 -7 -15 2 -5 9 -8 -18 -7 -66z"/>
<path d="M13441 4211 c-10 -7 -5 -9 18 -8 39 2 67 -27 41 -43 -9 -6 -11 -10
-3 -10 8 0 12 -13 11 -35 -1 -19 2 -38 5 -42 4 -3 7 21 7 55 0 79 -32 113 -79
83z"/>
<path d="M13572 4145 l1 -80 7 65 c4 36 3 72 -1 80 -5 8 -8 -20 -7 -65z"/>
<path d="M13606 4211 c-3 -4 5 -6 18 -4 31 6 40 -9 47 -82 l6 -60 1 61 c1 33
8 66 15 74 10 12 9 12 -4 2 -13 -10 -19 -9 -29 3 -14 16 -46 20 -54 6z"/>
<path d="M13730 4207 c22 -11 26 -21 31 -77 l6 -65 1 62 c2 65 -12 93 -46 93
-12 0 -9 -4 8 -13z"/>
<path d="M10509 4193 c-13 -16 -12 -17 4 -4 16 13 21 21 13 21 -2 0 -10 -8
-17 -17z"/>
<path d="M10110 4143 c0 -45 25 -74 65 -72 14 0 12 3 -9 9 -32 10 -46 25 -46
53 0 14 9 17 55 17 30 0 55 3 55 8 0 4 -23 5 -51 3 -36 -2 -54 1 -60 10 -6 9
-9 -1 -9 -28z"/>
<path d="M13426 4134 c-9 -8 -16 -19 -16 -24 0 -27 61 -53 74 -31 3 4 -5 6
-17 4 -26 -5 -53 20 -42 37 4 6 17 15 29 20 16 7 17 9 4 9 -9 1 -24 -6 -32
-15z"/>
<path d="M10388 4078 c6 -6 18 -8 28 -6 14 3 12 5 -9 10 -19 3 -25 2 -19 -4z"/>
<path d="M3483 3803 c-4 -10 -11 -21 -17 -25 -7 -5 -7 -8 2 -8 7 0 13 -17 14
-47 l1 -48 4 45 c3 24 10 48 16 52 9 6 9 8 0 8 -20 0 -15 28 5 33 16 4 16 5
-1 6 -10 0 -21 -7 -24 -16z"/>
<path d="M3823 3750 c0 -54 2 -64 6 -36 6 36 32 68 46 55 3 -4 9 -26 14 -50
l9 -44 1 41 c1 47 -17 69 -48 59 -16 -5 -20 -1 -24 22 -2 15 -4 -6 -4 -47z"/>
<path d="M4273 3750 c0 -41 2 -58 4 -37 2 20 2 54 0 75 -2 20 -4 3 -4 -38z"/>
<path d="M4310 3810 c0 -5 5 -10 10 -10 6 0 10 5 10 10 0 6 -4 10 -10 10 -5 0
-10 -4 -10 -10z"/>
<path d="M5293 3803 c-4 -10 -11 -21 -17 -25 -7 -5 -7 -8 2 -8 7 0 13 -17 14
-47 l1 -48 4 45 c3 24 10 48 16 52 9 6 9 8 0 8 -20 0 -15 28 5 33 16 4 16 5
-1 6 -10 0 -21 -7 -24 -16z"/>
<path d="M6653 3750 c-1 -54 1 -65 6 -40 9 45 18 60 36 60 14 0 20 -14 28 -70
3 -15 5 -10 5 15 2 53 -9 69 -41 61 -22 -5 -26 -2 -30 21 -2 16 -4 -6 -4 -47z"/>
<path d="M6893 3750 c0 -41 2 -65 4 -52 5 27 19 28 35 2 7 -11 18 -20 25 -20
7 0 1 12 -14 26 l-25 25 23 25 c12 13 17 24 11 24 -6 0 -16 -9 -22 -20 -17
-32 -29 -24 -33 23 -2 23 -4 8 -4 -33z"/>
<path d="M8092 3801 c-4 -11 -5 -44 -2 -73 l5 -53 3 47 c2 34 8 48 20 51 16 4
16 5 0 6 -10 0 -18 5 -18 11 0 5 8 14 18 19 16 10 16 10 -1 11 -10 0 -21 -9
-25 -19z"/>
<path d="M10570 3810 c0 -5 5 -10 10 -10 6 0 10 5 10 10 0 6 -4 10 -10 10 -5
0 -10 -4 -10 -10z"/>
<path d="M11563 3750 c0 -61 1 -67 6 -30 5 36 10 45 26 45 16 0 21 -9 26 -45
l7 -45 -2 50 c-1 46 -3 50 -26 50 -18 0 -27 7 -31 25 -4 14 -6 -9 -6 -50z"/>
<path d="M13621 3755 l-1 -71 28 2 c47 2 50 3 56 29 10 40 -10 68 -44 61 -25
-5 -29 -2 -33 22 -2 15 -5 -5 -6 -43z m64 -25 c0 -41 -27 -53 -45 -21 -14 27
4 64 28 59 12 -2 17 -13 17 -38z"/>
<path d="M13823 3750 c-1 -54 1 -65 6 -40 9 45 18 60 36 60 14 0 20 -14 28
-70 3 -15 5 -10 5 15 2 53 -9 69 -41 61 -22 -5 -26 -2 -30 21 -2 16 -4 -6 -4
-47z"/>
<path d="M14780 3796 c0 -19 -4 -23 -20 -19 -28 7 -50 -14 -50 -47 0 -34 19
-51 54 -48 25 2 26 4 26 70 0 37 -2 68 -5 68 -3 0 -5 -11 -5 -24z m-5 -66 c0
-29 -4 -36 -22 -38 -17 -3 -24 3 -29 22 -7 30 11 58 35 54 11 -2 16 -14 16
-38z"/>
<path d="M3170 3745 l0 -65 30 0 c36 0 58 32 36 52 -10 9 -10 17 -3 30 14 22
-7 48 -39 48 -23 0 -24 -3 -24 -65z m54 46 c10 -16 -5 -41 -25 -41 -14 0 -19
7 -19 25 0 18 5 25 19 25 11 0 22 -4 25 -9z m1 -76 c0 -13 -8 -21 -22 -23 -19
-3 -23 1 -23 23 0 22 4 26 23 23 14 -2 22 -10 22 -23z"/>
<path d="M3759 3795 c-2 -11 -2 -40 1 -65 4 -35 9 -45 25 -48 18 -2 18 -2 3 8
-12 7 -18 23 -18 45 0 24 5 35 18 38 15 4 15 5 0 6 -9 0 -18 9 -20 19 -3 15
-4 14 -9 -3z"/>
<path d="M6550 3790 c-25 -25 -26 -72 -2 -93 19 -17 82 -24 82 -9 0 5 -13 7
-28 4 -34 -5 -62 19 -62 52 0 29 27 53 65 59 l30 4 -32 2 c-21 0 -40 -6 -53
-19z"/>
<path d="M7571 3798 c-1 -10 -7 -18 -13 -18 -10 0 -10 -2 -1 -8 6 -4 13 -25
15 -46 2 -22 9 -41 16 -42 7 -1 8 0 2 3 -15 7 -13 83 3 83 8 0 9 3 1 8 -6 4
-14 14 -17 22 -4 12 -6 11 -6 -2z"/>
<path d="M9910 3745 l0 -65 30 0 c38 0 70 31 70 69 0 35 -31 61 -72 61 -28 0
-28 -1 -28 -65z m74 39 c33 -33 7 -94 -41 -94 -21 0 -23 4 -23 55 0 52 2 55
24 55 14 0 32 -7 40 -16z"/>
<path d="M10460 3795 c-7 -61 6 -115 26 -115 13 0 13 2 0 16 -22 21 -21 71 2
77 15 4 15 5 0 6 -9 0 -19 9 -21 19 -4 15 -5 14 -7 -3z"/>
<path d="M11501 3798 c-1 -10 -7 -18 -13 -18 -10 0 -10 -2 -1 -8 6 -4 13 -25
15 -46 2 -22 9 -41 16 -42 7 -1 8 0 2 3 -15 7 -13 83 3 83 8 0 9 3 1 8 -6 4
-14 14 -17 22 -4 12 -6 11 -6 -2z"/>
<path d="M11760 3795 c-7 -61 6 -115 26 -115 13 0 13 2 0 16 -22 21 -21 71 2
77 15 4 15 5 0 6 -9 0 -19 9 -21 19 -4 15 -5 14 -7 -3z"/>
<path d="M13282 3748 l-2 -68 38 2 c36 1 36 1 5 5 -32 4 -32 5 -36 66 l-3 62
-2 -67z"/>
<path d="M14360 3795 c-7 -61 6 -115 26 -115 13 0 13 2 0 16 -22 21 -21 71 2
77 15 4 15 5 0 6 -9 0 -19 9 -21 19 -4 15 -5 14 -7 -3z"/>
<path d="M15149 3795 c-2 -11 -2 -40 1 -65 4 -35 9 -45 25 -48 18 -2 18 -2 3
8 -12 7 -18 23 -18 45 0 24 5 35 18 38 15 4 15 5 0 6 -9 0 -18 9 -20 19 -3 15
-4 14 -9 -3z"/>
<path d="M15210 3795 c-7 -61 6 -115 26 -115 13 0 13 2 0 16 -22 21 -21 71 2
77 15 4 15 5 0 6 -9 0 -19 9 -21 19 -4 15 -5 14 -7 -3z"/>
<path d="M3282 3768 c-7 -7 -12 -24 -12 -38 0 -32 17 -50 45 -49 17 1 16 2 -5
8 -14 4 -26 15 -28 24 -3 13 4 17 32 17 39 0 41 2 26 31 -12 21 -40 25 -58 7z
m46 -15 c2 -8 -6 -13 -22 -13 -25 0 -33 10 -19 24 10 10 36 3 41 -11z"/>
<path d="M3382 3768 c-7 -7 -12 -24 -12 -38 0 -32 17 -50 45 -49 17 1 16 2 -5
8 -14 4 -26 15 -28 24 -3 13 4 17 32 17 39 0 41 2 26 31 -12 21 -40 25 -58 7z
m46 -15 c2 -8 -6 -13 -22 -13 -25 0 -33 10 -19 24 10 10 36 3 41 -11z"/>
<path d="M3583 3730 c0 -30 2 -43 4 -27 2 15 2 39 0 55 -2 15 -4 2 -4 -28z"/>
<path d="M3633 3773 c-21 -8 -15 -30 13 -48 27 -17 24 -30 -11 -38 -15 -3 -13
-5 8 -6 41 -2 47 27 12 55 -22 17 -25 24 -15 28 43 13 45 14 25 14 -11 0 -26
-2 -32 -5z"/>
<path d="M3932 3768 c-7 -7 -12 -24 -12 -38 0 -33 17 -50 50 -49 20 1 21 2 5
6 -52 13 -59 43 -10 43 22 0 35 5 35 13 0 18 -21 37 -40 37 -9 0 -21 -5 -28
-12z m52 -13 c4 -11 -2 -15 -24 -15 -22 0 -28 4 -24 15 4 8 14 15 24 15 10 0
20 -7 24 -15z"/>
<path d="M4086 3764 c-19 -18 -21 -55 -4 -72 7 -7 23 -12 38 -11 l25 1 -24 7
c-13 3 -29 14 -35 24 -14 22 2 49 35 58 23 7 23 7 2 8 -12 1 -29 -6 -37 -15z"/>
<path d="M4161 3744 c-1 -47 11 -62 52 -62 26 0 27 3 27 49 0 27 -4 49 -10 49
-5 0 -10 -18 -10 -40 0 -27 -5 -43 -15 -47 -22 -8 -28 1 -36 50 l-6 42 -2 -41z"/>
<path d="M4313 3730 c0 -30 2 -43 4 -27 2 15 2 39 0 55 -2 15 -4 2 -4 -28z"/>
<path d="M4362 3726 l1 -51 6 45 c5 36 10 45 26 45 16 0 21 -9 26 -45 l7 -45
-2 50 c-1 49 -1 50 -33 51 l-33 1 2 -51z"/>
<path d="M4489 3772 c31 -9 40 -32 13 -32 -25 0 -46 -25 -38 -45 3 -10 16 -15
36 -13 30 2 31 4 28 48 -3 42 -5 45 -33 47 -27 2 -28 1 -6 -5z m31 -57 c0 -9
-7 -18 -16 -22 -18 -7 -39 11 -30 26 11 17 46 13 46 -4z"/>
<path d="M4561 3730 l2 -55 7 45 c4 25 4 49 -1 55 -5 5 -8 -13 -8 -45z"/>
<path d="M4602 3773 c9 -2 24 -25 32 -50 19 -56 19 -48 0 -67 -8 -9 -11 -16
-5 -16 12 0 23 19 50 89 12 28 17 51 12 51 -4 0 -14 -19 -21 -42 l-13 -43 -13
30 c-7 17 -13 36 -14 43 0 6 -10 11 -22 11 -16 -1 -18 -3 -6 -6z"/>
<path d="M4772 3726 l1 -51 6 45 c5 36 10 45 26 45 16 0 21 -9 26 -45 l7 -45
-2 50 c-1 49 -1 50 -33 51 l-33 1 2 -51z"/>
<path d="M4876 3771 c-3 -4 5 -6 18 -4 14 3 25 -1 29 -10 4 -10 -3 -17 -24
-21 -25 -5 -30 -10 -27 -28 2 -18 9 -23 36 -23 30 -1 32 1 32 35 0 20 -5 41
-12 48 -14 14 -44 16 -52 3z m52 -53 c-6 -16 -36 -34 -44 -26 -3 4 -4 14 -1
23 7 17 51 21 45 3z"/>
<path d="M4971 3730 l2 -55 7 45 c4 25 4 49 -1 55 -5 5 -8 -13 -8 -45z"/>
<path d="M5013 3768 c11 -6 17 -23 18 -51 1 -25 3 -32 6 -17 9 61 14 71 31 68
12 -2 19 -17 23 -48 l7 -45 -2 50 -1 50 -49 1 c-36 1 -45 -1 -33 -8z"/>
<path d="M5136 3758 c-9 -13 -13 -33 -9 -46 6 -24 48 -41 64 -25 5 5 -2 9 -18
8 -18 0 -29 6 -31 18 -3 13 3 17 28 17 27 0 31 3 28 23 -4 31 -42 35 -62 5z
m52 -5 c2 -8 -6 -13 -22 -13 -25 0 -33 10 -19 24 10 10 36 3 41 -11z"/>
<path d="M5346 3764 c-29 -29 -11 -84 27 -84 30 0 47 18 47 50 0 47 -42 66
-74 34z m59 -14 c9 -29 -3 -60 -24 -60 -21 0 -41 19 -41 40 0 39 54 55 65 20z"/>
<path d="M5452 3725 c1 -46 2 -47 5 -10 2 22 11 45 20 52 13 10 13 12 -6 10
-19 -1 -21 -7 -19 -52z"/>
<path d="M6763 3730 c0 -30 2 -43 4 -27 2 15 2 39 0 55 -2 15 -4 2 -4 -28z"/>
<path d="M6812 3768 c-7 -7 -12 -24 -12 -38 0 -32 17 -50 45 -49 17 1 16 2 -5
8 -20 6 -25 13 -25 41 0 28 5 35 25 41 21 6 22 7 5 8 -12 1 -26 -4 -33 -11z"/>
<path d="M6992 3768 c-7 -7 -12 -24 -12 -38 0 -32 17 -50 45 -49 17 1 16 2 -5
8 -14 4 -26 15 -28 24 -3 13 4 17 32 17 39 0 41 2 26 31 -12 21 -40 25 -58 7z
m46 -15 c2 -8 -6 -13 -22 -13 -25 0 -33 10 -19 24 10 10 36 3 41 -11z"/>
<path d="M7081 3725 c1 -47 2 -48 8 -15 9 45 18 60 36 60 14 0 20 -14 28 -70
3 -15 5 -9 6 16 1 47 -12 63 -51 61 -27 -2 -28 -4 -27 -52z"/>
<path d="M7243 3730 c0 -30 2 -43 4 -27 2 15 2 39 0 55 -2 15 -4 2 -4 -28z"/>
<path d="M7293 3773 c-21 -8 -15 -30 13 -48 27 -17 24 -30 -11 -38 -15 -3 -13
-5 8 -6 41 -2 47 27 12 55 -22 17 -25 24 -15 28 43 13 45 14 25 14 -11 0 -26
-2 -32 -5z"/>
<path d="M7439 3772 c31 -9 40 -32 13 -32 -25 0 -46 -25 -38 -45 3 -10 16 -15
36 -13 30 2 31 4 28 48 -3 42 -5 45 -33 47 -27 2 -28 1 -6 -5z m31 -57 c0 -9
-7 -18 -16 -22 -18 -7 -39 11 -30 26 11 17 46 13 46 -4z"/>
<path d="M7624 3748 c26 -63 27 -75 11 -92 -9 -9 -12 -16 -6 -16 12 0 23 19
50 89 12 28 17 51 12 51 -4 0 -14 -19 -21 -42 l-13 -43 -13 30 c-7 17 -13 36
-14 43 0 6 -4 12 -9 12 -6 0 -4 -15 3 -32z"/>
<path d="M7721 3705 c1 -38 4 -58 6 -44 3 21 9 26 24 22 27 -7 49 14 49 47 0
34 -19 51 -54 48 -26 -2 -26 -3 -25 -73z m65 39 c8 -30 -16 -60 -40 -51 -16 6
-23 57 -9 70 16 16 43 6 49 -19z"/>
<path d="M7828 3755 c-17 -38 3 -75 39 -74 21 1 23 3 8 6 -52 13 -59 43 -10
43 36 0 46 15 23 38 -20 20 -48 14 -60 -13z m60 -2 c2 -9 -7 -13 -28 -13 -28
0 -31 2 -20 15 15 18 41 16 48 -2z"/>
<path d="M7982 3768 c-16 -16 -15 -63 2 -78 39 -31 96 25 70 68 -14 21 -55 27
-72 10z m56 -10 c17 -17 15 -43 -4 -59 -31 -26 -70 25 -44 56 15 18 32 19 48
3z"/>
<path d="M10038 3755 c-17 -38 3 -75 39 -74 21 1 23 3 8 6 -52 13 -59 43 -10
43 36 0 46 15 23 38 -20 20 -48 14 -60 -13z m60 -2 c2 -9 -7 -13 -28 -13 -28
0 -31 2 -20 15 15 18 41 16 48 -2z"/>
<path d="M10143 3773 c-21 -8 -15 -30 13 -48 27 -17 24 -30 -11 -38 -15 -3
-13 -5 8 -6 41 -2 47 27 12 55 -22 17 -25 24 -15 28 43 13 45 14 25 14 -11 0
-26 -2 -32 -5z"/>
<path d="M10223 3773 c-21 -8 -15 -30 13 -48 27 -17 24 -30 -11 -38 -15 -3
-13 -5 8 -6 41 -2 47 27 12 55 -22 17 -25 24 -15 28 43 13 45 14 25 14 -11 0
-26 -2 -32 -5z"/>
<path d="M10302 3768 c-7 -7 -12 -24 -12 -38 0 -33 17 -50 50 -49 20 1 21 2 5
6 -52 13 -59 43 -10 43 22 0 35 5 35 13 0 18 -21 37 -40 37 -9 0 -21 -5 -28
-12z m52 -13 c4 -11 -2 -15 -24 -15 -22 0 -28 4 -24 15 4 8 14 15 24 15 10 0
20 -7 24 -15z"/>
<path d="M10391 3725 l1 -50 8 39 c4 22 15 45 24 52 15 11 14 12 -8 10 -24 -1
-26 -4 -25 -51z"/>
<path d="M10573 3730 c0 -30 2 -43 4 -27 2 15 2 39 0 55 -2 15 -4 2 -4 -28z"/>
<path d="M10619 3764 c-11 -14 -10 -18 6 -30 10 -8 22 -14 27 -14 4 0 8 -7 8
-16 0 -12 -7 -15 -25 -12 -14 3 -25 1 -25 -3 0 -5 11 -9 25 -9 39 0 44 29 10
56 -22 17 -25 24 -15 28 43 13 44 14 24 15 -12 1 -28 -6 -35 -15z"/>
<path d="M10756 3771 c-3 -4 6 -6 19 -3 18 3 25 0 25 -12 0 -9 -6 -16 -14 -16
-21 0 -46 -28 -40 -45 4 -9 19 -14 40 -13 31 1 34 4 34 30 0 16 -5 38 -10 49
-11 19 -44 26 -54 10z m44 -56 c0 -16 -27 -32 -37 -22 -3 4 -3 13 0 22 8 20
37 20 37 0z"/>
<path d="M10906 3764 c-19 -18 -21 -55 -4 -72 7 -7 23 -12 38 -11 l25 1 -24 7
c-33 9 -49 36 -35 58 6 10 22 21 35 24 23 7 23 7 2 8 -12 1 -29 -6 -37 -15z"/>
<path d="M10992 3768 c-7 -7 -12 -24 -12 -38 0 -51 48 -68 75 -26 31 47 -24
103 -63 64z m53 -38 c0 -31 -3 -35 -25 -35 -19 0 -26 6 -28 23 -5 36 5 54 30
50 19 -2 23 -9 23 -38z"/>
<path d="M11091 3744 c-1 -47 11 -62 52 -62 26 0 27 3 27 49 0 27 -4 49 -10
49 -5 0 -10 -18 -10 -40 0 -27 -5 -43 -15 -47 -22 -8 -28 1 -36 50 l-6 42 -2
-41z"/>
<path d="M11202 3725 c1 -46 2 -47 5 -10 2 22 11 45 20 52 13 10 13 12 -6 10
-19 -1 -21 -7 -19 -52z"/>
<path d="M11267 3773 c-14 -13 -6 -42 13 -48 27 -9 25 -35 -2 -36 -18 -1 -19
-2 -5 -6 18 -5 47 12 47 28 0 5 -11 15 -25 21 -31 14 -32 35 -2 41 20 4 20 4
1 6 -11 0 -24 -2 -27 -6z"/>
<path d="M11352 3768 c-7 -7 -12 -24 -12 -38 0 -32 17 -50 45 -49 17 1 16 2
-5 8 -14 4 -26 15 -28 24 -3 13 4 17 32 17 39 0 41 2 26 31 -12 21 -40 25 -58
7z m46 -15 c2 -8 -6 -13 -22 -13 -25 0 -33 10 -19 24 10 10 36 3 41 -11z"/>
<path d="M11666 3771 c-3 -4 5 -6 18 -4 14 3 25 -1 29 -10 4 -10 -3 -17 -24
-21 -25 -5 -30 -10 -27 -28 2 -18 9 -23 36 -23 30 -1 32 1 32 35 0 20 -5 41
-12 48 -14 14 -44 16 -52 3z m52 -53 c-6 -16 -36 -34 -44 -26 -3 4 -4 14 -1
23 7 17 51 21 45 3z"/>
<path d="M13389 3772 c31 -9 40 -32 13 -32 -25 0 -46 -25 -38 -45 3 -10 16
-15 36 -13 30 2 31 4 28 48 -3 42 -5 45 -33 47 -27 2 -28 1 -6 -5z m31 -57 c0
-9 -7 -18 -16 -22 -18 -7 -39 11 -30 26 11 17 46 13 46 -4z"/>
<path d="M13461 3730 l2 -55 7 45 c4 25 4 49 -1 55 -5 5 -8 -13 -8 -45z"/>
<path d="M13503 3768 c11 -6 17 -23 18 -51 1 -25 3 -32 6 -17 9 61 14 71 31
68 12 -2 19 -17 23 -48 l7 -45 -2 50 -1 50 -49 1 c-36 1 -45 -1 -33 -8z"/>
<path d="M13934 3755 c-15 -23 -15 -27 0 -50 28 -43 76 -27 76 25 0 52 -48 68
-76 25z m61 -25 c0 -31 -3 -35 -25 -35 -19 0 -26 6 -28 23 -5 36 5 54 30 50
19 -2 23 -9 23 -38z"/>
<path d="M14045 3756 c-12 -18 -13 -29 -5 -51 9 -24 14 -27 40 -21 17 3 30 2
30 -3 0 -16 -30 -33 -50 -28 -11 3 -20 1 -20 -4 0 -5 13 -9 30 -9 37 0 50 23
50 87 0 47 -1 49 -30 51 -21 2 -34 -4 -45 -22z m61 -12 c8 -30 -16 -60 -40
-51 -16 6 -23 57 -9 70 16 16 43 6 49 -19z"/>
<path d="M14155 3756 c-12 -18 -13 -29 -5 -51 9 -24 14 -27 40 -21 17 3 30 2
30 -3 0 -16 -30 -33 -50 -28 -11 3 -20 1 -20 -4 0 -5 13 -9 30 -9 37 0 50 23
50 87 0 47 -1 49 -30 51 -21 2 -34 -4 -45 -22z m61 -12 c8 -30 -16 -60 -40
-51 -16 6 -23 57 -9 70 16 16 43 6 49 -19z"/>
<path d="M14266 3758 c-9 -13 -13 -33 -9 -46 6 -24 48 -41 64 -25 5 5 -2 9
-18 8 -18 0 -29 6 -31 18 -3 13 3 17 28 17 27 0 31 3 28 23 -4 31 -42 35 -62
5z m52 -5 c2 -8 -6 -13 -22 -13 -25 0 -33 10 -19 24 10 10 36 3 41 -11z"/>
<path d="M14539 3772 c31 -9 40 -32 13 -32 -25 0 -46 -25 -38 -45 3 -10 16
-15 36 -13 30 2 31 4 28 48 -3 42 -5 45 -33 47 -27 2 -28 1 -6 -5z m31 -57 c0
-9 -7 -18 -16 -22 -18 -7 -39 11 -30 26 11 17 46 13 46 -4z"/>
<path d="M14611 3730 l2 -55 7 45 c4 25 4 49 -1 55 -5 5 -8 -13 -8 -45z"/>
<path d="M14652 3773 c11 -3 20 -18 23 -41 10 -57 13 -61 14 -16 1 42 -13 65
-38 63 -13 -1 -12 -2 1 -6z"/>
<path d="M14882 3725 l1 -50 6 45 c5 36 10 45 26 45 16 0 21 -9 26 -45 l6 -45
1 43 c1 28 7 45 17 49 22 8 28 -1 36 -50 l6 -42 2 41 c1 51 -20 74 -50 56 -12
-8 -19 -8 -19 -2 0 6 -13 9 -30 8 -29 -2 -30 -3 -28 -53z"/>
<path d="M15042 3745 c-2 -52 7 -64 46 -63 32 1 32 2 32 50 0 59 -18 64 -22 6
-2 -35 -7 -43 -23 -43 -16 0 -21 9 -26 45 l-6 45 -1 -40z"/>
<path d="M15282 3768 c-7 -7 -12 -24 -12 -38 0 -51 48 -68 75 -26 31 47 -24
103 -63 64z m53 -38 c0 -31 -3 -35 -25 -35 -19 0 -26 6 -28 23 -5 36 5 54 30
50 19 -2 23 -9 23 -38z"/>
<path d="M15381 3725 c1 -47 2 -48 8 -15 9 45 18 60 36 60 14 0 20 -14 28 -70
3 -15 5 -9 6 16 1 47 -12 63 -51 61 -27 -2 -28 -4 -27 -52z"/>
<path d="M15546 3771 c-3 -4 6 -6 19 -3 18 3 25 0 25 -12 0 -9 -6 -16 -14 -16
-21 0 -46 -28 -40 -45 4 -9 19 -14 40 -13 31 1 34 4 34 30 0 16 -5 38 -10 49
-11 19 -44 26 -54 10z m44 -56 c0 -16 -27 -32 -37 -22 -3 4 -3 13 0 22 8 20
37 20 37 0z"/>
<path d="M15642 3725 c1 -46 2 -47 5 -10 2 22 11 45 20 52 13 10 13 12 -6 10
-19 -1 -21 -7 -19 -52z"/>
<path d="M15706 3758 c-9 -13 -13 -33 -9 -46 6 -24 48 -41 64 -25 5 5 -2 9
-18 8 -18 0 -29 6 -31 18 -3 13 3 17 28 17 27 0 31 3 28 23 -4 31 -42 35 -62
5z m52 -5 c2 -8 -6 -13 -22 -13 -25 0 -33 10 -19 24 10 10 36 3 41 -11z"/>
<path d="M13731 3693 c-1 -6 -4 -20 -7 -30 -5 -17 -5 -17 6 0 6 10 9 23 6 30
-3 9 -5 9 -5 0z"/>
<path d="M14421 3693 c-1 -6 -4 -20 -7 -30 -5 -17 -5 -17 6 0 6 10 9 23 6 30
-3 9 -5 9 -5 0z"/>
<path d="M3642 3521 c-4 -11 -5 -44 -2 -73 l5 -53 3 47 c2 34 8 48 20 51 16 4
16 5 0 6 -10 0 -18 5 -18 11 0 5 8 14 18 19 16 10 16 10 -1 11 -10 0 -21 -9
-25 -19z"/>
<path d="M4393 3470 c0 -41 2 -58 4 -37 2 20 2 54 0 75 -2 20 -4 3 -4 -38z"/>
<path d="M4960 3530 c0 -5 5 -10 10 -10 6 0 10 5 10 10 0 6 -4 10 -10 10 -5 0
-10 -4 -10 -10z"/>
<path d="M5203 3470 c0 -41 2 -58 4 -37 2 20 2 54 0 75 -2 20 -4 3 -4 -38z"/>
<path d="M5413 3470 c0 -41 2 -58 4 -37 2 20 2 54 0 75 -2 20 -4 3 -4 -38z"/>
<path d="M6600 3516 c0 -19 -4 -23 -20 -19 -28 7 -50 -14 -50 -47 0 -34 19
-51 54 -48 25 2 26 4 26 70 0 37 -2 68 -5 68 -3 0 -5 -11 -5 -24z m-5 -66 c0
-29 -4 -36 -22 -38 -17 -3 -24 3 -29 22 -7 30 11 58 35 54 11 -2 16 -14 16
-38z"/>
<path d="M7610 3517 c0 -18 -5 -23 -27 -22 -21 0 -30 -6 -37 -28 -14 -40 2
-62 48 -64 l36 -1 0 69 c0 39 -4 69 -10 69 -5 0 -10 -10 -10 -23z m-2 -65 c2
-22 -2 -34 -12 -38 -34 -13 -61 37 -34 64 21 21 43 9 46 -26z"/>
<path d="M7723 3523 c-4 -10 -11 -21 -17 -25 -7 -5 -7 -8 2 -8 7 0 13 -17 14
-47 l1 -48 4 45 c3 24 10 48 16 52 9 6 9 8 0 8 -20 0 -15 28 5 33 16 4 16 5
-1 6 -10 0 -21 -7 -24 -16z"/>
<path d="M8013 3470 c0 -41 2 -58 4 -37 2 20 2 54 0 75 -2 20 -4 3 -4 -38z"/>
<path d="M10303 3470 c0 -41 2 -58 4 -37 2 20 2 54 0 75 -2 20 -4 3 -4 -38z"/>
<path d="M10510 3517 c0 -18 -5 -23 -27 -22 -21 0 -30 -6 -37 -28 -14 -40 2
-62 48 -64 l36 -1 0 69 c0 39 -4 69 -10 69 -5 0 -10 -10 -10 -23z m-2 -65 c2
-22 -2 -34 -12 -38 -34 -13 -61 37 -34 64 21 21 43 9 46 -26z"/>
<path d="M11293 3470 c0 -41 2 -58 4 -37 2 20 2 54 0 75 -2 20 -4 3 -4 -38z"/>
<path d="M11523 3470 c-1 -54 1 -65 6 -40 9 45 18 60 36 60 14 0 20 -14 28
-70 3 -15 5 -10 5 15 2 53 -9 69 -41 61 -22 -5 -26 -2 -30 21 -2 16 -4 -6 -4
-47z"/>
<path d="M13343 3470 c0 -54 2 -64 6 -36 6 36 32 68 46 55 3 -4 9 -26 14 -50
l9 -44 1 41 c1 47 -17 69 -48 59 -16 -5 -20 -1 -24 22 -2 15 -4 -6 -4 -47z"/>
<path d="M14182 3521 c-4 -11 -5 -44 -2 -73 l5 -53 3 47 c2 34 8 48 20 51 16
4 16 5 0 6 -10 0 -18 5 -18 11 0 5 8 14 18 19 16 10 16 10 -1 11 -10 0 -21 -9
-25 -19z"/>
<path d="M14350 3516 c0 -19 -4 -23 -20 -19 -28 7 -50 -14 -50 -47 0 -34 19
-51 54 -48 25 2 26 4 26 70 0 37 -2 68 -5 68 -3 0 -5 -11 -5 -24z m-5 -66 c0
-29 -4 -36 -22 -38 -17 -3 -24 3 -29 22 -7 30 11 58 35 54 11 -2 16 -14 16
-38z"/>
<path d="M15173 3470 c0 -54 2 -64 6 -36 6 36 32 68 46 55 3 -4 9 -26 14 -50
l9 -44 1 41 c1 47 -17 69 -48 59 -16 -5 -20 -1 -24 22 -2 15 -4 -6 -4 -47z"/>
<path d="M3531 3518 c-1 -10 -7 -18 -13 -18 -10 0 -10 -2 -1 -8 6 -4 13 -25
15 -46 2 -22 9 -41 16 -42 7 -1 8 0 2 3 -15 7 -13 83 3 83 8 0 9 3 1 8 -6 4
-14 14 -17 22 -4 12 -6 11 -6 -2z"/>
<path d="M4269 3515 c-2 -11 -2 -40 1 -65 4 -35 9 -45 25 -48 18 -2 18 -2 3 8
-12 7 -18 23 -18 45 0 24 5 35 18 38 15 4 15 5 0 6 -9 0 -18 9 -20 19 -3 15
-4 14 -9 -3z"/>
<path d="M4330 3515 c-7 -61 6 -115 26 -115 13 0 13 2 0 16 -22 21 -21 71 2
77 15 4 15 5 0 6 -9 0 -19 9 -21 19 -4 15 -5 14 -7 -3z"/>
<path d="M4900 3515 c-7 -61 6 -115 26 -115 13 0 13 2 0 16 -22 21 -21 71 2
77 15 4 15 5 0 6 -9 0 -19 9 -21 19 -4 15 -5 14 -7 -3z"/>
<path d="M7099 3515 c-2 -11 -2 -40 1 -65 4 -35 9 -45 25 -48 18 -2 18 -2 3 8
-12 7 -18 23 -18 45 0 24 5 35 18 38 15 4 15 5 0 6 -9 0 -18 9 -20 19 -3 15
-4 14 -9 -3z"/>
<path d="M7390 3515 c-7 -61 6 -115 26 -115 13 0 13 2 0 16 -22 21 -21 71 2
77 15 4 15 5 0 6 -9 0 -19 9 -21 19 -4 15 -5 14 -7 -3z"/>
<path d="M11427 3523 c19 -4 23 -12 26 -66 l3 -62 2 62 c2 55 4 62 25 66 12 2
0 4 -28 4 -27 0 -40 -2 -28 -4z"/>
<path d="M13280 3515 c-7 -61 6 -115 26 -115 13 0 13 2 0 16 -22 21 -21 71 2
77 15 4 15 5 0 6 -9 0 -19 9 -21 19 -4 15 -5 14 -7 -3z"/>
<path d="M13961 3518 c-1 -10 -7 -18 -13 -18 -10 0 -10 -2 -1 -8 6 -4 13 -25
15 -46 2 -22 9 -41 16 -42 7 -1 8 0 2 3 -15 7 -13 83 3 83 8 0 9 3 1 8 -6 4
-14 14 -17 22 -4 12 -6 11 -6 -2z"/>
<path d="M14849 3515 c-2 -11 -2 -40 1 -65 4 -35 9 -45 25 -48 18 -2 18 -2 3
8 -12 7 -18 23 -18 45 0 24 5 35 18 38 15 4 15 5 0 6 -9 0 -18 9 -20 19 -3 15
-4 14 -9 -3z"/>
<path d="M3172 3445 l1 -50 4 43 c7 74 51 67 54 -8 2 -32 2 -31 8 10 4 32 11
46 24 48 14 3 17 -4 17 -42 0 -25 5 -46 10 -46 15 0 12 64 -4 86 -13 16 -18
17 -35 7 -12 -8 -22 -9 -26 -3 -3 5 -17 9 -30 8 -23 -2 -25 -6 -23 -53z"/>
<path d="M3328 3475 c-17 -38 3 -75 39 -74 21 1 23 3 8 6 -52 13 -59 43 -10
43 36 0 46 15 23 38 -20 20 -48 14 -60 -13z m60 -2 c2 -9 -7 -13 -28 -13 -28
0 -31 2 -20 15 15 18 41 16 48 -2z"/>
<path d="M3449 3492 c31 -9 40 -32 13 -32 -25 0 -46 -25 -38 -45 3 -10 16 -15
36 -13 30 2 31 4 28 48 -3 42 -5 45 -33 47 -27 2 -28 1 -6 -5z m31 -57 c0 -9
-7 -18 -16 -22 -18 -7 -39 11 -30 26 11 17 46 13 46 -4z"/>
<path d="M3702 3445 c1 -46 2 -47 5 -10 2 22 11 45 20 52 13 10 13 12 -6 10
-19 -1 -21 -7 -19 -52z"/>
<path d="M3764 3475 c-15 -23 -15 -27 0 -50 28 -43 76 -27 76 25 0 52 -48 68
-76 25z m61 -25 c0 -31 -3 -35 -25 -35 -19 0 -26 6 -28 23 -5 36 5 54 30 50
19 -2 23 -9 23 -38z"/>
<path d="M3871 3450 l2 -55 7 45 c4 25 4 49 -1 55 -5 5 -8 -13 -8 -45z"/>
<path d="M3913 3488 c11 -6 17 -23 18 -51 1 -25 3 -32 6 -17 9 61 14 71 31 68
12 -2 19 -17 23 -48 l7 -45 -2 50 -1 50 -49 1 c-36 1 -45 -1 -33 -8z"/>
<path d="M4092 3488 c-7 -7 -12 -24 -12 -38 0 -32 17 -50 45 -49 17 1 16 2 -5
8 -20 6 -25 13 -25 41 0 28 5 35 25 41 21 6 22 7 5 8 -12 1 -26 -4 -33 -11z"/>
<path d="M4176 3491 c-3 -4 6 -6 19 -3 18 3 25 0 25 -12 0 -9 -6 -16 -14 -16
-21 0 -46 -28 -40 -45 4 -9 19 -14 40 -13 31 1 34 4 34 30 0 16 -5 38 -10 49
-11 19 -44 26 -54 10z m44 -56 c0 -16 -27 -32 -37 -22 -3 4 -3 13 0 22 8 20
37 20 37 0z"/>
<path d="M4438 3475 c-17 -38 3 -75 39 -74 21 1 23 3 8 6 -52 13 -59 43 -10
43 36 0 46 15 23 38 -20 20 -48 14 -60 -13z m60 -2 c2 -9 -7 -13 -28 -13 -28
0 -31 2 -20 15 15 18 41 16 48 -2z"/>
<path d="M4631 3429 c1 -41 4 -62 6 -48 3 21 9 26 24 22 26 -7 49 14 49 46 0
30 -16 51 -39 50 -10 0 -7 -4 7 -9 37 -15 25 -86 -14 -78 -14 2 -19 12 -20 41
0 20 -3 40 -7 44 -4 3 -6 -27 -6 -68z"/>
<path d="M4746 3492 c-3 -5 4 -8 16 -8 33 1 31 -18 -3 -31 -42 -16 -37 -48 9
-49 l33 -1 -3 46 c-3 38 -7 47 -25 49 -11 2 -24 -1 -27 -6z m44 -57 c0 -21
-28 -31 -43 -16 -9 9 -8 14 3 21 22 14 40 12 40 -5z"/>
<path d="M4831 3445 l1 -50 8 39 c4 22 15 45 24 52 15 11 14 12 -8 10 -24 -1
-26 -4 -25 -51z"/>
<path d="M4963 3450 c0 -30 2 -43 4 -27 2 15 2 39 0 55 -2 15 -4 2 -4 -28z"/>
<path d="M5016 3484 c-32 -31 -11 -85 32 -83 22 1 23 2 5 6 -52 10 -53 76 -1
86 22 4 22 4 1 6 -12 0 -29 -6 -37 -15z"/>
<path d="M5091 3464 c-1 -47 11 -62 52 -62 26 0 27 3 27 49 0 27 -4 49 -10 49
-5 0 -10 -18 -10 -40 0 -27 -5 -43 -15 -47 -22 -8 -28 1 -36 50 l-6 42 -2 -41z"/>
<path d="M5269 3492 c31 -9 40 -32 13 -32 -25 0 -46 -25 -38 -45 3 -10 16 -15
36 -13 30 2 31 4 28 48 -3 42 -5 45 -33 47 -27 2 -28 1 -6 -5z m31 -57 c0 -9
-7 -18 -16 -22 -18 -7 -39 11 -30 26 11 17 46 13 46 -4z"/>
<path d="M5341 3450 l2 -55 7 45 c4 25 4 49 -1 55 -5 5 -8 -13 -8 -45z"/>
<path d="M5443 3488 c3 -9 11 -35 18 -58 12 -38 11 -44 -6 -56 -10 -8 -14 -14
-7 -14 6 0 18 10 26 23 19 28 48 108 42 115 -3 2 -10 -14 -17 -37 -13 -45 -24
-45 -34 -1 -4 16 -11 33 -17 37 -7 4 -9 0 -5 -9z"/>
<path d="M6656 3484 c-29 -29 -11 -84 27 -84 30 0 47 18 47 50 0 47 -42 66
-74 34z m59 -14 c9 -29 -3 -60 -24 -60 -21 0 -41 19 -41 40 0 39 54 55 65 20z"/>
<path d="M6762 3445 l1 -50 4 43 c7 74 51 67 54 -8 2 -32 2 -31 8 10 4 32 11
46 24 48 14 3 17 -4 17 -42 0 -25 5 -46 10 -46 15 0 12 64 -4 86 -13 16 -18
17 -35 7 -12 -8 -22 -9 -26 -3 -3 5 -17 9 -30 8 -23 -2 -25 -6 -23 -53z"/>
<path d="M6918 3475 c-17 -38 3 -75 39 -74 21 1 23 3 8 6 -52 13 -59 43 -10
43 36 0 46 15 23 38 -20 20 -48 14 -60 -13z m60 -2 c2 -9 -7 -13 -28 -13 -28
0 -31 2 -20 15 15 18 41 16 48 -2z"/>
<path d="M7023 3493 c-21 -8 -15 -30 13 -48 27 -17 24 -30 -11 -38 -15 -3 -13
-5 8 -6 41 -2 47 27 12 55 -22 17 -25 24 -15 28 43 13 45 14 25 14 -11 0 -26
-2 -32 -5z"/>
<path d="M7163 3450 c0 -30 2 -43 4 -27 2 15 2 39 0 55 -2 15 -4 2 -4 -28z"/>
<path d="M7216 3484 c-19 -18 -21 -55 -4 -72 7 -7 23 -12 38 -11 l25 1 -24 7
c-13 3 -29 14 -35 24 -14 22 2 49 35 58 23 7 23 7 2 8 -12 1 -29 -6 -37 -15z"/>
<path d="M7296 3491 c-3 -4 6 -6 19 -3 18 3 25 0 25 -12 0 -9 -6 -16 -14 -16
-21 0 -46 -28 -40 -45 4 -9 19 -14 40 -13 31 1 34 4 34 30 0 16 -5 38 -10 49
-11 19 -44 26 -54 10z m44 -56 c0 -16 -27 -32 -37 -22 -3 4 -3 13 0 22 8 20
37 20 37 0z"/>
<path d="M7456 3478 c-9 -13 -13 -33 -9 -46 6 -24 48 -41 64 -25 5 5 -2 9 -18
8 -18 0 -29 6 -31 18 -3 13 3 17 28 17 27 0 31 3 28 23 -4 31 -42 35 -62 5z
m52 -5 c2 -8 -6 -13 -22 -13 -25 0 -33 10 -19 24 10 10 36 3 41 -11z"/>
<path d="M7776 3484 c-29 -29 -11 -84 27 -84 30 0 47 18 47 50 0 47 -42 66
-74 34z m59 -14 c9 -29 -3 -60 -24 -60 -21 0 -41 19 -41 40 0 39 54 55 65 20z"/>
<path d="M7871 3497 c-2 -17 22 -97 29 -97 10 0 23 50 15 58 -3 3 -5 -2 -5
-11 0 -30 -16 -18 -27 21 -6 20 -11 33 -12 29z"/>
<path d="M7920 3485 c0 -8 4 -15 9 -15 5 0 12 -16 15 -35 4 -19 11 -35 15 -35
10 0 35 90 27 97 -3 3 -8 -11 -11 -31 -9 -46 -21 -46 -29 -1 -7 34 -26 49 -26
20z"/>
<path d="M8156 3491 c-3 -4 6 -6 19 -3 18 3 25 0 25 -12 0 -9 -6 -16 -14 -16
-21 0 -46 -28 -40 -45 4 -9 19 -14 40 -13 31 1 34 4 34 30 0 16 -5 38 -10 49
-11 19 -44 26 -54 10z m44 -56 c0 -16 -27 -32 -37 -22 -3 4 -3 13 0 22 8 20
37 20 37 0z"/>
<path d="M9916 3484 c-19 -18 -21 -55 -4 -72 7 -7 23 -12 38 -11 l25 1 -24 7
c-13 3 -29 14 -35 24 -14 22 2 49 35 58 23 7 23 7 2 8 -12 1 -29 -6 -37 -15z"/>
<path d="M10002 3488 c-7 -7 -12 -24 -12 -38 0 -51 48 -68 75 -26 31 47 -24
103 -63 64z m53 -38 c0 -31 -3 -35 -25 -35 -19 0 -26 6 -28 23 -5 36 5 54 30
50 19 -2 23 -9 23 -38z"/>
<path d="M10101 3445 c1 -47 2 -48 8 -15 9 45 18 60 36 60 14 0 20 -14 28 -70
3 -15 5 -9 6 16 1 47 -12 63 -51 61 -27 -2 -28 -4 -27 -52z"/>
<path d="M10216 3484 c-32 -31 -11 -85 32 -83 22 1 23 2 5 6 -52 10 -53 76 -1
86 22 4 22 4 1 6 -12 0 -29 -6 -37 -15z"/>
<path d="M10342 3465 c-2 -52 7 -64 46 -63 32 1 32 2 32 50 0 59 -18 64 -22 6
-2 -35 -7 -43 -23 -43 -16 0 -21 9 -26 45 l-6 45 -1 -40z"/>
<path d="M10558 3475 c-17 -38 3 -75 39 -74 21 1 23 3 8 6 -52 13 -59 43 -10
43 36 0 46 15 23 38 -20 20 -48 14 -60 -13z m60 -2 c2 -9 -7 -13 -28 -13 -28
0 -31 2 -20 15 15 18 41 16 48 -2z"/>
<path d="M10663 3493 c-21 -8 -15 -30 13 -48 27 -17 24 -30 -11 -38 -15 -3
-13 -5 8 -6 41 -2 47 27 12 55 -22 17 -25 24 -15 28 43 13 45 14 25 14 -11 0
-26 -2 -32 -5z"/>
<path d="M10809 3492 c31 -9 40 -32 13 -32 -25 0 -46 -25 -38 -45 3 -10 16
-15 36 -13 30 2 31 4 28 48 -3 42 -5 45 -33 47 -27 2 -28 1 -6 -5z m31 -57 c0
-9 -7 -18 -16 -22 -18 -7 -39 11 -30 26 11 17 46 13 46 -4z"/>
<path d="M10931 3450 l1 -55 9 45 c5 28 5 48 -1 54 -7 7 -10 -9 -9 -44z"/>
<path d="M10973 3489 c11 -7 17 -24 18 -52 l2 -42 6 40 c7 43 -2 65 -28 65
-14 -1 -14 -2 2 -11z"/>
<path d="M11032 3488 c9 -7 19 -31 21 -53 3 -32 4 -30 3 10 -1 42 -4 50 -21
53 -18 4 -19 3 -3 -10z"/>
<path d="M11102 3488 c-7 -7 -12 -24 -12 -38 0 -33 17 -50 50 -49 20 1 21 2 5
6 -52 13 -59 43 -10 43 22 0 35 5 35 13 0 18 -21 37 -40 37 -9 0 -21 -5 -28
-12z m52 -13 c4 -11 -2 -15 -24 -15 -22 0 -28 4 -24 15 4 8 14 15 24 15 10 0
20 -7 24 -15z"/>
<path d="M11196 3491 c-3 -4 5 -6 18 -4 14 3 25 -1 29 -10 4 -10 -3 -17 -24
-21 -25 -5 -30 -10 -27 -28 2 -18 9 -23 36 -23 30 -1 32 1 32 35 0 20 -5 41
-12 48 -14 14 -44 16 -52 3z m52 -53 c-6 -16 -36 -34 -44 -26 -3 4 -4 14 -1
23 7 17 51 21 45 3z"/>
<path d="M11636 3478 c-9 -13 -13 -33 -9 -46 6 -24 48 -41 64 -25 5 5 -2 9
-18 8 -18 0 -29 6 -31 18 -3 13 3 17 28 17 27 0 31 3 28 23 -4 31 -42 35 -62
5z m52 -5 c2 -8 -6 -13 -22 -13 -25 0 -33 10 -19 24 10 10 36 3 41 -11z"/>
<path d="M11784 3475 c-15 -23 -15 -27 0 -50 10 -15 25 -25 39 -24 21 1 20 1
-3 8 -20 6 -25 13 -25 41 0 28 5 35 25 41 23 7 24 7 3 8 -14 1 -29 -9 -39 -24z"/>
<path d="M11872 3488 c-16 -16 -15 -63 2 -78 39 -31 96 25 70 68 -14 21 -55
27 -72 10z m56 -10 c17 -17 15 -43 -4 -59 -31 -26 -70 25 -44 56 15 18 32 19
48 3z"/>
<path d="M11970 3469 c0 -48 16 -70 50 -67 29 2 30 4 28 53 l-1 50 -6 -45 c-5
-37 -10 -46 -28 -48 -21 -3 -23 1 -23 42 0 25 -4 46 -10 46 -5 0 -10 -14 -10
-31z"/>
<path d="M12081 3445 l1 -50 8 39 c4 22 15 45 24 52 15 11 14 12 -8 10 -24 -1
-26 -4 -25 -51z"/>
<path d="M12149 3484 c-11 -14 -10 -18 6 -30 10 -8 22 -14 27 -14 4 0 8 -7 8
-16 0 -12 -7 -15 -25 -12 -14 3 -25 1 -25 -3 0 -5 11 -9 25 -9 39 0 44 29 10
56 -22 17 -25 24 -15 28 43 13 44 14 24 15 -12 1 -28 -6 -35 -15z"/>
<path d="M12228 3475 c-17 -38 3 -75 39 -74 21 1 23 3 8 6 -52 13 -59 43 -10
43 36 0 46 15 23 38 -20 20 -48 14 -60 -13z m60 -2 c2 -9 -7 -13 -28 -13 -28
0 -31 2 -20 15 15 18 41 16 48 -2z"/>
<path d="M13452 3488 c-7 -7 -12 -24 -12 -38 0 -33 17 -50 50 -49 20 1 21 2 5
6 -52 13 -59 43 -10 43 22 0 35 5 35 13 0 18 -21 37 -40 37 -9 0 -21 -5 -28
-12z m52 -13 c4 -11 -2 -15 -24 -15 -22 0 -28 4 -24 15 4 8 14 15 24 15 10 0
20 -7 24 -15z"/>
<path d="M13602 3445 l1 -50 4 43 c7 74 51 67 54 -8 2 -32 2 -31 8 10 4 32 11
46 24 48 14 3 17 -4 17 -42 0 -25 5 -46 10 -46 15 0 12 64 -4 86 -13 16 -18
17 -35 7 -12 -8 -22 -9 -26 -3 -3 5 -17 9 -30 8 -23 -2 -25 -6 -23 -53z"/>
<path d="M13758 3475 c-17 -38 3 -75 39 -74 21 1 23 3 8 6 -52 13 -59 43 -10
43 36 0 46 15 23 38 -20 20 -48 14 -60 -13z m60 -2 c2 -9 -7 -13 -28 -13 -28
0 -31 2 -20 15 15 18 41 16 48 -2z"/>
<path d="M13879 3492 c31 -9 40 -32 13 -32 -25 0 -46 -25 -38 -45 3 -10 16
-15 36 -13 30 2 31 4 28 48 -3 42 -5 45 -33 47 -27 2 -28 1 -6 -5z m31 -57 c0
-9 -7 -18 -16 -22 -18 -7 -39 11 -30 26 11 17 46 13 46 -4z"/>
<path d="M14072 3488 c-16 -16 -15 -63 2 -78 39 -31 96 25 70 68 -14 21 -55
27 -72 10z m56 -10 c17 -17 15 -43 -4 -59 -31 -26 -70 25 -44 56 15 18 32 19
48 3z"/>
<path d="M14402 3488 c-16 -16 -15 -63 2 -78 39 -31 96 25 70 68 -14 21 -55
27 -72 10z m56 -10 c17 -17 15 -43 -4 -59 -31 -26 -70 25 -44 56 15 18 32 19
48 3z"/>
<path d="M14512 3445 l1 -50 4 43 c7 74 51 67 54 -8 2 -32 2 -31 8 10 4 32 11
46 24 48 14 3 17 -4 17 -42 0 -25 5 -46 10 -46 15 0 12 64 -4 86 -13 16 -18
17 -35 7 -12 -8 -22 -9 -26 -3 -3 5 -17 9 -30 8 -23 -2 -25 -6 -23 -53z"/>
<path d="M14668 3475 c-17 -38 3 -75 39 -74 21 1 23 3 8 6 -52 13 -59 43 -10
43 36 0 46 15 23 38 -20 20 -48 14 -60 -13z m60 -2 c2 -9 -7 -13 -28 -13 -28
0 -31 2 -20 15 15 18 41 16 48 -2z"/>
<path d="M14773 3493 c-21 -8 -15 -30 13 -48 27 -17 24 -30 -11 -38 -15 -3
-13 -5 8 -6 41 -2 47 27 12 55 -22 17 -25 24 -15 28 43 13 45 14 25 14 -11 0
-26 -2 -32 -5z"/>
<path d="M14913 3450 c0 -30 2 -43 4 -27 2 15 2 39 0 55 -2 15 -4 2 -4 -28z"/>
<path d="M14962 3488 c-7 -7 -12 -24 -12 -38 0 -32 17 -50 45 -49 17 1 16 2
-5 8 -20 6 -25 13 -25 41 0 28 5 35 25 41 21 6 22 7 5 8 -12 1 -26 -4 -33 -11z"/>
<path d="M15097 3493 c-14 -13 -6 -42 13 -48 27 -9 25 -35 -2 -36 -18 -1 -19
-2 -5 -6 18 -5 47 12 47 28 0 5 -11 15 -25 21 -31 14 -32 35 -2 41 20 4 20 4
1 6 -11 0 -24 -2 -27 -6z"/>
<path d="M15278 3475 c-17 -38 3 -75 39 -74 21 1 23 3 8 6 -52 13 -59 43 -10
43 36 0 46 15 23 38 -20 20 -48 14 -60 -13z m60 -2 c2 -9 -7 -13 -28 -13 -28
0 -31 2 -20 15 15 18 41 16 48 -2z"/>
<path d="M15382 3488 c-7 -7 -12 -24 -12 -38 0 -33 17 -50 50 -49 20 1 21 2 5
6 -52 13 -59 43 -10 43 22 0 35 5 35 13 0 18 -21 37 -40 37 -9 0 -21 -5 -28
-12z m52 -13 c4 -11 -2 -15 -24 -15 -22 0 -28 4 -24 15 4 8 14 15 24 15 10 0
20 -7 24 -15z"/>
<path d="M15472 3425 c0 -38 3 -57 5 -42 3 21 9 27 22 22 27 -8 48 4 55 31 10
40 -9 64 -49 61 l-35 -2 2 -70z m63 25 c0 -41 -27 -53 -45 -21 -14 27 4 64 28
59 12 -2 17 -13 17 -38z"/>
<path d="M4530 3400 c0 -11 2 -20 4 -20 2 0 6 9 9 20 3 11 1 20 -4 20 -5 0 -9
-9 -9 -20z"/>
<path d="M8056 3405 c-3 -9 -6 -22 -5 -28 0 -7 5 -1 10 12 5 13 8 26 5 28 -2
2 -6 -3 -10 -12z"/>
<path d="M6721 3195 l-1 -71 28 2 c47 2 50 3 56 29 10 40 -10 68 -44 61 -25
-5 -29 -2 -33 22 -2 15 -5 -5 -6 -43z m64 -25 c0 -41 -27 -53 -45 -21 -14 27
4 64 28 59 12 -2 17 -13 17 -38z"/>
<path d="M7603 3243 c-4 -10 -11 -21 -17 -25 -7 -5 -7 -8 2 -8 7 0 13 -17 14
-47 l1 -48 4 45 c3 24 10 48 16 52 9 6 9 8 0 8 -20 0 -15 28 5 33 16 4 16 5
-1 6 -10 0 -21 -7 -24 -16z"/>
<path d="M7773 3190 c0 -61 1 -67 6 -30 5 36 10 45 26 45 16 0 21 -9 26 -45
l7 -45 -2 50 c-1 46 -3 50 -26 50 -18 0 -27 7 -31 25 -4 14 -6 -9 -6 -50z"/>
<path d="M10293 3190 c0 -41 2 -58 4 -37 2 20 2 54 0 75 -2 20 -4 3 -4 -38z"/>
<path d="M10343 3190 c0 -41 2 -58 4 -37 2 20 2 54 0 75 -2 20 -4 3 -4 -38z"/>
<path d="M7711 3238 c-1 -10 -7 -18 -13 -18 -10 0 -10 -2 -1 -8 6 -4 13 -25
15 -46 2 -22 9 -41 16 -42 7 -1 8 0 2 3 -15 7 -13 83 3 83 8 0 9 3 1 8 -6 4
-14 14 -17 22 -4 12 -6 11 -6 -2z"/>
<path d="M13290 3231 c-15 -29 -12 -104 6 -127 15 -18 15 -18 5 3 -14 28 -14
99 -1 124 6 10 8 19 6 19 -3 0 -10 -9 -16 -19z"/>
<path d="M6543 3213 c-21 -8 -15 -30 13 -48 27 -17 24 -30 -11 -38 -15 -3 -13
-5 8 -6 41 -2 47 27 12 55 -22 17 -25 24 -15 28 43 13 45 14 25 14 -11 0 -26
-2 -32 -5z"/>
<path d="M6610 3189 c0 -48 16 -70 50 -67 29 2 30 4 28 53 l-1 50 -6 -45 c-5
-37 -10 -46 -28 -48 -21 -3 -23 1 -23 42 0 25 -4 46 -10 46 -5 0 -10 -14 -10
-31z"/>
<path d="M6837 3213 c-14 -13 -6 -42 13 -48 27 -9 25 -35 -2 -36 -18 -1 -19
-2 -5 -6 18 -5 47 12 47 28 0 5 -11 15 -25 21 -31 14 -32 35 -2 41 20 4 20 4
1 6 -11 0 -24 -2 -27 -6z"/>
<path d="M6912 3145 c0 -38 3 -57 5 -42 3 21 9 27 22 22 27 -8 48 4 55 31 10
40 -9 64 -49 61 l-35 -2 2 -70z m63 25 c0 -41 -27 -53 -45 -21 -14 27 4 64 28
59 12 -2 17 -13 17 -38z"/>
<path d="M7032 3208 c-7 -7 -12 -24 -12 -38 0 -32 17 -50 45 -49 17 1 16 2 -5
8 -14 4 -26 15 -28 24 -3 13 4 17 32 17 39 0 41 2 26 31 -12 21 -40 25 -58 7z
m46 -15 c2 -8 -6 -13 -22 -13 -25 0 -33 10 -19 24 10 10 36 3 41 -11z"/>
<path d="M7124 3195 c-15 -23 -15 -27 0 -50 10 -15 25 -25 39 -24 21 1 20 1
-3 8 -20 6 -25 13 -25 41 0 28 5 35 25 41 23 7 24 7 3 8 -14 1 -29 -9 -39 -24z"/>
<path d="M7213 3170 c0 -30 2 -43 4 -27 2 15 2 39 0 55 -2 15 -4 2 -4 -28z"/>
<path d="M7262 3208 c-7 -7 -12 -24 -12 -38 0 -32 17 -50 45 -49 17 1 16 2 -5
8 -14 4 -26 15 -28 24 -3 13 4 17 32 17 39 0 41 2 26 31 -12 21 -40 25 -58 7z
m46 -15 c2 -8 -6 -13 -22 -13 -25 0 -33 10 -19 24 10 10 36 3 41 -11z"/>
<path d="M7357 3213 c-14 -13 -6 -42 13 -48 27 -9 25 -35 -2 -36 -18 -1 -19
-2 -5 -6 41 -11 57 39 16 52 -26 9 -24 33 4 38 20 4 20 4 1 6 -11 0 -24 -2
-27 -6z"/>
<path d="M7484 3195 c-15 -23 -15 -27 0 -50 28 -43 76 -27 76 25 0 52 -48 68
-76 25z m61 -25 c0 -31 -3 -35 -25 -35 -19 0 -26 6 -28 23 -5 36 5 54 30 50
19 -2 23 -9 23 -38z"/>
<path d="M7876 3198 c-9 -13 -13 -33 -9 -46 6 -24 48 -41 64 -25 5 5 -2 9 -18
8 -18 0 -29 6 -31 18 -3 13 3 17 28 17 27 0 31 3 28 23 -4 31 -42 35 -62 5z
m52 -5 c2 -8 -6 -13 -22 -13 -25 0 -33 10 -19 24 10 10 36 3 41 -11z"/>
<path d="M9900 3189 c0 -48 16 -70 50 -67 29 2 30 4 28 53 l-1 50 -6 -45 c-5
-37 -10 -46 -28 -48 -21 -3 -23 1 -23 42 0 25 -4 46 -10 46 -5 0 -10 -14 -10
-31z"/>
<path d="M10017 3213 c-14 -13 -6 -42 13 -48 27 -9 25 -35 -2 -36 -18 -1 -19
-2 -5 -6 18 -5 47 12 47 28 0 5 -11 15 -25 21 -31 14 -32 35 -2 41 20 4 20 4
1 6 -11 0 -24 -2 -27 -6z"/>
<path d="M10091 3184 c-1 -47 11 -62 52 -62 26 0 27 3 27 49 0 27 -4 49 -10
49 -5 0 -10 -18 -10 -40 0 -27 -5 -43 -15 -47 -22 -8 -28 1 -36 50 l-6 42 -2
-41z"/>
<path d="M10206 3212 c-3 -5 4 -8 16 -8 33 1 31 -18 -3 -31 -42 -16 -37 -48 9
-49 l33 -1 -3 46 c-3 38 -7 47 -25 49 -11 2 -24 -1 -27 -6z m44 -57 c0 -21
-28 -31 -43 -16 -9 9 -8 14 3 21 22 14 40 12 40 -5z"/>
<path d="M13337 3213 c-14 -13 -6 -42 13 -48 27 -9 25 -35 -2 -36 -18 -1 -19
-2 -5 -6 18 -5 47 12 47 28 0 5 -11 15 -25 21 -31 14 -32 35 -2 41 20 4 20 4
1 6 -11 0 -24 -2 -27 -6z"/>
<path d="M13412 3145 c0 -38 3 -57 5 -42 3 21 9 27 22 22 27 -8 48 4 55 31 10
40 -9 64 -49 61 l-35 -2 2 -70z m63 25 c0 -41 -27 -53 -45 -21 -14 27 4 64 28
59 12 -2 17 -13 17 -38z"/>
<path d="M13532 3208 c-7 -7 -12 -24 -12 -38 0 -32 17 -50 45 -49 17 1 16 2
-5 8 -14 4 -26 15 -28 24 -3 13 4 17 32 17 39 0 41 2 26 31 -12 21 -40 25 -58
7z m46 -15 c2 -8 -6 -13 -22 -13 -25 0 -33 10 -19 24 10 10 36 3 41 -11z"/>
<path d="M10380 3130 c0 -5 5 -10 10 -10 6 0 10 5 10 10 0 6 -4 10 -10 10 -5
0 -10 -4 -10 -10z"/>
<path d="M10420 3130 c0 -5 5 -10 10 -10 6 0 10 5 10 10 0 6 -4 10 -10 10 -5
0 -10 -4 -10 -10z"/>
<path d="M10460 3130 c0 -5 5 -10 10 -10 6 0 10 5 10 10 0 6 -4 10 -10 10 -5
0 -10 -4 -10 -10z"/>
<path d="M4622 1170 c-39 -24 -35 -37 14 -46 40 -7 51 0 56 36 4 33 -26 37
-70 10z"/>
<path d="M4846 1141 c-3 -4 -23 -11 -43 -15 -29 -4 -43 -14 -60 -40 -12 -19
-19 -37 -16 -40 4 -3 39 -6 80 -6 80 0 99 -16 32 -26 -27 -5 -36 -10 -28 -15
8 -4 42 0 77 9 47 13 62 21 62 34 0 10 -7 18 -15 18 -9 0 -18 8 -22 18 -10 26
-43 72 -53 72 -5 0 -11 -4 -14 -9z m44 -71 c0 -5 -5 -10 -11 -10 -5 0 -7 5 -4
10 3 6 8 10 11 10 2 0 4 -4 4 -10z"/>
<path d="M11152 1133 c-6 -2 -10 -9 -6 -14 3 -5 -15 -10 -40 -10 -25 -1 -50
-3 -56 -4 -5 -1 -15 -3 -21 -4 -6 0 -9 -6 -7 -12 5 -14 87 -19 111 -7 22 11
22 -4 0 -40 l-18 -27 37 30 c20 17 35 36 32 43 -2 8 -4 22 -4 33 0 19 -5 21
-28 12z"/>
<path d="M5020 1110 c-10 -18 -7 -20 40 -19 57 2 58 3 7 24 -34 14 -37 14 -47
-5z"/>
<path d="M11353 1117 c-24 -6 -43 -17 -43 -24 0 -16 10 -16 47 -2 51 21 103
22 143 4 21 -9 37 -23 36 -31 -4 -25 -49 -55 -73 -49 -13 3 -23 1 -23 -5 0 -5
-10 -10 -22 -10 -13 0 -30 -5 -38 -11 -11 -7 4 -8 53 -4 63 6 67 5 67 -15 0
-21 -18 -60 -34 -71 -5 -4 -6 -14 -3 -23 5 -11 0 -16 -16 -18 -37 -2 -77 5
-100 18 -8 5 -8 2 2 -9 7 -9 19 -17 26 -17 8 0 34 -9 59 -20 54 -23 63 -43 14
-29 -41 11 -57 11 -39 0 16 -10 17 -104 1 -109 -5 -2 -10 -12 -10 -22 0 -10
-5 -22 -11 -25 -5 -4 -9 -14 -7 -23 2 -9 -5 -25 -15 -35 -10 -10 -16 -25 -13
-32 2 -7 -4 -15 -15 -18 -10 -3 -19 -12 -19 -20 0 -8 -14 -20 -31 -26 -25 -8
-34 -8 -46 5 -11 11 -19 12 -28 4 -8 -6 -37 -13 -65 -14 -44 -3 -53 0 -70 22
-11 13 -20 28 -20 32 0 13 58 68 65 62 3 -4 3 1 -1 11 -4 11 0 19 10 23 11 4
14 13 11 25 -4 11 2 26 14 38 10 10 17 22 14 25 -3 2 11 29 30 58 25 37 32 55
24 60 -9 6 -9 8 1 8 6 0 12 9 12 20 0 17 -4 19 -27 14 -40 -10 -63 -23 -63
-37 0 -12 -64 -37 -94 -37 -8 0 -17 -3 -19 -7 -3 -5 15 -6 40 -4 l46 3 -7 -33
c-3 -19 -7 -41 -9 -49 -7 -33 -29 -66 -52 -77 -21 -9 -25 -8 -25 3 0 11 -5 12
-17 5 -26 -13 -66 -17 -82 -7 -10 7 -12 5 -6 -4 9 -15 -11 -30 -41 -30 -12 0
-27 -7 -34 -15 -9 -11 -16 -13 -23 -6 -7 7 -6 15 3 26 7 8 10 18 6 22 -3 3 0
13 8 22 16 19 31 81 19 81 -14 -1 -44 -49 -47 -75 -3 -30 -85 -98 -101 -85 -7
5 -25 4 -47 -3 -32 -11 -61 -14 -103 -8 -13 1 -49 61 -37 61 5 0 17 18 28 40
16 34 26 42 64 52 25 7 37 14 28 16 -10 2 -18 6 -18 9 0 13 95 123 106 123 8
0 14 5 14 11 0 6 7 17 16 26 14 14 16 14 28 -2 10 -14 21 -16 54 -10 23 4 42
12 42 18 0 9 2 9 8 0 4 -7 17 -10 30 -6 12 3 19 9 16 14 -3 5 -10 7 -15 4 -5
-4 -15 -3 -21 2 -17 10 -28 11 -53 3 -11 -4 -31 -3 -45 1 -25 7 -25 7 -3 14
14 5 20 12 16 23 -4 10 -2 13 5 8 7 -4 12 -2 12 3 0 31 -95 -13 -126 -58 -8
-10 -29 -22 -49 -25 -19 -4 -49 -13 -67 -21 -33 -15 -32 -15 24 -9 61 5 82 -6
43 -24 -14 -7 -25 -16 -25 -20 0 -5 -19 -30 -43 -55 -41 -45 -46 -47 -114 -53
-44 -4 -83 -2 -104 5 -18 6 -34 9 -36 7 -2 -2 13 -20 33 -40 20 -20 32 -36 26
-36 -22 0 -82 69 -75 88 5 16 5 16 -12 0 -16 -15 -17 -22 -7 -56 7 -22 12 -47
12 -56 0 -10 7 -24 15 -33 8 -8 13 -19 10 -24 -4 -5 -1 -9 4 -9 10 0 15 34 14
78 -1 6 3 12 8 12 5 0 9 -4 9 -9 0 -4 11 -24 25 -44 25 -38 27 -67 6 -119 -13
-35 -19 -35 -32 0 -5 15 -22 36 -36 46 l-26 19 7 -36 c9 -50 1 -46 -24 9 -21
49 -26 84 -11 84 5 0 5 16 0 38 -9 38 3 106 21 117 6 3 10 15 10 26 0 10 5 19
11 19 6 0 8 -9 4 -20 -9 -30 23 -26 36 4 11 24 27 33 84 46 l30 7 -33 2 -33 1
48 43 c27 23 60 50 73 60 l25 17 -32 -5 c-52 -10 -241 -73 -317 -107 -93 -40
-222 -124 -275 -179 -24 -24 -57 -71 -74 -104 -26 -52 -30 -70 -29 -131 1
-121 76 -263 193 -368 l51 -46 -2306 0 -2306 0 -9 23 c-5 12 -13 36 -18 52 -7
25 -14 30 -37 28 -16 -1 -35 -11 -42 -21 -7 -11 -27 -25 -44 -32 -23 -10 -29
-17 -25 -31 6 -18 -3 -19 -222 -18 -125 1 -220 3 -210 6 29 7 17 46 -20 63
-18 8 -32 19 -32 23 0 15 -50 67 -64 67 -8 0 -17 -9 -20 -20 -8 -31 -63 -28
-71 4 -7 29 -92 101 -101 85 -4 -6 0 -28 10 -49 12 -28 22 -36 35 -33 26 7 32
-11 15 -43 -16 -32 -14 -37 18 -39 17 -1 22 -8 22 -31 0 -20 -6 -30 -18 -32
-15 -3 -18 2 -15 22 2 14 0 24 -3 23 -3 -1 -13 4 -21 11 -9 7 -22 10 -30 7
-10 -4 -17 2 -21 16 -4 13 -9 21 -12 18 -3 -3 1 -27 9 -52 l14 -47 -2279 0
c-1513 0 -2279 -3 -2279 -10 0 -7 3205 -10 9595 -10 6390 0 9595 3 9595 10 0
7 -628 10 -1862 10 -1466 1 -1859 3 -1843 13 19 11 103 99 133 138 19 25 5 51
-19 38 -11 -5 -24 -7 -29 -4 -6 3 -10 1 -10 -5 0 -7 -7 -10 -15 -6 -18 7 -19
2 -3 -27 10 -20 10 -21 -5 -8 -10 8 -17 9 -17 3 0 -6 5 -14 10 -17 6 -3 10
-13 10 -21 0 -8 -4 -14 -10 -14 -5 0 -10 7 -10 16 0 8 -4 13 -9 10 -5 -3 -7
-15 -4 -25 8 -32 -39 -55 -121 -57 -91 -3 -126 4 -126 23 0 11 6 14 25 9 27
-7 33 6 15 34 -7 12 -12 12 -22 2 -6 -6 -24 -12 -39 -12 -32 0 -59 -9 -59 -19
0 -4 14 -6 30 -3 22 3 30 0 30 -11 0 -11 -10 -13 -42 -10 -24 3 -59 6 -78 7
-56 5 -58 5 -56 20 1 14 -69 76 -86 76 -5 0 -4 -9 1 -19 9 -16 7 -19 -13 -17
-14 0 -22 6 -19 13 3 8 -3 13 -16 13 -12 0 -21 -4 -21 -10 0 -14 -28 -12 -33
2 -3 10 -18 6 -53 -12 -41 -21 -58 -24 -103 -20 -30 3 -56 11 -59 18 -2 8 -9
8 -25 -3 -17 -10 -33 -11 -70 -5 -26 5 -73 12 -104 15 -90 9 -101 14 -128 62
-14 25 -25 49 -25 52 0 4 37 1 83 -5 138 -21 312 -13 371 18 21 11 39 -7 31
-31 -4 -9 0 -11 12 -5 10 4 32 8 48 9 82 5 77 45 -5 45 -43 0 -48 2 -53 26 -3
20 0 28 14 31 42 11 10 33 -42 29 -40 -4 -51 -14 -39 -37 21 -38 2 -44 -75
-22 l-20 5 20 -16 c19 -15 12 -15 -90 -12 -60 2 -150 7 -198 11 -79 7 -90 10
-97 30 -11 29 -24 37 -45 29 -10 -4 -15 -14 -12 -24 7 -28 -40 -33 -66 -7
l-21 21 35 15 c18 8 38 14 43 12 5 -1 12 3 16 9 10 17 110 24 145 10 17 -7 68
-14 114 -15 67 -3 93 0 123 15 21 10 40 15 43 11 2 -4 18 -6 35 -3 18 2 30 0
30 -7 0 -6 10 -11 23 -11 20 1 21 2 5 14 -18 13 -14 26 8 26 7 0 15 -8 17 -18
4 -16 5 -16 6 1 1 16 21 25 21 10 0 -7 52 -9 75 -3 22 5 61 -3 76 -17 13 -11
31 -13 79 -7 38 4 57 10 48 15 -7 4 -23 6 -34 3 -12 -3 -25 -1 -28 5 -4 6 -2
11 3 11 6 0 11 6 11 14 0 10 -9 12 -38 6 -21 -4 -45 -10 -53 -15 -8 -5 -5 1 5
13 21 25 16 26 -34 12 -47 -14 -179 -20 -207 -9 -15 5 -21 14 -17 24 12 30
-25 28 -52 -3 -26 -29 -27 -30 -113 -25 -100 5 -201 30 -201 50 0 25 47 38 86
24 31 -11 45 -9 137 20 56 17 105 34 110 36 4 2 7 -2 7 -9 0 -8 -12 -15 -26
-16 -36 -3 -47 -11 -34 -27 19 -22 50 -25 62 -5 9 14 19 17 41 13 17 -4 32 -1
36 5 4 7 20 13 37 14 27 2 43 13 44 30 0 4 -31 4 -69 1 -46 -4 -70 -2 -75 6
-11 17 -53 13 -60 -5 -4 -10 -13 -14 -24 -11 -146 45 -173 51 -247 60 -14 1
-20 -4 -20 -18 0 -15 -7 -20 -25 -20 -20 0 -26 6 -28 28 -2 15 -7 27 -12 27
-14 0 -21 -33 -9 -40 8 -6 8 -9 0 -14 -16 -10 -14 -23 7 -44 18 -18 17 -18
-27 -19 -25 0 -50 -2 -56 -3 -5 -1 -21 -2 -35 -1 -22 2 -20 4 13 15 21 8 46
12 56 9 17 -4 19 1 16 42 -2 26 -8 52 -15 59 -8 8 -10 7 -5 -5 4 -10 2 -20 -4
-24 -7 -4 -11 7 -11 29 0 20 -4 36 -10 36 -19 0 -67 -25 -107 -58 -28 -21 -43
-28 -43 -19 0 8 -9 22 -20 32 -22 20 -35 14 -76 -33 -25 -30 -55 -24 -75 16
-17 34 -81 97 -94 93 -5 -1 -5 3 1 9 9 9 17 9 32 1 10 -6 22 -7 26 -4 3 3 6 1
6 -5 0 -7 5 -12 11 -12 5 0 8 4 4 9 -3 5 4 12 15 16 28 9 15 25 -21 25 -39 0
-37 20 6 48 38 24 50 51 15 32 -11 -6 -20 -15 -20 -20 0 -6 -11 -10 -24 -10
-14 0 -28 -4 -31 -10 -3 -5 -24 -10 -45 -10 -21 0 -45 -6 -52 -13 -7 -7 -28
-20 -45 -28 -18 -7 -33 -18 -33 -22 0 -5 -4 -5 -10 -2 -5 3 -10 1 -10 -4 0 -6
4 -11 9 -11 13 0 65 -79 57 -87 -4 -4 -10 -3 -14 3 -4 6 -20 17 -37 25 -16 8
-30 21 -30 29 -1 8 -6 24 -13 35 -11 20 -12 20 -18 -2 -3 -13 -9 -23 -13 -23
-18 0 -90 -72 -85 -85 5 -11 11 -12 24 -5 29 15 50 12 50 -8 0 -25 -57 -44
-147 -49 l-74 -4 -10 31 c-6 16 -17 30 -25 30 -8 0 -14 7 -14 15 0 8 -7 15
-15 15 -20 0 -19 -23 5 -70 24 -46 25 -69 6 -95 -13 -18 -10 -24 38 -71 29
-28 62 -55 74 -58 24 -8 30 -36 8 -36 -19 0 -56 -52 -56 -79 0 -11 6 -26 13
-33 9 -8 12 -28 9 -58 l-4 -45 95 -26 c97 -27 101 -27 200 -3 27 6 28 6 16
-15 l-14 -21 -730 0 -730 1 30 21 c53 37 179 173 212 229 98 164 77 340 -57
462 -134 122 -319 207 -575 262 -44 10 -94 26 -111 36 -18 11 -39 16 -53 12
-18 -4 -22 -2 -19 12 2 11 -9 24 -32 36 -19 10 -30 19 -25 19 6 0 3 5 -5 10
-19 12 -112 10 -167 -3z m337 -148 c8 -13 20 -27 27 -32 20 -12 -23 -74 -56
-82 -38 -8 -149 -10 -157 -3 -12 13 9 30 32 25 27 -5 26 -5 18 17 -3 9 -15 16
-25 16 -23 0 -25 16 -3 24 10 4 14 14 11 26 -3 13 0 20 9 20 8 0 14 5 14 10 0
7 22 9 57 6 47 -3 60 -8 73 -27z m-150 -159 c0 -5 -4 -10 -9 -10 -6 0 -13 5
-16 10 -3 6 1 10 9 10 9 0 16 -4 16 -10z m139 -12 c27 -17 32 -24 19 -26 -10
-2 -18 -10 -18 -18 0 -8 -11 -20 -25 -26 -29 -13 -32 -23 -8 -37 17 -9 17 -10
0 -28 -9 -11 -17 -27 -17 -36 0 -9 -8 -25 -18 -35 -10 -10 -17 -23 -15 -29 2
-5 -3 -16 -12 -23 -13 -11 -19 -10 -35 5 -10 9 -23 14 -28 11 -6 -3 -17 5 -26
19 -16 24 -56 35 -56 15 0 -5 6 -10 13 -10 7 0 18 -9 24 -19 14 -22 1 -31 -42
-31 -42 0 -48 63 -10 104 22 24 29 37 27 56 0 3 37 4 84 3 46 -2 84 1 84 6 0
14 -27 32 -52 36 -13 2 -34 6 -48 9 -14 4 -19 3 -12 0 22 -10 -7 -34 -41 -34
-17 0 -27 3 -23 8 7 7 11 8 37 11 6 0 8 8 5 16 -6 17 29 35 70 35 15 0 24 6
24 16 0 11 6 15 20 11 11 -3 23 -1 26 4 8 13 12 12 53 -13z m144 -43 c1 -5
-11 -12 -27 -13 -27 -3 -28 -2 -16 13 14 17 40 17 43 0z m1904 -7 c-3 -8 -6
-5 -6 6 -1 11 2 17 5 13 3 -3 4 -12 1 -19z m-3222 -67 c-3 -6 -13 -11 -21 -11
-8 0 -14 -4 -14 -10 0 -5 5 -9 11 -7 6 1 14 -4 16 -10 6 -16 -23 -17 -32 -2
-5 6 -12 4 -20 -8 -17 -23 -25 -15 -18 19 4 21 13 29 42 36 40 10 46 8 36 -7z
m3265 -21 c33 -18 33 -19 10 -19 -40 -1 -70 10 -70 25 0 19 18 17 60 -6z m370
-46 c0 -8 -7 -14 -15 -14 -15 0 -21 21 -9 33 10 9 24 -2 24 -19z m-3090 -27
c0 -28 -28 -69 -43 -64 -7 2 -18 -2 -25 -10 -7 -7 -23 -11 -35 -8 -40 10 -97
11 -97 2 0 -4 -7 -2 -15 7 -8 8 -15 19 -15 25 0 6 7 8 15 5 8 -4 15 -2 15 4 0
5 33 19 73 31 39 13 77 24 82 26 29 10 45 4 45 -18z m2614 -2 c6 -17 4 -18
-18 -9 -20 8 -21 24 -2 24 8 0 16 -7 20 -15z m-1854 -5 c0 -6 -12 -15 -27 -20
-16 -6 -36 -15 -45 -20 -14 -8 -18 -7 -18 6 0 8 4 13 9 10 5 -3 11 0 14 8 5
12 15 17 60 25 4 0 7 -4 7 -9z m1725 -30 c-3 -5 3 -18 15 -30 16 -16 33 -20
91 -20 69 0 109 -11 109 -31 0 -15 -51 -89 -62 -89 -5 0 -8 8 -6 18 2 9 10 16
16 15 7 -2 12 6 12 17 0 13 -7 20 -19 20 -11 0 -21 4 -23 9 -1 6 -23 12 -47
15 -37 4 -48 1 -67 -17 -12 -12 -22 -34 -22 -49 0 -23 3 -26 19 -18 24 13 69
13 69 0 0 -6 -6 -12 -12 -14 -7 -2 -41 -10 -74 -18 l-62 -15 3 77 c3 74 15
116 39 132 16 11 28 10 21 -2z m409 -31 c-3 -5 -11 -9 -18 -9 -16 0 -38 24
-30 33 9 8 54 -14 48 -24z m-654 0 c0 -5 -4 -9 -10 -9 -5 0 -10 7 -10 16 0 8
5 12 10 9 6 -3 10 -10 10 -16z m-1450 -9 c0 -5 -9 -10 -21 -10 -11 0 -17 5
-14 10 3 6 13 10 21 10 8 0 14 -4 14 -10z m1967 -26 c1 0 -1 -12 -5 -28 l-7
-27 -23 31 c-27 36 -21 55 11 37 12 -6 23 -12 24 -13z m-3401 -99 c12 -9 14
-14 6 -15 -18 0 -92 62 -92 78 0 7 15 -1 34 -18 18 -17 42 -37 52 -45z m3241
60 c3 -9 3 -19 -1 -22 -7 -7 -36 16 -36 28 0 15 30 10 37 -6z m336 -4 c21 -8
26 -18 29 -57 4 -51 -9 -65 -39 -42 -18 13 -24 41 -10 54 14 15 6 20 -23 16
-22 -3 -30 0 -30 11 0 13 12 21 42 26 4 0 18 -3 31 -8z m-394 -113 c-12 -21
-13 -21 -17 -4 -2 10 2 22 9 27 20 12 22 4 8 -23z m-3693 -3 c9 -38 -2 -41
-21 -6 -14 27 -14 31 0 31 8 0 17 -11 21 -25z m3564 -3 c0 -13 -12 -22 -22
-16 -10 6 -1 24 13 24 5 0 9 -4 9 -8z m-3470 -117 c0 -3 -5 -5 -11 -5 -15 0
-69 62 -69 80 0 9 16 -2 40 -28 22 -24 40 -45 40 -47z m4215 -99 c17 -7 37
-21 45 -31 8 -10 33 -26 55 -36 l40 -19 -84 0 c-87 0 -110 10 -111 50 0 8 -8
31 -18 50 -19 35 -18 45 9 109 l14 33 10 -72 c9 -66 12 -73 40 -84z m-4162 59
c10 -14 14 -25 10 -25 -10 1 -53 36 -53 44 0 15 27 3 43 -19z m3358 -22 c-23
-43 -38 -56 -56 -49 -16 6 -14 10 16 36 39 33 54 38 40 13z m-3253 -41 c12 -8
22 -19 22 -25 0 -5 -8 -3 -18 6 -10 10 -23 17 -28 17 -6 0 -19 7 -30 16 -18
14 -18 15 6 8 14 -4 35 -14 48 -22z m4327 3 c11 -1 65 -8 120 -15 55 -6 125
-18 156 -26 68 -17 139 -18 172 -3 19 9 31 7 58 -7 19 -9 61 -20 94 -24 33 -4
-96 -8 -287 -9 -310 -1 -347 1 -341 15 3 8 -3 25 -14 37 -36 40 -37 48 -6 42
15 -4 37 -8 48 -10z m-990 -5 c-27 -12 -43 -12 -25 0 8 5 22 9 30 9 10 0 8 -3
-5 -9z m1555 -4 c0 -11 -19 -15 -25 -6 -3 5 1 10 9 10 9 0 16 -2 16 -4z
m-1070 -66 c65 -6 53 -7 -84 -9 -88 0 -157 1 -155 3 2 2 21 13 42 24 36 19 41
19 80 5 23 -8 76 -18 117 -23z m-9147 -7 c-7 -2 -19 -2 -25 0 -7 3 -2 5 12 5
14 0 19 -2 13 -5z"/>
<path d="M11516 627 c3 -10 9 -15 12 -12 3 3 0 11 -7 18 -10 9 -11 8 -5 -6z"/>
<path d="M4515 1100 c3 -5 11 -10 16 -10 6 0 7 5 4 10 -3 6 -11 10 -16 10 -6
0 -7 -4 -4 -10z"/>
<path d="M4577 1076 c-4 -10 -1 -13 8 -9 8 3 12 9 9 14 -7 12 -11 11 -17 -5z"/>
<path d="M11210 1081 c0 -5 9 -7 20 -4 11 3 20 7 20 9 0 2 -9 4 -20 4 -11 0
-20 -4 -20 -9z"/>
<path d="M4385 1070 c-3 -5 -2 -10 4 -10 5 0 13 5 16 10 3 6 2 10 -4 10 -5 0
-13 -4 -16 -10z"/>
<path d="M4685 1070 c-3 -5 -1 -10 4 -10 6 0 11 5 11 10 0 6 -2 10 -4 10 -3 0
-8 -4 -11 -10z"/>
<path d="M4448 1063 c7 -3 16 -2 19 1 4 3 -2 6 -13 5 -11 0 -14 -3 -6 -6z"/>
<path d="M11293 1050 c-2 -8 -11 -30 -19 -48 -15 -36 -18 -62 -6 -62 12 0 37
63 35 88 -2 24 7 28 25 10 9 -9 12 -7 12 9 0 16 -6 21 -21 20 -12 -1 -23 -8
-26 -17z"/>
<path d="M4530 1050 c0 -5 7 -7 15 -4 8 4 15 8 15 10 0 2 -7 4 -15 4 -8 0 -15
-4 -15 -10z"/>
<path d="M10838 1048 c-2 -6 -19 -13 -37 -14 -18 -1 -38 -7 -44 -13 -8 -8 14
-11 81 -11 55 0 92 4 92 10 0 6 -18 10 -40 10 -40 0 -55 15 -22 23 13 4 12 5
-5 6 -12 0 -23 -4 -25 -11z"/>
<path d="M5080 1041 c0 -8 41 -23 47 -17 2 1 -8 8 -22 14 -14 6 -25 8 -25 3z"/>
<path d="M4010 1026 l-34 -13 33 -6 c48 -10 51 -9 51 13 0 23 -2 23 -50 6z"/>
<path d="M10978 1033 c7 -3 16 -2 19 1 4 3 -2 6 -13 5 -11 0 -14 -3 -6 -6z"/>
<path d="M5031 1016 c2 -2 15 -9 29 -15 24 -11 24 -11 6 3 -16 13 -49 24 -35
12z"/>
<path d="M3943 1002 c-10 -7 -10 -12 1 -27 12 -17 13 -17 18 8 5 28 1 32 -19
19z"/>
<path d="M4758 1003 c7 -3 16 -2 19 1 4 3 -2 6 -13 5 -11 0 -14 -3 -6 -6z"/>
<path d="M10980 1000 c20 -13 43 -13 35 0 -3 6 -16 10 -28 10 -18 0 -19 -2 -7
-10z"/>
<path d="M3855 980 c-18 -20 -18 -20 16 -16 19 2 33 6 32 10 -2 3 -3 11 -3 16
0 17 -26 11 -45 -10z"/>
<path d="M4660 991 c0 -5 5 -13 10 -16 6 -3 10 -2 10 4 0 5 -4 13 -10 16 -5 3
-10 2 -10 -4z"/>
<path d="M4712 973 c2 -10 13 -19 26 -21 24 -4 29 7 10 26 -18 18 -40 15 -36
-5z"/>
<path d="M4980 976 c0 -2 15 -13 33 -25 l32 -21 -27 0 c-15 0 -43 9 -63 20
-19 11 -35 16 -35 12 -1 -4 -3 -30 -6 -58 -4 -38 -1 -55 10 -67 9 -9 16 -20
16 -25 0 -8 22 -22 36 -22 10 0 2 29 -11 40 -21 18 -13 23 17 11 21 -8 33 -5
61 15 20 13 43 24 51 24 29 0 2 54 -40 77 -35 20 -74 30 -74 19z m0 -62 c0
-14 -3 -14 -15 -4 -8 7 -15 14 -15 16 0 2 7 4 15 4 8 0 15 -7 15 -16z"/>
<path d="M10933 973 c-15 -5 -17 -23 -4 -23 5 0 11 7 15 15 3 8 4 15 3 14 -1
0 -8 -3 -14 -6z"/>
<path d="M4005 961 c-49 -17 -94 -46 -104 -68 -15 -34 -16 -33 38 -33 42 0 53
4 70 26 12 15 21 34 21 43 0 10 5 22 12 29 14 14 -2 15 -37 3z"/>
<path d="M4266 962 c-12 -19 9 -55 38 -67 26 -11 35 -11 60 2 24 12 30 13 37
2 14 -24 32 5 24 39 -6 29 -8 30 -56 29 -27 -1 -49 -5 -49 -8 0 -4 -9 -9 -21
-12 -15 -4 -19 -2 -15 9 6 15 -9 20 -18 6z"/>
<path d="M4204 945 c21 -16 32 -13 21 4 -3 6 -14 11 -23 11 -15 -1 -15 -2 2
-15z"/>
<path d="M13693 918 c-11 -13 -18 -31 -16 -40 6 -25 23 -23 23 2 0 11 5 20 10
20 6 0 10 -7 10 -15 0 -8 5 -15 10 -15 6 0 10 -7 10 -15 0 -8 5 -15 10 -15 15
0 12 26 -5 40 -8 7 -15 23 -15 36 0 30 -11 30 -37 2z"/>
<path d="M3680 915 c0 -16 17 -19 44 -9 26 10 18 24 -14 24 -20 0 -30 -5 -30
-15z"/>
<path d="M10958 899 c-16 -16 -28 -36 -28 -44 0 -8 -9 -19 -20 -25 -11 -6 -20
-17 -20 -25 0 -9 -10 -15 -25 -15 -14 0 -25 -4 -25 -10 0 -5 -13 -7 -29 -4
-16 4 -32 1 -35 -5 -13 -21 121 -18 163 4 35 18 41 30 11 20 -11 -4 -20 -2
-20 4 0 18 23 61 32 61 5 0 20 12 33 27 16 20 20 30 12 35 -17 11 -19 10 -49
-23z"/>
<path d="M3848 902 c-22 -4 -23 -18 -3 -26 9 -3 18 1 22 10 7 18 3 21 -19 16z"/>
<path d="M7765 900 c-7 -12 16 -50 31 -50 18 0 26 31 13 46 -13 16 -35 18 -44
4z"/>
<path d="M13510 886 c0 -8 5 -18 10 -21 6 -4 8 -10 5 -15 -8 -13 54 -60 70
-54 8 4 15 2 15 -3 0 -5 23 -3 50 6 52 16 71 37 23 25 -26 -7 -27 -6 -13 11
14 17 13 18 -10 12 -31 -8 -130 23 -130 41 0 6 -4 12 -10 12 -5 0 -10 -6 -10
-14z"/>
<path d="M13455 870 c-3 -5 1 -10 9 -10 9 0 16 5 16 10 0 6 -4 10 -9 10 -6 0
-13 -4 -16 -10z"/>
<path d="M7594 861 c3 -5 16 -11 28 -14 22 -6 22 -5 4 8 -22 17 -40 20 -32 6z"/>
<path d="M13830 860 c0 -5 5 -10 11 -10 5 0 7 5 4 10 -3 6 -8 10 -11 10 -2 0
-4 -4 -4 -10z"/>
<path d="M4432 839 c2 -7 10 -15 17 -17 8 -3 12 1 9 9 -2 7 -10 15 -17 17 -8
3 -12 -1 -9 -9z"/>
<path d="M7447 843 c-15 -14 -6 -24 20 -21 34 4 43 28 11 28 -14 0 -28 -3 -31
-7z"/>
<path d="M10498 843 c6 -2 18 -2 25 0 6 3 1 5 -13 5 -14 0 -19 -2 -12 -5z"/>
<path d="M13311 836 c-7 -9 -8 -17 -2 -20 13 -9 43 4 38 17 -5 17 -23 19 -36
3z"/>
<path d="M14915 843 c-11 -2 -30 -6 -42 -9 -28 -6 -30 -24 -3 -24 11 0 20 -4
20 -8 0 -5 27 -6 59 -4 42 3 69 -1 92 -12 40 -20 53 -20 45 -1 -7 20 3 19 26
-2 19 -17 35 -12 23 7 -10 16 -49 29 -56 18 -3 -5 -30 3 -60 17 -53 25 -65 27
-104 18z"/>
<path d="M4470 829 c0 -5 5 -7 10 -4 6 3 10 8 10 11 0 2 -4 4 -10 4 -5 0 -10
-5 -10 -11z"/>
<path d="M4850 836 c0 -8 58 -86 107 -143 l23 -25 10 27 c16 41 4 62 -36 70
-23 4 -48 20 -70 43 -19 20 -34 33 -34 28z"/>
<path d="M5250 826 c-19 -24 -21 -44 -4 -50 17 -7 27 13 22 45 -3 21 -4 21
-18 5z"/>
<path d="M11333 833 c9 -2 15 -8 13 -11 -2 -4 7 -8 20 -8 23 -2 24 -1 7 12
-10 7 -27 13 -38 13 -17 -1 -17 -2 -2 -6z"/>
<path d="M5296 799 c-3 -18 -5 -33 -4 -33 33 -12 64 -36 66 -54 5 -30 20 -28
28 4 5 19 -1 36 -24 67 -38 53 -57 58 -66 16z"/>
<path d="M7213 818 c-14 -22 -57 -42 -61 -29 -5 14 -39 14 -47 0 -4 -6 2 -20
13 -32 11 -12 25 -32 31 -44 10 -19 20 -23 57 -23 60 0 172 34 209 64 l29 23
-52 -5 c-42 -4 -53 -1 -58 12 -3 9 -13 16 -21 16 -9 0 -13 -6 -10 -14 9 -24
-29 -6 -43 20 -15 26 -34 31 -47 12z m112 -68 c-3 -5 -10 -10 -16 -10 -5 0 -9
5 -9 10 0 6 7 10 16 10 8 0 12 -4 9 -10z"/>
<path d="M4009 800 c30 -26 49 -26 26 0 -10 11 -25 20 -34 20 -12 -1 -10 -5 8
-20z"/>
<path d="M4060 813 c1 -21 41 -55 57 -49 15 6 15 8 3 16 -8 5 -15 15 -15 22 0
7 -10 14 -22 16 -13 2 -23 0 -23 -5z"/>
<path d="M4153 803 c-16 -13 -16 -14 -1 -9 12 3 15 1 11 -10 -7 -20 17 -17 47
6 14 11 23 20 20 20 -40 8 -61 6 -77 -7z"/>
<path d="M5060 806 c0 -9 7 -16 16 -16 17 0 14 22 -4 28 -7 2 -12 -3 -12 -12z"/>
<path d="M5130 805 c-7 -9 -8 -15 -2 -15 5 0 12 7 16 15 3 8 4 15 2 15 -2 0
-9 -7 -16 -15z"/>
<path d="M8150 801 c-5 -11 -10 -22 -10 -25 0 -10 64 -6 80 4 12 8 10 10 -9
10 -20 0 -21 2 -11 15 11 13 8 15 -13 15 -16 0 -31 -8 -37 -19z"/>
<path d="M4345 800 c3 -5 15 -15 26 -20 16 -9 19 -7 19 10 0 15 -7 20 -26 20
-14 0 -22 -4 -19 -10z"/>
<path d="M4501 791 c-14 -11 -22 -25 -18 -34 5 -15 115 -57 148 -57 25 0 35
21 17 34 -8 6 -13 16 -11 21 2 6 -3 20 -12 30 -13 18 -14 18 -15 3 0 -24 -13
-23 -35 2 -22 25 -43 25 -74 1z"/>
<path d="M5015 799 c-4 -6 -5 -13 -2 -16 7 -7 27 6 27 18 0 12 -17 12 -25 -2z"/>
<path d="M8003 796 c3 -8 -2 -16 -14 -19 -33 -9 -21 -26 38 -53 32 -14 70 -34
85 -45 15 -11 53 -23 85 -27 103 -13 56 -27 -84 -26 -76 1 -131 -2 -127 -7 3
-5 18 -9 35 -9 16 0 29 -4 29 -10 0 -13 -43 -13 -57 1 -5 5 -30 10 -53 11 -33
0 -49 6 -67 26 -19 20 -26 23 -32 13 -5 -8 -17 -11 -30 -6 -28 9 -27 -6 4 -35
14 -13 25 -29 25 -36 0 -27 -27 -19 -65 21 l-40 42 -77 -1 c-63 -1 -82 -5
-107 -24 -17 -12 -31 -31 -31 -42 0 -28 -17 -33 -39 -11 -10 10 -27 18 -38 18
-29 -3 -28 37 1 61 15 11 26 22 26 25 0 6 -108 -2 -130 -10 -8 -3 -36 -5 -62
-4 -36 2 -49 -2 -56 -16 -6 -10 -14 -14 -18 -10 -4 4 -2 13 4 19 7 7 12 15 12
19 0 12 -46 16 -71 7 -23 -9 -23 -10 -6 -23 22 -16 6 -29 -23 -20 -14 5 -29
-2 -51 -24 l-30 -30 27 -7 c16 -4 41 -2 58 6 17 7 47 14 66 16 30 4 32 3 13
-6 -24 -10 -30 -25 -13 -35 34 -21 -19 -41 -135 -51 -33 -3 -69 -9 -80 -14
-11 -4 -35 -14 -53 -20 -24 -10 -30 -16 -22 -25 6 -7 9 -19 8 -26 -2 -10 7
-13 32 -11 19 1 67 2 105 2 l70 0 -32 21 c-18 12 -33 25 -33 30 0 5 29 9 65 9
36 0 65 -4 65 -9 0 -12 -21 -28 -45 -34 -12 -3 -5 -5 16 -6 51 -1 63 -19 45
-63 -13 -31 -18 -34 -46 -30 -19 3 -37 -1 -48 -11 -9 -8 -46 -22 -82 -31 -36
-9 -69 -21 -74 -26 -6 -6 -21 -10 -34 -10 -36 0 -13 -23 49 -49 61 -27 253
-77 329 -86 l55 -7 -26 24 c-20 19 -26 32 -22 52 8 39 22 32 45 -24 23 -55 37
-62 146 -74 44 -4 55 -2 71 15 18 19 19 19 23 1 4 -14 18 -21 57 -26 49 -6
269 -1 419 10 72 6 73 6 70 32 -2 19 -9 27 -20 26 -29 -3 -21 24 12 41 17 9
30 20 30 26 0 6 14 31 31 56 31 44 32 45 78 39 76 -9 271 -19 271 -13 0 16
-44 117 -51 117 -4 0 -12 -6 -16 -14 -4 -8 -42 -24 -83 -35 -64 -17 -76 -18
-83 -5 -6 11 -13 12 -28 4 -11 -6 -29 -8 -40 -5 -11 4 -25 2 -32 -3 -7 -5 -32
-13 -56 -17 -34 -6 -42 -4 -39 6 2 8 17 20 31 27 15 7 27 20 27 27 0 8 9 20
20 27 11 7 20 18 20 25 0 15 53 53 74 53 9 0 19 -6 22 -14 4 -12 13 -10 41 10
20 13 40 24 44 24 5 0 9 5 9 10 0 6 -10 10 -21 10 -20 0 -21 4 -17 45 4 31 2
48 -8 53 -7 4 -14 19 -16 34 -2 15 -12 36 -22 47 -17 19 -17 21 -3 21 21 0 22
16 1 24 -28 11 -55 6 -80 -13 -42 -33 -103 0 -95 52 2 16 -3 17 -36 11 -21 -3
-43 -12 -49 -20 -16 -20 -27 -17 -21 6 3 13 0 20 -10 20 -9 0 -13 -6 -10 -14z
m-588 -255 c0 -7 14 -19 30 -26 26 -12 27 -13 8 -14 -12 -1 -28 6 -37 14 -8 8
-19 15 -25 15 -12 0 -15 13 -4 24 10 10 28 1 28 -13z m905 4 c0 -8 -4 -15 -9
-15 -5 0 -18 -3 -28 -7 -17 -6 -17 -5 1 15 22 26 36 28 36 7z m-478 -19 c10
-14 -21 -21 -35 -7 -7 7 -20 6 -43 -4 -33 -14 -44 -11 -44 11 0 25 106 25 122
0z m218 -18 c0 -18 3 -44 7 -58 6 -25 6 -25 -16 -6 -13 12 -19 26 -15 38 6 21
-15 25 -34 6 -23 -23 -25 3 -2 27 34 36 60 33 60 -7z m-756 1 c-2 -3 8 -12 21
-19 30 -16 32 -30 6 -30 -11 0 -22 -6 -25 -12 -3 -10 -8 -9 -15 4 -7 9 -31 19
-62 23 -48 7 -49 8 -34 25 12 14 29 18 65 17 26 -1 46 -5 44 -8z m891 -49 c-3
-5 -10 -10 -16 -10 -5 0 -9 5 -9 10 0 6 7 10 16 10 8 0 12 -4 9 -10z m-765
-25 c6 -8 10 -19 8 -24 -1 -5 -11 2 -21 15 -19 26 -8 34 13 9z m163 8 c-7 -2
-19 -2 -25 0 -7 3 -2 5 12 5 14 0 19 -2 13 -5z m437 -44 c0 -9 -7 -20 -16 -23
-9 -4 -14 -9 -11 -13 11 -10 -43 -53 -74 -60 -16 -3 -29 -9 -29 -14 0 -5 -6
-6 -13 -4 -7 3 -23 -12 -37 -33 -25 -38 -30 -42 -50 -42 -6 0 -15 -12 -20 -26
-15 -38 -40 -14 -40 39 0 35 6 46 47 84 26 23 51 43 55 43 4 0 26 16 48 36 32
29 49 37 80 37 23 0 40 5 40 11 0 17 20 -17 20 -35z m-243 -2 c21 -13 0 -44
-57 -87 -29 -22 -56 -44 -59 -48 -4 -4 -20 -17 -38 -29 -22 -16 -33 -19 -36
-10 -6 18 -91 13 -122 -7 -26 -17 -26 -17 -16 2 5 10 45 41 88 69 43 27 91 58
106 69 77 51 104 60 134 41z m163 -287 c0 -5 -4 -10 -10 -10 -5 0 -10 5 -10
10 0 6 5 10 10 10 6 0 10 -4 10 -10z"/>
<path d="M7760 251 c0 -6 4 -13 10 -16 6 -3 7 1 4 9 -7 18 -14 21 -14 7z"/>
<path d="M15170 796 c0 -9 5 -16 10 -16 6 0 10 4 10 9 0 6 -4 13 -10 16 -5 3
-10 -1 -10 -9z"/>
<path d="M4316 766 c3 -9 16 -16 28 -15 14 0 16 2 6 6 -8 3 -21 10 -28 16 -9
7 -11 6 -6 -7z"/>
<path d="M13244 767 c-10 -28 6 -35 61 -28 l50 7 -44 6 c-24 4 -47 12 -52 19
-6 10 -10 9 -15 -4z"/>
<path d="M4186 728 c-18 -31 -22 -46 -15 -59 16 -30 32 -34 47 -11 8 12 21 22
28 22 16 0 18 -11 4 -28 -6 -6 -7 -10 -3 -7 3 3 13 -4 21 -16 13 -19 15 -19
27 -2 7 10 11 21 9 25 -2 3 1 17 7 31 9 19 8 31 -5 56 -18 33 -26 37 -43 20
-8 -8 -13 -8 -17 0 -14 22 -35 10 -60 -31z"/>
<path d="M7543 738 c-18 -6 -33 -14 -33 -18 0 -4 -11 -5 -24 -3 -13 3 -27 0
-30 -6 -11 -17 51 -13 79 5 26 17 75 13 75 -6 0 -6 7 -10 16 -10 10 0 14 6 10
15 -3 10 1 15 12 15 15 0 15 2 2 10 -19 12 -65 11 -107 -2z"/>
<path d="M4145 730 c-4 -6 -11 -7 -17 -4 -7 4 -8 2 -4 -4 5 -9 13 -9 27 -2 10
6 19 13 19 15 0 9 -19 5 -25 -5z"/>
<path d="M14878 724 c-16 -8 -28 -19 -28 -25 0 -7 -12 -8 -30 -4 -32 7 -41
-10 -18 -33 19 -19 44 -14 62 13 9 14 23 25 31 25 8 0 26 5 40 12 18 8 22 14
13 20 -19 11 -39 9 -70 -8z"/>
<path d="M5035 720 c-3 -5 -1 -10 4 -10 6 0 11 5 11 10 0 6 -2 10 -4 10 -3 0
-8 -4 -11 -10z"/>
<path d="M5086 721 c-3 -5 1 -12 10 -15 13 -5 14 -9 4 -21 -9 -11 -8 -19 7
-39 21 -29 33 -33 33 -11 0 21 32 19 58 -5 24 -23 42 -26 43 -7 0 6 4 3 9 -8
7 -17 9 -16 9 10 1 35 -18 74 -19 40 -1 -17 -3 -16 -11 5 -10 23 -11 24 -23 8
-7 -10 -19 -18 -26 -18 -12 0 -11 15 5 53 6 15 1 17 -43 17 -28 0 -53 -4 -56
-9z"/>
<path d="M4370 700 c0 -5 5 -10 10 -10 6 0 10 5 10 10 0 6 -4 10 -10 10 -5 0
-10 -4 -10 -10z"/>
<path d="M7580 699 c0 -5 5 -7 10 -4 6 3 10 8 10 11 0 2 -4 4 -10 4 -5 0 -10
-5 -10 -11z"/>
<path d="M7957 689 c-3 -12 -10 -18 -16 -14 -6 3 -11 -1 -11 -9 0 -10 9 -16
25 -16 18 0 25 5 25 20 0 11 5 20 11 20 6 0 9 -9 6 -20 -4 -15 0 -20 14 -20
32 0 23 37 -12 49 -18 6 -33 11 -34 11 -2 0 -5 -9 -8 -21z"/>
<path d="M4430 681 c0 -25 6 -27 13 -6 4 8 2 17 -3 20 -6 4 -10 -3 -10 -14z"/>
<path d="M4522 684 c11 -11 23 -14 35 -9 17 7 17 8 -2 15 -11 5 -27 9 -35 9
-12 1 -11 -2 2 -15z"/>
<path d="M4395 682 c-11 -2 -24 -11 -28 -18 -5 -8 -12 -12 -17 -9 -5 3 -12 -9
-15 -27 -9 -42 -22 -58 -47 -58 -16 0 -11 -9 26 -55 24 -30 60 -81 78 -113
l33 -57 3 33 c3 32 -24 122 -37 122 -4 0 -12 -5 -18 -11 -19 -19 -34 -1 -20
24 6 12 16 25 21 28 5 4 6 16 3 28 -3 12 -1 21 3 21 5 0 10 -8 13 -17 3 -14 6
-11 11 10 5 15 12 27 17 27 10 0 11 38 1 60 -4 9 -16 14 -27 12z"/>
<path d="M5020 672 c0 -11 7 -25 14 -32 13 -10 15 -7 13 16 -3 31 -27 46 -27
16z"/>
<path d="M7804 675 c28 -15 51 -12 41 6 -4 5 -21 9 -38 9 l-32 0 29 -15z"/>
<path d="M11336 681 c-4 -5 0 -11 6 -14 18 -5 48 3 48 14 0 12 -47 12 -54 0z"/>
<path d="M11191 671 c-14 -4 -27 -13 -29 -20 -3 -10 0 -12 12 -8 10 4 29 7 42
7 25 0 33 15 12 22 -7 3 -24 2 -37 -1z"/>
<path d="M3680 655 c7 -8 16 -12 21 -9 13 8 1 24 -18 24 -13 0 -13 -3 -3 -15z"/>
<path d="M4446 613 c-9 -32 -19 -63 -22 -70 -3 -7 6 -15 23 -19 15 -3 42 -12
60 -20 36 -16 73 -18 73 -4 0 5 11 12 24 16 32 8 42 35 19 51 -15 11 -15 17
-5 33 6 11 12 27 12 36 0 13 6 15 28 9 17 -4 23 -3 17 3 -5 5 -22 12 -37 16
-25 6 -28 4 -28 -19 0 -27 -4 -27 -58 -8 -8 4 -10 -1 -6 -13 3 -11 -6 -5 -21
14 -40 48 -59 42 -79 -25z"/>
<path d="M8350 657 c0 -9 10 -19 22 -23 12 -3 28 -13 36 -20 15 -16 38 -18 46
-6 7 11 -45 49 -78 58 -20 5 -26 2 -26 -9z"/>
<path d="M7509 633 l-24 -28 28 24 c25 23 32 31 24 31 -2 0 -14 -12 -28 -27z"/>
<path d="M5347 634 c-13 -13 -7 -24 14 -24 11 0 19 5 17 12 -5 14 -22 21 -31
12z"/>
<path d="M4694 605 c-4 -16 1 -36 16 -61 13 -20 26 -50 29 -68 7 -34 45 -53
39 -19 -2 12 3 18 17 19 11 1 23 2 28 3 13 2 -31 78 -61 103 -16 13 -27 29
-24 36 2 7 -5 12 -17 12 -14 0 -23 -8 -27 -25z"/>
<path d="M5024 586 c10 -16 34 -56 54 -90 19 -33 37 -63 39 -65 5 -7 53 41 53
53 0 5 -16 25 -36 43 -37 33 -40 51 -8 39 9 -3 18 -15 21 -26 6 -24 21 -26 30
-4 9 23 -17 42 -72 54 -28 5 -61 13 -75 17 l-25 7 19 -28z"/>
<path d="M14868 603 c-25 -6 -22 -20 4 -19 12 0 23 7 26 14 4 12 0 13 -30 5z"/>
<path d="M8520 582 c0 -17 6 -22 27 -22 14 0 24 1 22 3 -2 1 -14 11 -26 21
-23 19 -23 19 -23 -2z"/>
<path d="M10290 581 c0 -5 5 -13 10 -16 6 -3 10 -2 10 4 0 5 -4 13 -10 16 -5
3 -10 2 -10 -4z"/>
<path d="M14822 553 c-11 -11 -7 -13 22 -13 19 0 38 -4 41 -10 8 -13 62 -13
70 0 4 6 31 9 61 8 32 -1 59 3 66 10 12 12 14 12 -177 17 -48 1 -75 -3 -83
-12z"/>
<path d="M11140 534 c0 -8 5 -12 10 -9 6 4 8 11 5 16 -9 14 -15 11 -15 -7z"/>
<path d="M15145 530 c-11 -18 5 -30 41 -30 40 0 44 12 9 28 -32 15 -42 15 -50
2z"/>
<path d="M5341 503 c7 -10 15 -20 16 -22 2 -2 3 5 3 17 0 14 -6 22 -16 22 -14
0 -15 -3 -3 -17z"/>
<path d="M15245 510 c-3 -5 1 -13 10 -16 22 -9 29 1 11 15 -10 8 -16 9 -21 1z"/>
<path d="M14358 503 c7 -3 16 -2 19 1 4 3 -2 6 -13 5 -11 0 -14 -3 -6 -6z"/>
<path d="M4636 485 c-3 -8 -1 -15 4 -15 6 0 10 7 10 15 0 8 -2 15 -4 15 -2 0
-6 -7 -10 -15z"/>
<path d="M4677 493 c-9 -14 8 -33 21 -24 10 6 10 10 -2 20 -8 7 -17 8 -19 4z"/>
<path d="M5445 490 c-3 -5 -1 -10 4 -10 6 0 11 5 11 10 0 6 -2 10 -4 10 -3 0
-8 -4 -11 -10z"/>
<path d="M8406 488 c-4 -9 -22 -22 -39 -29 -40 -16 -67 -38 -67 -56 0 -10 13
-6 48 13 63 36 75 48 70 70 -4 17 -6 17 -12 2z"/>
<path d="M5290 476 c0 -9 -7 -16 -15 -16 -13 0 -14 -4 -5 -21 7 -11 9 -23 6
-26 -11 -12 -58 9 -63 27 -3 11 -11 20 -17 20 -15 0 -56 -42 -56 -58 0 -6 19
-49 43 -95 24 -46 51 -109 61 -140 18 -56 36 -83 36 -53 0 12 10 16 40 16 22
0 67 7 100 17 56 15 61 15 78 0 26 -23 32 -13 32 53 0 65 -4 72 -34 60 -14 -5
-28 -3 -40 6 -11 7 -23 11 -28 8 -5 -3 -16 0 -24 7 -12 10 -22 8 -54 -10 -41
-23 -69 -22 -90 4 -10 13 -5 18 34 35 51 23 56 34 26 52 -19 12 -19 13 6 39
l25 26 -31 33 c-21 22 -30 27 -30 16z"/>
<path d="M3515 430 c3 -5 8 -10 11 -10 2 0 4 5 4 10 0 6 -5 10 -11 10 -5 0 -7
-4 -4 -10z"/>
<path d="M4500 431 c0 -13 29 -35 37 -28 7 8 -15 37 -28 37 -5 0 -9 -4 -9 -9z"/>
<path d="M4634 422 c-27 -22 -42 -74 -19 -66 10 4 13 13 10 25 -5 14 -1 19 14
19 14 0 21 6 21 20 0 24 0 24 -26 2z"/>
<path d="M4690 415 c7 -8 16 -15 21 -15 5 0 9 7 9 15 0 9 -9 15 -21 15 -18 0
-19 -2 -9 -15z"/>
<path d="M5391 402 l-44 -15 29 -21 c16 -12 37 -30 47 -41 43 -48 51 -55 56
-49 3 3 -1 9 -10 14 -9 5 -16 25 -17 49 -2 35 0 40 15 34 17 -7 17 -6 1 11
-10 9 -18 22 -18 27 0 11 -3 11 -59 -9z"/>
<path d="M4450 391 c0 -25 6 -27 13 -6 4 8 2 17 -3 20 -6 4 -10 -3 -10 -14z"/>
<path d="M4750 399 c0 -5 5 -7 10 -4 6 3 10 8 10 11 0 2 -4 4 -10 4 -5 0 -10
-5 -10 -11z"/>
<path d="M4780 389 c-10 -18 -9 -20 7 -17 10 2 19 11 21 21 5 24 -15 21 -28
-4z"/>
<path d="M8560 360 c0 -41 3 -50 18 -50 13 0 14 -2 3 -9 -21 -13 -4 -31 30
-31 40 0 38 -24 -8 -66 -34 -31 -41 -33 -87 -29 -28 3 -100 7 -161 9 -60 3
-123 8 -140 11 -42 8 -51 -2 -59 -64 l-7 -53 38 5 c21 4 78 11 126 17 77 10
137 23 262 59 74 21 128 55 136 86 8 27 0 32 -19 13 -28 -28 -60 53 -34 85 24
28 11 52 -30 53 -20 1 -43 4 -52 7 -13 5 -16 -2 -16 -43z m-317 -224 c3 -7 2
-19 -3 -26 -6 -10 -11 -8 -19 8 -6 11 -11 25 -11 31 0 14 27 3 33 -13z"/>
<path d="M15150 400 c0 -5 5 -10 11 -10 5 0 7 5 4 10 -3 6 -8 10 -11 10 -2 0
-4 -4 -4 -10z"/>
<path d="M4476 365 c-4 -16 -13 -25 -27 -25 -16 0 -18 -3 -9 -19 8 -16 13 -18
35 -8 14 7 26 20 26 30 1 9 2 22 3 29 2 23 -22 18 -28 -7z"/>
<path d="M6840 365 c0 -8 4 -15 10 -15 5 0 7 7 4 15 -4 8 -8 15 -10 15 -2 0
-4 -7 -4 -15z"/>
<path d="M4516 361 c-4 -7 -5 -15 -2 -18 9 -9 19 4 14 18 -4 11 -6 11 -12 0z"/>
<path d="M4571 328 c1 -18 3 -25 6 -15 2 9 8 15 13 12 4 -3 6 4 3 15 -8 32
-23 23 -22 -12z"/>
<path d="M4678 340 c-8 -12 -24 -20 -40 -20 -35 0 -36 -19 -2 -59 24 -29 28
-30 97 -28 68 2 71 1 77 -22 3 -14 10 -26 16 -28 14 -5 11 67 -4 95 -7 12 -10
22 -6 22 3 0 1 7 -6 15 -24 29 -67 17 -61 -17 2 -15 -16 -8 -35 14 -10 12 -13
18 -6 14 8 -5 12 0 12 13 0 27 -26 27 -42 1z m34 -65 l30 -25 -34 4 c-18 3
-36 5 -40 5 -13 1 -9 41 3 41 6 0 24 -11 41 -25z"/>
<path d="M5490 347 c0 -2 9 -14 20 -27 14 -16 20 -18 20 -9 0 16 -19 39 -32
39 -4 0 -8 -2 -8 -3z"/>
<path d="M3491 294 c0 -11 3 -14 6 -6 3 7 2 16 -1 19 -3 4 -6 -2 -5 -13z"/>
<path d="M8681 294 c0 -11 3 -14 6 -6 3 7 2 16 -1 19 -3 4 -6 -2 -5 -13z"/>
<path d="M3410 256 c0 -16 5 -26 15 -26 8 0 15 6 15 14 0 7 -7 19 -15 26 -13
11 -15 8 -15 -14z"/>
<path d="M6863 265 c-3 -9 -3 -19 1 -22 9 -10 58 16 51 27 -10 16 -45 12 -52
-5z"/>
<path d="M4470 263 c0 -2 11 -29 25 -59 14 -30 25 -60 25 -66 0 -7 6 -3 14 7
10 14 11 26 5 44 -6 13 -8 30 -5 37 3 7 -1 17 -7 22 -14 11 -57 22 -57 15z"/>
<path d="M14961 265 c12 -11 80 -15 96 -6 14 8 4 10 -41 11 -33 0 -57 -2 -55
-5z"/>
<path d="M15056 215 c-23 -17 -22 -18 27 -39 27 -11 45 -13 63 -6 23 9 25 8
19 -11 -6 -19 -4 -21 16 -16 13 4 27 7 32 7 4 0 7 10 7 23 0 19 -8 24 -52 35
-29 7 -62 14 -73 17 -11 3 -29 -2 -39 -10z"/>
<path d="M3632 195 c-9 -20 -9 -25 3 -25 16 0 38 34 28 44 -12 11 -20 6 -31
-19z"/>
<path d="M15260 190 c0 -5 5 -10 10 -10 6 0 10 5 10 10 0 6 -4 10 -10 10 -5 0
-10 -4 -10 -10z"/>
<path d="M15460 160 c-13 -9 -13 -11 0 -20 18 -11 39 5 24 20 -6 6 -15 6 -24
0z"/>
<path d="M3517 134 c24 -14 69 -36 100 -50 l58 -24 -30 25 c-36 31 -125 75
-151 75 -13 0 -5 -9 23 -26z"/>
<path d="M15327 143 c-13 -12 -7 -33 8 -33 8 0 15 9 15 20 0 20 -11 26 -23 13z"/>
<path d="M15380 136 c0 -8 5 -18 10 -21 6 -3 10 -15 10 -26 0 -23 23 -25 45
-3 14 14 14 19 2 38 -17 25 -67 35 -67 12z"/>
<path d="M19070 125 l24 -25 23 22 c13 12 23 23 23 25 0 2 -21 3 -47 3 l-46 0
23 -25z"/>
<path d="M15338 83 c6 -2 18 -2 25 0 6 3 1 5 -13 5 -14 0 -19 -2 -12 -5z"/>
</g>
</svg>
